<svg xmlns="http://www.w3.org/2000/svg" width="201" height="75" xmlns:v="https://vecta.io/nano"><path d="M125.999 44.289c4.647-16.474-2.778-32.987-16.584-36.881s-28.766 6.303-33.414 22.777 2.778 32.987 16.584 36.881 28.766-6.303 33.414-22.777z" fill="#fbc02d"/><path d="M87.828 10.235c-4.919 3.656-8.775 9.473-10.769 16.785-3.856 14.292.931 29.581 10.769 37.06l11.434 4.487c11.168.997 21.937-7.478 25.659-21.438 1.463-5.318 1.728-10.968.798-16.12-7.977-1.163-17.151-4.653-20.208-9.805-3.59-5.65-11.035-9.473-17.682-10.968z" fill="#f4511e"/><path d="M77.059 27.186c-4.387 16.619 2.659 34.401 15.954 40.051 13.295 5.484 27.521-3.324 32.041-19.943.931-3.656 1.463-7.478 1.33-11.135-5.451-2.991-11.966-4.653-16.885-2.991-7.312 2.327-23.266-7.478-28.717-14.957-1.595 2.659-2.792 5.65-3.723 8.974z" fill="#ffa000"/><path d="M75.995 33.335c-1.462 14.624 5.451 28.917 17.018 33.736 10.902 4.653 22.602-.665 28.85-11.965-8.509-.831-19.145-4.487-22.601-9.971-4.786-7.478-15.954-11.633-23.266-11.799z" fill="#fbc02d"/><path d="M93.013 67.071c9.174 3.822 18.746.831 25.393-6.814-5.185-2.493-11.035-3.822-15.555-2.327-6.249 1.994-19.145-5.152-26.058-11.799 2.26 9.473 8.11 17.616 16.22 20.94z" fill="#e64a19"/><path d="M60.66 50.761c-.023-3.4 1.367-4.81 4.767-4.833l2-.014c3.2-.022 6.288-1.844 6.261-5.744s-3.139-5.679-6.339-5.656l-2 .014c-3.4.023-4.81-1.367-4.833-4.767l-.148-21.4c-.024-3.5-1.948-6.887-6.248-6.857-4.4.03-6.277 3.444-6.252 6.944l.148 21.4c.023 3.4-1.367 4.81-4.767 4.833l-25.3.175c-3.4.023-4.81-1.367-4.833-4.767l-.148-21.4c-.024-3.5-1.948-6.887-6.348-6.856-4.3.03-6.177 3.443-6.152 6.943l.16 23.1c.07 10.2 4.299 14.371 14.499 14.301l28.201-.095c3.4-.023 4.81 1.367 4.833 4.767l.115 16.6c.024 3.5 1.948 6.887 6.348 6.856 4.3-.03 6.177-3.443 6.152-6.943l-.115-16.6zm48.645 21.765c17-.117 23.852-7.165 23.735-24.065l-.153-22.2c-.117-16.9-7.065-23.852-24.065-23.735l-17.5.121c-17 .117-23.852 7.165-23.735 24.065l.153 22.2c.117 16.9 7.065 23.852 24.065 23.735l17.5-.121zM92.226 61.244c-8.4.058-11.924-3.418-11.982-11.718l-.163-23.6c-.057-8.3 3.418-11.824 11.818-11.882l16.5-.114c8.4-.058 11.924 3.418 11.982 11.718l.163 23.6c.057 8.3-3.418 11.824-11.818 11.882l-16.5.114zm95.68-11.361c-.023-3.4 1.367-4.81 4.767-4.833l2-.014c3.2-.022 6.288-1.844 6.261-5.744s-3.139-5.679-6.339-5.656l-2 .014c-3.4.023-4.81-1.367-4.833-4.767l-.148-21.4c-.024-3.5-1.948-6.887-6.248-6.857-4.4.03-6.277 3.444-6.252 6.944l.148 21.4c.023 3.4-1.367 4.81-4.767 4.833l-25.3.175c-3.4.023-4.81-1.367-4.833-4.767l-.148-21.4c-.024-3.5-1.948-6.887-6.348-6.856-4.3.03-6.177 3.443-6.152 6.943l.16 23.1c.07 10.2 4.299 14.371 14.499 14.301l28.201-.095c3.4-.023 4.81 1.367 4.833 4.767l.115 16.6c.024 3.5 1.948 6.887 6.348 6.856 4.3-.03 6.177-3.443 6.152-6.943l-.115-16.6z" fill="#d84315"/></svg>