<svg xmlns="http://www.w3.org/2000/svg" xmlns:xlink="http://www.w3.org/1999/xlink" width="191" height="192" xmlns:v="https://vecta.io/nano"><style><![CDATA[.B{fill:#212121}.C{fill:#cfd8dc}.D{opacity:.2}.E{fill:#90a4ae}.F{opacity:.1}.G{fill:#78909c}.H{fill:#263238}.I{fill:#e64a19}.J{fill:#1a237e}]]></style><path d="M54.519 68.46l-1.04 1.819-2.991 5.326c-1.3 2.338-2.731 5.196-4.161 8.703-1.43 3.377-2.861 7.404-3.641 12.081-.91 4.546-1.04 9.742.13 15.068.39 1.299.65 2.728 1.17 4.027l.78 1.948c.26.649.65 1.299.91 1.948.39.649.65 1.299 1.04 1.948s.91 1.299 1.3 1.948l1.69 1.689c.65.52 1.3.909 1.951 1.429 2.731 1.689 5.981 2.598 9.232 2.598s6.372-.65 9.362-1.949c1.43-.65 2.991-1.559 4.291-2.598s2.471-2.468 3.381-4.157c.78-1.689 1.3-3.767.78-5.715-.39-1.948-1.56-3.897-3.251-5.066s-3.771-1.689-5.851-1.429c-.52 0-1.04.26-1.56.26-.52.13-.91.39-1.43.52-.78.39-1.56.779-2.21 1.429-1.43 1.039-2.731 2.338-3.641 3.767-.91 1.559-1.56 3.118-1.951 4.806-.78 3.377-.39 6.755.52 9.872s2.34 5.845 4.161 8.314c3.641 4.936 8.712 8.573 14.043 10.262 1.3.52 2.731.779 4.031 1.039l1.951.39c.65.13 1.3.13 1.95.13s1.3.13 1.951.13 1.3 0 1.95-.13c1.3 0 2.471-.26 3.771-.39 4.941-.779 9.102-2.988 12.223-5.326 3.251-2.338 5.591-4.676 7.542-6.495 1.82-1.819 3.251-3.377 4.291-4.287l1.43-1.429-4.031-4.287-1.56 1.559c-.91 1.039-2.341 2.468-4.161 4.417-1.82 1.819-3.901 4.027-6.632 5.975s-5.981 3.767-10.012 4.546c-3.901.779-8.582.52-13.003-.779a24.79 24.79 0 0 1-11.833-8.313c-1.56-2.078-2.861-4.287-3.641-6.755s-1.04-5.066-.52-7.534 1.82-4.546 3.771-6.105c.52-.39 1.04-.65 1.56-1.039l.65-.26c.26 0 .52-.13.78-.13 1.04-.13 1.95.13 2.861.65 1.69 1.169 2.341 3.507 1.3 5.586s-3.251 3.767-5.591 4.936c-4.811 2.338-10.792 2.468-14.953-.13-.52-.39-1.04-.649-1.43-1.039l-1.3-1.299-1.04-1.429c-.39-.52-.65-1.169-.91-1.689s-.65-1.169-.91-1.689c-.26-.649-.52-1.169-.65-1.819-.52-1.169-.78-2.338-1.17-3.507-1.17-4.806-1.04-9.483-.39-13.769s1.95-8.184 3.251-11.431c1.3-3.377 2.601-6.235 3.901-8.443 1.17-2.338 2.211-4.027 2.861-5.326l1.04-1.819-2.341-1.559z" fill="#b0bec5"/><path d="M73.373 119.51l.65-1.039c1.04-2.078.52-4.417-1.3-5.586-.91-.52-1.82-.779-2.861-.65-.26 0-.52.13-.78.13l-.65.26c-.52.39-1.17.65-1.56 1.039l-.78.779a7.91 7.91 0 0 1 2.081-2.078c.52-.39 1.04-.65 1.56-1.039l.65-.26c.26 0 .52-.13.78-.13 1.04-.13 1.95.13 2.861.649 1.69 1.169 2.341 3.507 1.3 5.586-.52.65-1.17 1.559-1.951 2.338zm.91 4.806c-1.3 1.169-2.731 1.948-4.291 2.598-1.43.65-2.861 1.039-4.291 1.429-.13-.39-.26-.779-.52-1.039 2.081-.26 4.031-.909 5.981-1.689 1.43-.649 2.991-1.559 4.291-2.598.26-.26.52-.52.91-.779-.52.65-1.3 1.429-2.081 2.078zm-14.433-6.885c-.52 2.078-.52 4.157-.26 6.105-.52-.13-.91-.13-1.43-.26 0-1.429 0-2.988.39-4.416.39-1.689 1.04-3.377 1.95-4.806.52-.909 1.17-1.559 1.95-2.338a3.95 3.95 0 0 0-.65.909c-.91 1.429-1.56 3.117-1.95 4.806zM42.556 96.388c.78-4.546 2.21-8.573 3.641-12.08 1.43-3.377 2.861-6.365 4.161-8.703 1.17-2.338 2.34-4.157 2.991-5.326.78-1.169 1.04-1.819 1.04-1.819l.26.13c0 .13-.13.13-.13.26-.65 1.169-1.821 2.988-2.991 5.326a79.63 79.63 0 0 0-4.161 8.703c-1.43 3.377-2.861 7.404-3.641 12.081-.91 4.546-1.04 9.742.13 15.068.39 1.299.65 2.728 1.17 4.027l.78 1.948c.26.649.65 1.299.91 1.948.39.649.65 1.299 1.04 1.948s.91 1.299 1.3 1.948l1.69 1.689c.65.52 1.3.909 1.95 1.429 2.341 1.429 4.941 2.208 7.672 2.468.91 2.988 2.341 5.845 4.161 8.314 3.641 4.936 8.712 8.573 14.043 10.262 1.3.52 2.731.779 4.031 1.039l1.95.39c.65.13 1.3.13 1.951.13s1.3.13 1.95.13 1.3 0 1.95-.13c1.3 0 2.471-.26 3.771-.39 4.941-.779 9.102-2.988 12.223-5.326 3.251-2.338 5.591-4.676 7.542-6.495 1.82-1.819 3.251-3.377 4.291-4.287l.13-.13.13.13-1.43 1.429-4.291 4.287c-1.95 1.948-4.291 4.287-7.542 6.495-3.121 2.208-7.282 4.416-12.223 5.326-1.17.13-2.471.39-3.771.39-.65 0-1.3 0-1.95.13-.65 0-1.3-.13-1.951-.13s-1.3-.13-1.95-.13l-1.951-.39c-1.3-.26-2.731-.52-4.031-1.039-5.331-1.819-10.402-5.326-14.043-10.262-1.82-2.468-3.251-5.196-4.161-8.313-2.731-.26-5.331-1.039-7.672-2.468-.65-.519-1.3-.909-1.951-1.429l-1.69-1.689c-.39-.649-.91-1.299-1.3-1.948s-.65-1.299-1.04-1.948c-.26-.65-.65-1.299-.91-1.948l-.78-1.948c-.52-1.299-.78-2.598-1.17-4.027-1.17-5.326-.91-10.522-.13-15.068z" class="G"/><path d="M52.958 70.928l1.95 1.689c.26-.39.39-.779.65-1.039l1.04-1.819-2.211-1.299-1.04 1.819c-.13.26-.26.39-.39.649z" fill="#546e7a"/><path d="M60.37 127.298c-.39-1.169-.65-2.858-.78-3.767-.13-1.039-1.43-1.299-1.43-.26s.13 3.247.91 5.456c.91 2.208 1.3-1.429 1.3-1.429zm4.942-.128c-1.17.26-1.3.13-1.69.26.13.52.26.779.39 1.169.39-.13 1.04-.13 1.69-.39.78-.13-.39-1.039-.39-1.039z" class="G"/><path d="M56.729 128.337l2.471.39-.39-1.689-.39-2.078h-.13c-.39 0-.78-.13-1.17-.26-.26.909-.52 2.598-.39 3.637z" fill="#546e7a"/><path d="M108.222 131.197c-.39 1.689.65 3.507 2.471 3.897l42.26 10.392c1.82.39 3.641-.649 4.031-2.338l10.402-42.347c.39-1.689-.65-3.507-2.471-3.897l-42.26-10.392c-1.82-.39-3.641.649-4.031 2.338l-10.402 42.347z" class="E"/><path d="M131.107 145.355v.52c-.13 3.377-.13 20.394 1.3 32.474.13.52.13.909.13 1.429v.26c.26 1.429.39 2.858.65 4.157.13.39.13.649.26 1.039.52 2.208 1.04 3.897 1.69 4.936.13.13.13.26.26.39.39.52.78.779 1.17.779h.52.39c.13 0 .26 0 .52-.13.13 0 .26-.13.39-.13.52-.26 1.04-.52 1.43-.909.13-.13.39-.26.52-.39l.65-.65c.26-.26.39-.52.65-.779.39-.52.78-1.169 1.17-1.689.13-.26.39-.649.52-1.039.78-1.299 1.43-2.858 2.21-4.546.13-.26.26-.52.26-.779.13-.13.13-.39.26-.52.13-.39.26-.649.39-1.039 4.161-10.911 7.152-25.98 7.672-34.423 0-.26-22.755-1.689-23.015 1.039z" class="C"/><path d="M132.668 179.913v.26l.65 4.157c.13.39.13.649.26 1.039.52 2.208 1.04 3.897 1.69 4.936.13.13.13.26.26.39.39.52.78.779 1.17.779h.52.39c.13 0 .26 0 .52-.13.13 0 .26-.13.39-.13.52-.26 1.04-.52 1.43-.909.13-.13.39-.26.52-.39l.65-.649c.26-.26.39-.52.65-.779l1.17-1.689c.13-.26.39-.649.52-1.039.78-1.299 1.43-2.858 2.211-4.546.13-.26.26-.52.26-.779.13-.13.13-.39.26-.52-1.56-.649-3.251-1.039-5.071-1.039-1.17-.13-2.211 0-3.381.13-1.95-.26-3.641.13-5.071.909z" class="H"/><path d="M131.758 179.516c.13.26.26.52.65.52h.26.13c1.43-.39 3.121-.649 4.811-.779 1.04-.13 2.08 0 3.121 0 1.69.13 3.381.39 4.941.779h.13c.52.13.91-.13 1.04-.649.13-.39-.13-.909-.52-1.039-1.69-.52-3.511-.779-5.331-.909-1.17-.13-2.341-.13-3.511 0-1.82.13-3.511.39-4.941.909h-.13c-.52.26-.78.779-.65 1.169z" class="I"/><g class="B D"><g transform="matrix(-1 0 0 1 139.949 146.01)"><path d="M8.192 33.514c-.13.26-.26.52-.65.52h-.26l-.65 4.157c-.13.39-.13.65-.26 1.039-.52 2.208-1.04 3.897-1.69 4.936-.13.13-.13.26-.26.39-.39.52-.78.779-1.17.779h-.52-.39c-.13 0-.26 0-.52-.13-.13 0-.26-.13-.39-.13-.52-.26-1.04-.52-1.43-.909.91-2.728 1.69-6.495 2.211-10.782 0-.26.13-.52.13-.779s0-.649.13-.909c1.04-9.223 1.17-20.654.13-30.916C5.201.52 6.892.39 8.712 0c.13 3.377.13 20.394-1.3 32.474h.13c.52.13.78.649.65 1.039z"/></g></g><path d="M100.81 167.443c0 .39-.13.779-.13 1.039v.52.13c0 .39-.13.779-.13 1.169s0 .649-.13 1.039c-.13 2.988-.13 5.586.39 7.534 0 .26.13.52.26.779s.13.52.26.909c.13.26.13.39.26.65s.26.39.39.52l.39.39.39.39c.13.13.26.26.39.26.13.13.26.13.39.26a.83.83 0 0 0 .78 0h.26c.39-.13.91-.39 1.43-.779.13-.13.26-.26.39-.26.39-.39.78-.649 1.3-1.169.26-.26.52-.649.91-1.039.65-.65 1.3-1.559 1.95-2.338.26-.39.65-.909 1.04-1.299.26-.39.65-.779.91-1.299 0-.13.13-.13.13-.26l.78-1.169c6.892-10.132 14.693-24.94 16.254-28.058.13-.26.13-.39.26-.52.78-1.689-8.062-6.235-14.043-9.223-3.121-1.559-5.591-2.598-5.591-2.598-3.641 8.054-8.062 22.862-9.492 34.423z" class="C"/><path d="M100.68 168.48v.52.13c0 .39-.13.779-.13 1.169s0 .649-.13 1.039c-.13 2.988-.13 5.586.39 7.534 0 .26.13.52.26.779s.13.52.26.909c.13.26.13.39.26.649s.26.39.39.52l.39.39.39.39c.13.13.26.26.39.26.13.13.26.13.39.26a.83.83 0 0 0 .78 0h.26c.39-.13.91-.39 1.43-.779.13-.13.26-.26.39-.26.39-.39.78-.649 1.3-1.169.26-.26.52-.649.91-1.039.65-.649 1.3-1.559 1.95-2.338.26-.39.65-.909 1.04-1.299.26-.39.65-.779.91-1.299 0-.13.13-.13.13-.26-1.56-1.948-3.641-3.637-6.371-4.806-.65-.26-1.17-.52-1.82-.649l-3.771-.649z" class="H"/><path d="M99.9 168.089c-.13.39.26.909.65.909h.13l3.381.909c.52.26 1.17.39 1.69.649 2.471 1.169 4.811 2.598 6.502 4.157l.13.13c.13.13.13.13.26.13a.63.63 0 0 0 .78-.26c.26-.39.26-.909 0-1.169l-.13-.13c-1.82-1.689-4.161-3.247-6.762-4.417l-1.95-.779c-1.17-.39-2.471-.779-3.641-.909-.52 0-.91.39-1.04.779z" class="I"/><path d="M109.522 134.829c-.26.909 1.82 2.468 4.811 4.027 4.941 2.728 12.353 5.715 15.084 6.625.39.13.65.26.78.26.26 0 .52.13.78.13.39.13.91.13 1.56.26.26 0 .52 0 .78.13l3.381.39h.39c6.762.649 15.994.909 16.514-.909 0-.26.13-.779.26-1.429.26-1.169.52-2.858.78-5.066.13-.52.13-1.039.26-1.689v-.13c0-.26.13-.52.13-.779 0-.52.13-1.039.13-1.689 0-.26 0-.519.13-.779v-.13c0-.52.13-1.039.13-1.559s.13-1.169.13-1.689c.13-2.208.26-4.676.13-7.014v-.39-.13-.13-.649-.52-.13c0-.52 0-1.039-.13-1.689a49.78 49.78 0 0 0-1.17-8.833c-.13-.649-.26-1.299-.52-1.948-1.43-5.456-4.031-10.002-8.322-12.34-.91-.52-1.951-.909-3.121-1.169-1.04-.26-2.081-.39-3.121-.39-5.071 0-9.492 2.988-13.523 7.274 0 0-.13.13-.13.26a22.81 22.81 0 0 0-3.121 3.897c-1.04 1.429-1.95 2.858-2.861 4.416-.26.39-.39.779-.65 1.039 0 .13-.13.13-.13.26 0 0-.13.13-.13.26s-.13.26-.13.26c-.26.39-.52.909-.78 1.429 0 0 0 .13-.13.13-.26.39-.39.779-.65 1.169-.91 1.689-1.69 3.377-2.341 4.936-.26.52-.52 1.039-.65 1.559-.26.52-.39.909-.65 1.429v.13c0 .13-.13.26-.13.39-.39.909-.65 1.689-1.04 2.598v.13c-.26.52-.39 1.039-.52 1.429-.78 1.948-1.3 3.507-1.56 4.676-.39.909-.52 1.429-.65 1.689z" class="C"/><path d="M132.147 138.472c2.34.52 18.854 2.338 23.145.649.39-.13.65-.649.39-1.039-.13-.39-.65-.65-1.04-.39-3.641 1.429-19.505 0-22.105-.649s-17.294-6.625-19.895-9.612c-.26-.39-.78-.39-1.17-.13s-.39.779-.13 1.169c2.991 3.377 18.464 9.483 20.805 10.002z" class="I"/><g class="C"><path d="M108.612 108.852l58.514 14.419c3.771-15.588-5.201-31.175-20.285-35.852-.52-.26-1.17-.39-1.69-.52-8.322-2.078-16.644-.39-23.275 3.767-1.56 1.039-3.121 2.208-4.551 3.507-.91.779-1.82 1.689-2.601 2.728-1.951 2.338-3.511 4.936-4.681 7.664-.52 1.299-1.04 2.728-1.43 4.287z"/><path d="M114.723 104.956c0 1.819.39 3.637 1.04 5.586 0 .13.13.26.13.39v.13c.13.26.13.39.26.65l1.3 2.728c.13.26.26.39.39.52.26.52.65 1.039.91 1.559l34.068 8.443c1.04-.26 1.951-.649 2.861-.909h.13c.13 0 .39-.13.52-.26 1.3-.52 2.471-1.169 3.381-1.819.13 0 .13-.13.26-.13s.13-.13.26-.13c1.56-1.169 2.861-2.468 3.771-3.767 1.82-2.858 2.341-6.105 1.69-9.483-.13-.39-.13-.909-.26-1.299-.52-2.208-1.56-4.417-2.861-6.495-3.771-5.975-10.012-11.301-16.254-13.25-.39-.13-.78-.26-1.3-.39-.39-.13-.91-.26-1.3-.26-6.632-1.169-14.173.26-20.025 3.767-.26.13-.39.26-.65.39-1.17.779-2.341 1.689-3.381 2.728-.65.649-1.3 1.429-1.95 2.208-.13.13-.26.26-.26.39-1.82 2.338-2.861 5.326-2.731 8.703z"/><path d="M88.977 104.7l.78 1.429 2.601 4.806.78 1.429.78-.39c1.82-.779 4.291-1.429 5.851-2.078 3.251-1.169 8.972-.779 12.093-.13.65.13 1.3.26 1.82.52.78.26 1.43.52 2.081.779 1.17.52 2.211 1.299 3.121 1.948.91.779 1.56 1.559 1.82 2.338.52 1.169 1.04 1.689 1.82 1.948.39.13.78.26 1.17.52 1.04.39 2.471 1.039 4.291 2.728l1.17-1.429 3.381-4.287 11.833-15.328c-1.56-1.429-3.251-2.598-5.071-3.637-4.681-2.858-10.142-4.546-15.734-5.066-.26 0-.39 0-.65-.13h-1.3c-1.82-.13-3.641 0-5.591.26-2.08.13-4.161.52-6.241 1.039-.13 0-.26.13-.39.13-3.511.909-5.721 1.429-12.483 6.105-2.341 1.299-4.161 3.507-6.371 5.196-.26.39-.65.779-.91 1.039-.13 0-.39.13-.65.26z"/><path d="M81.175 116.391c.13.26.26.39.39.52 3.121 4.027 2.211-5.456 5.981-4.287 1.43 1.299-2.991 5.326-.65 5.845h.39c1.04.13 3.121-2.468 5.331-5.716.13-.26.26-.52.39-.649l-.78-1.429-2.601-4.806-.78-1.429c-.26.13-.52.13-.78.26-5.981 1.948-9.882 7.274-6.892 11.691z"/></g><path d="M88.197 104.828c0 .13 0 .13.13.26l.65 1.169 2.861 5.196.65 1.169c.13.13.13.26.26.26s.13.13.26.13c.26 0 .39 0 .65-.13.39-.26.52-.649.39-1.039l-.78-1.559-2.471-4.546-.78-1.429c-.26-.39-.78-.52-1.17-.39-.52.13-.78.52-.65.909z" class="I"/><path d="M109.522 91.969l.91 2.858.91 3.118 5.981-1.948.39-.13-.13-.26-.52-1.689-.91-2.988c-2.08.13-4.161.52-6.241 1.039h-.39z" fill="#d84315"/><g class="C"><path d="M139.689 98.329l1.04 5.975 2.341 13.12 1.04 5.326.26 1.819c.78-.26 1.43-.39 2.081-.39 1.04-.13 1.82-.13 2.471-.13h.65c1.43.13 2.34.39 3.771-.779.52-.39 1.17-.779 2.081-1.039.13 0 .13 0 .26-.13 1.17-.26 2.471-.52 4.031-.39h.26c.13 0 .39 0 .52.13.65 0 1.3.13 1.951.26.39.13.78.13 1.3.26 3.121.909 8.322 3.118 10.663 5.715l.13.13c1.17 1.299 2.991 2.988 4.291 4.546.13.26.39.39.52.649l1.69-1.169 5.331-3.637c-.26-.13-.39-.39-.52-.65-.26-.39-.26-.909-.39-1.299-1.17-2.598-1.82-5.326-3.251-7.534-3.771-7.404-5.461-8.833-8.192-11.301-.13-.13-.26-.13-.39-.26-1.56-1.429-3.251-2.728-4.941-3.767-1.56-1.039-3.121-1.948-4.811-2.728-.39-.26-.91-.39-1.3-.649-5.331-2.338-11.183-3.377-16.904-2.988a13.9 13.9 0 0 0-3.251.39c-.91.13-1.821.26-2.731.52z"/><path d="M179.218 133.406c0 .26 0 .52.13.779.39 3.897 1.04 7.144 2.081 7.534.13 0 .13 0 .26.13 2.08.65 1.04-2.988 1.56-4.676.13-.39.39-.779.65-.779 4.161.779-1.69 9.223 3.771 6.365 0 0 .13 0 .13-.13 4.681-2.468 3.771-8.963-.78-13.509-.26-.13-.39-.39-.65-.52l-5.461 3.767-1.69 1.039z"/></g><path d="M178.568 133.92c.13.13.26.26.52.39h.26c.13 0 .26 0 .39-.13l1.43-.909 5.721-3.897.13-.13c.26-.26.26-.649 0-1.039s-.78-.52-1.17-.26l-5.331 3.637-1.82 1.169c-.26.26-.39.779-.13 1.169z" class="I"/><path d="M164.915 107.427l4.681 4.676 4.421-4.287c-.13-.13-.26-.13-.39-.26-1.56-1.429-3.251-2.728-4.941-3.767l-3.771 3.637zm-36.833 6.21a5.07 5.07 0 1 1 6.136-3.705 5.07 5.07 0 0 1-6.136 3.705z" class="J"/><path d="M135.398 112.362l-9.752-9.612 4.031 13.12 1.17-4.546z" fill="#d84315"/><path d="M145.125 107.463l9.72 2.399-1.214 4.919-9.72-2.399z" class="G"/><g class="B"><g class="D"><g transform="matrix(-1 0 0 1 123.045 104.56)"><path d="M31.337 6.897l-.65-.649c-.13-.13-.39-.39-.65-.52C27.827 3.779 22.235-.248 13.003.012c-1.43 0-2.991.13-4.681.39A34.99 34.99 0 0 0 .39 2.61C.13 4.429 0 6.247 0 7.806c0 1.689.13 3.377.39 4.936v.13c.39 2.078.78 4.027 1.43 5.975.13.52.39 1.039.65 1.559s.39 1.039.65 1.559c.39 1.039.91 2.078 1.43 3.118.13.39.39.779.52 1.039.26.519.52 1.039.65 1.559.65 1.169 1.17 2.338 1.69 3.637.39.779.65 1.559 1.04 2.468.13.13.13.39.26.649 2.08 5.586 6.892 18.316 9.882 29.487l.26.909c.13.26.13.52.26.779 1.17 4.416 1.95 8.573 2.081 11.821.13-.13.26-.39.39-.52.13-.26.26-.39.26-.65.13-.26.26-.52.26-.909.13-.26.13-.52.26-.779.52-1.948.52-4.676.39-7.534 0-.39 0-.65-.13-1.039 0-.39 0-.779-.13-1.169v-.13h.13c.52-.13.78-.52.65-.909s-.52-.779-.91-.65c-1.43-11.561-5.721-26.369-9.102-34.033l-1.56-4.676.26-.26c.26-.39.26-.909-.13-1.169a.61.61 0 0 0-.78-.13c-.26-.779-.65-1.689-1.04-2.598 0-.13-.13-.26-.13-.39v-.13c-.26-.52-.39-.909-.65-1.429s-.39-1.039-.65-1.559c-.78-1.559-1.56-3.247-2.341-4.936-.26-.39-.39-.779-.65-1.169.13-.26.26-.39.39-.52.52-.909.91-1.819 1.3-2.728.13-.26.13-.39.26-.649v-.13c.65-.26 1.43-.649 2.08-.779l1.82-.52c3.121-.649 8.842-1.039 12.093.13 1.56.649 4.031 1.299 5.851 2.078-.13.39 0 .909.39 1.039.13.13.39.13.65.13.13 0 .13 0 .26-.13 2.08 3.247 4.291 5.845 5.331 5.716h.39c-2.081-2.988-3.641-5.716-5.071-7.404z"/></g></g><path d="M144.934 132.403a2.47 2.47 0 1 1 2.989-1.806 2.47 2.47 0 0 1-2.989 1.805zm2.099-8.16a2.47 2.47 0 1 1 2.989-1.806 2.47 2.47 0 0 1-2.989 1.805zm-23.782 2.729a2.47 2.47 0 1 1 2.99-1.805 2.47 2.47 0 0 1-2.99 1.805z"/><g class="D"><g transform="matrix(-1 0 0 1 155.293 131.43)"><path d="M11.833 2.884c-1.04 1.299-2.471 2.208-4.421 2.598-1.82.39-4.161.649-7.022.649L0 2.754c5.851-.13 8.062-.65 9.232-2.078.52-.779 1.56-.909 2.341-.26.65.649.78 1.689.26 2.468z"/></g></g></g><path d="M148.791 133.662c1.95.52 4.551.649 7.802.649.91 0 1.69-.779 1.69-1.689s-.78-1.689-1.69-1.689c-6.241-.13-8.582-.649-9.752-2.078-.52-.779-1.56-.909-2.34-.26-.78.52-.91 1.559-.26 2.338 1.17 1.429 2.471 2.208 4.551 2.728z" class="G"/><g class="B D"><g transform="matrix(-1 0 0 1 124.628 123.92)"><path d="M12.376 3.247C9.905 4.546 7.825 5.326 6.134 5.716c-1.95.52-3.641.39-5.201-.26-.78-.39-1.17-1.429-.78-2.208.39-.909 1.3-1.169 2.211-.909 1.69.779 3.771.13 8.842-2.338l1.17 3.247z"/></g></g><path d="M119.275 126.391c1.95.52 3.641.39 5.201-.26.78-.39 1.17-1.299.78-2.208-.39-.779-1.3-1.169-2.211-.909-1.69.779-4.031.13-9.622-2.728-.78-.39-1.82-.13-2.211.779-.39.779-.13 1.819.78 2.208 2.991 1.559 5.331 2.598 7.282 3.118z" class="G"/><g class="B"><g class="D"><g transform="matrix(-1 0 0 1 158.153 120.81)"><path d="M46.811.39c-.13-.13-.13-.26-.26-.39a2.02 2.02 0 0 1-.78 1.039l-1.69.779c-2.211 1.039-4.031 1.819-5.591 2.208-.26.13-.52.13-.78.13s-.52.13-.78.13c-1.3.13-2.471 0-3.511-.52-.13-.13-.39-.26-.52-.39a1.11 1.11 0 0 0 0 .909c0 .13.13.26.13.39a.28.28 0 0 0 .26.26c.13.26.39.39.65.52s.39.13.65.26h.26c.13.13.26.13.52.13s.52.13.65.13h.65.39.52.26.26.39c.26 0 .39-.13.65-.13.13 0 .39-.13.52-.13s.39-.13.52-.13.39-.13.65-.26.39-.13.65-.26c1.04-.39 2.211-.909 3.511-1.559.52-.26.91-.52 1.43-.649.52-.649.91-1.689.39-2.468zM13.783 8.054c0 .13-.13.39-.26.52-.78.909-1.69 1.689-2.861 2.078-.52.26-1.04.39-1.56.52-1.69.39-3.771.649-6.241.649H1.3c-.52 0-.91-.13-1.17-.52 0 .13-.13.26-.13.52 0 .909.78 1.689 1.69 1.689h1.3l3.251-.13c.52 0 .91-.13 1.43-.13.26 0 .52-.13.65-.13.26 0 .39 0 .65-.13.26 0 .39-.13.52-.13s.26-.13.52-.13c.13 0 .26-.13.39-.13s.13 0 .26-.13c.13 0 .39-.13.52-.13l.78-.39c.13-.13.39-.26.52-.26.26-.13.39-.26.52-.39s.39-.26.52-.52l.52-.52c.13-.26.26-.39.39-.649v-.39c-.26-.52-.39-.909-.65-1.169z"/></g><g transform="matrix(-1 0 0 1 123.695 90.41)"><path d="M42.52 25.98c-.13.26-.26.39-.39.52.26-1.819.13-3.767-1.43-6.365-1.95-3.118-4.031-4.027-5.851-4.417-.26-.13-.65-.13-.91-.26-.13 0-.39-.13-.78-.39-2.861-1.559-11.573-9.093-19.895-10.652-.26 0-.65-.13-1.04-.13-2.21-.26-4.161-.52-5.721-.779-.91-.13-1.82-.26-2.471-.39C1.17 2.468 0 1.819 0 .52V0c.26.13.39.26.65.39h1.3c1.82-.13 3.641 0 5.591.26 2.08.13 4.161.52 6.241 1.039.13 0 .26.13.39.13 3.511.909 5.721 1.429 12.483 6.105 2.34 1.299 4.161 3.507 6.371 5.196.26.39.65.779.91 1.039.26-.39.78-.52 1.17-.39s.52.52.39.909c6.111 1.559 10.012 6.884 7.022 11.301z"/></g><g transform="matrix(-1 0 0 1 187.963 135.09)"><path d="M4.844 2.083c-.13-.39-.39-.779-.65-.779-4.161.779 1.69 9.223-3.771 6.365-.91-5.456-.39-7.794 1.95-7.664 1.95 0 2.471 1.169 2.471 2.078z"/></g><g transform="matrix(-1 0 0 1 181.819 116.52)"><path d="M26.136 5.586c0 .26.13.39.13.52 0 .26 0 .52-.13.779v.13.13.13.13h-.13c-.13 0-.39-.13-.52-.26-1.3-.52-2.471-1.169-3.381-1.819-.13 0-.13-.13-.26-.13s-.39 0-.52.13c-.65 0-1.3.13-1.95.26-.39.13-.78.13-1.3.26-3.121.909-8.322 3.118-10.662 5.716l-.13.13c-1.17 1.299-2.991 2.988-4.291 4.546.39.26.39.779.13 1.169-.13.13-.26.26-.52.39h-.26C1.95 21.693 1.3 24.94.26 25.33c-.13 0-.13 0-.26.13.13-1.948-.13-5.975.39-8.703 0-.26.13-.649.26-.909s.13-.52.39-.779c1.3-2.728 5.851-8.703 12.743-12.21 1.17-.649 2.341-1.169 3.641-1.559C20.155.39 21.975.13 23.666 0c.78 1.429 1.3 2.338 1.82 4.027.39.39.52.909.65 1.559z"/></g><g transform="matrix(-1 0 0 1 119.274 112.62)"><path d="M1.82 1.689c-.13.26-.26.39-.39.52.26.39.39.779.65 1.169h-.13l-.52-1.169s0-.13-.13-.13c0-.13-.13-.26-.26-.52S.65.909.52.649C.52.52.39.39.39.39L.26.26C.13.13.13 0 0 0l.26.26c.26.26.65.779 1.17 1.169.26.13.26.26.39.26z"/></g><g transform="matrix(-1 0 0 1 118.234 110.8)"><path d="M2.341.26c-.13.26-.13.39-.26.649-.13-.13-.39-.13-.52-.26C1.3.52.91.39.65.26S0 0 0 0c.13 0 .65.13 1.3.13h.39c.13 0 .39 0 .65.13-.13 0 0 0 0 0z"/></g><g transform="matrix(-1 0 0 1 156.333 122.23)"><path d="M1.04 0C.91.26.91.649.65 1.169c0 .13-.13.26-.13.39v.13c-.13 0-.39-.13-.52-.26 0 0 0-.13.13-.13.26-.26.39-.649.65-.779 0 0 0-.13.13-.13C.78.13.91 0 1.04 0z"/></g><g transform="matrix(-1 0 0 1 160.624 120.29)"><path d="M2.731 0S1.95.39 1.3 1.039l-.13.13-.26.26s0 .13-.13.13-.13-.13-.26-.13-.39 0-.52.13c0-.13.13-.13.13-.26 0 0 0 0 .13-.13s.39-.26.65-.39C1.82.26 2.731 0 2.731 0z"/></g></g></g><path d="M142.29 98.204c8.712 2.078 14.954 2.468 19.895 1.169.91-.26 1.43-1.169 1.17-2.078s-1.17-1.429-2.08-1.169c-4.291 1.169-10.142.779-18.204-1.169s-13.393-4.417-16.774-7.404c-.65-.649-1.69-.649-2.341.13-.65.649-.65 1.689.13 2.338 3.641 3.377 9.492 5.975 18.204 8.184z" class="H"/><path d="M169.986 76.509c-.78 3.248.78 6.365 3.381 7.015 2.731.649 5.461-1.429 6.371-4.676l1.95-7.794c.78-3.247-.78-6.365-3.381-7.014-2.731-.649-5.461 1.429-6.371 4.676l-1.95 7.794zm-51.882-12.86c-.78 3.247.78 6.365 3.381 7.014 2.731.65 5.461-1.429 6.371-4.676l1.95-7.794c.78-3.247-.78-6.365-3.381-7.014-2.731-.649-5.461 1.429-6.372 4.676l-1.95 7.794z" class="E"/><path d="M121.875 62.218c-5.201 21.043-.26 29.227 20.805 34.423s29.257.26 34.458-20.784c4.811-19.485-4.811-33.903-20.025-37.54-15.344-3.897-30.427 4.417-35.238 23.901z" class="C"/><g class="B D"><g transform="matrix(-1 0 0 1 163.615 37.41)"><path d="M14.954 0c8.972 2.988 16.514 10.911 19.635 23.512 5.201 21.043.26 29.227-20.805 34.423C8.452 59.233 3.901 59.883 0 59.883c5.071 2.078 11.833 1.689 20.935-.52C42 54.167 46.941 46.114 41.74 24.94 37.839 8.963 27.046.52 14.954 0z"/></g></g><path d="M143.46 93.265c16.124 3.897 26.266-2.208 30.297-18.316 3.251-12.99-3.381-21.563-19.375-25.46-16.124-3.897-25.876.649-29.127 13.639-4.161 16.757 1.43 26.11 18.204 30.136z" class="H"/><path d="M143.85 91.71c15.214 3.767 24.446-1.819 28.217-17.017 2.991-12.08-2.991-19.744-18.204-23.511s-24.056.26-27.046 12.34c-4.031 16.107.91 24.161 17.034 28.188z" fill="#000014"/><path d="M162.054 80.667c-.65 2.598-1.56 4.936-2.731 7.274 3.511-3.377 6.241-7.794 7.542-12.99 1.82-7.144.52-14.289-2.991-20.134-2.08-1.169-4.551-2.208-7.412-3.118 5.851 8.184 8.192 18.575 5.591 28.967z" fill="#eee"/><g class="E"><path d="M67.783 48.713h.91l.78-.909-7.802-7.794-.78.909v.779z"/><path d="M61.748 41.744l1.746 1.746-3.032 3.033-1.746-1.746zm4.256 4.36l1.747 1.745-3.031 3.034-1.747-1.745z"/></g><g class="C"><path d="M72.203 51.31h.78l36.539-36.501v-.909L95.609 0h-.78L58.16 36.501v.909z"/><path d="M102.057 6.774l.827.827-36.943 36.943-.827-.827z"/><path d="M106.271 17.668l.52-.52L92.358 2.86l-.39.39zm-2.99 2.99l.39-.39L89.368 5.85l-.52.52zM86.347 8.895l14.314 14.358-.46.459L85.887 9.354zm-3.074 3.153l14.336 14.336-.459.459-14.336-14.336zm10.905 17.7l.39-.39L80.265 14.94l-.52.52zm-16.931-11.7l14.336 14.336-.459.459-14.336-14.336zm10.82 17.8l.39-.39L74.154 21.04l-.52.52zm-3.121 3.12l.52-.52L71.033 24.16l-.39.39zM67.976 27.18l14.338 14.334-.459.46L67.517 27.64zm-2.988 3.058l14.377 14.296-.458.461L64.53 30.699zm10.856 17.82l.39-.39L61.931 33.25l-.39.39z"/></g><g fill="#0d47a1"><path d="M79.992 15.584l6.522 6.528-2.574 2.572-6.522-6.528z"/><use xlink:href="#B"/><use xlink:href="#C"/><use xlink:href="#D"/><use xlink:href="#B" x="4.744" y="-19.491"/><use xlink:href="#C" x="7.4" y="7.41"/><path d="M67.841 27.843l6.522 6.528-2.575 2.572-6.522-6.528zm7.743 19.962l-2.861 2.858h-.26l-6.372-6.365 2.991-2.988zM58.81 36.758l2.86-2.858 6.502 6.495-2.991 3.118-6.371-6.365z"/><use xlink:href="#D" x="-24.289" y="24.35"/><path d="M73.964 21.751l6.529 6.52-2.571 2.575-6.529-6.52z"/><use xlink:href="#D" x="-18.261" y="18.17"/></g><g class="J"><path d="M89.176 6.53l6.518 6.531-2.576 2.571L86.601 9.1z"/><use xlink:href="#C" x="4.435" y="10.45"/><use xlink:href="#B" x="-4.342" y="-10.351"/><path d="M95.349.65l6.372 6.365-2.601 2.598-6.502-6.625L95.088.65z"/><use xlink:href="#C" x="10.553" y="4.36"/><path d="M109.002 14.155v.39l-2.471 2.468-6.502-6.625 2.601-2.598zM72.096 38.304l6.522 6.528-2.574 2.572-6.522-6.528z"/><use xlink:href="#D" x="-34.839" y="19.98"/><use xlink:href="#C" x="-9.084" y="9.13"/><path d="M70.814 24.799l6.527 6.522-2.572 2.574-6.527-6.522z"/><use xlink:href="#B" x="-9.18" y="9.23"/><use xlink:href="#D" x="-15.203" y="15.21"/></g><g fill="#eee" class="D"><g transform="matrix(-1 0 0 1 109.522 0)"><path d="M30.427 15.718L14.694 0h-.78L0 13.899v.909L23.536 38.32z"/></g></g><g class="E"><path d="M48.798 67.675v.909l-.91.909-7.802-7.924.78-.779h.91z"/><path d="M44.823 58.594l1.746 1.746-3.033 3.033-1.746-1.746zm4.352 4.269l1.746 1.746-3.033 3.032-1.746-1.746z"/></g><g class="C"><path d="M51.398 72.089v.909L14.859 109.5h-.91L.036 95.601v-.909L36.575 58.19h.91z"/><path d="M43.786 64.934l.827.827L7.67 102.703l-.827-.827z"/><path d="M17.59 106.259l-.39.39L2.896 92.23l.39-.39zM6.364 88.795l14.317 14.358-.46.459L5.904 89.254zm2.966-3.038l14.319 14.356-.46.459L8.87 86.216zm17.493 11.272l-.52.52L12 83.13l.39-.39zM15.429 79.678l14.359 14.316-.459.46L14.97 80.138zm17.375 11.251l-.39.52L18.111 77.03l.39-.39zm3.121-2.99l-.39.39L21.101 74.04l.39-.39zm2.99-2.99l-.39.39L24.222 70.92l.39-.39zm3.121-3.11l-.52.39L27.213 67.94l.39-.39zm2.991-2.99l-.39.39L30.204 64.95l.52-.52zm3.121-3.12l-.52.52L33.325 61.83l.39-.39z"/></g><g fill="#0d47a1"><use xlink:href="#B" x="-69.101" y="54.319"/><use xlink:href="#D" x="-73.845" y="73.8"/><use xlink:href="#D" x="-87.361" y="72.48"/><path d="M13.456 96.894l6.522 6.528-2.574 2.572-6.522-6.528z"/><use xlink:href="#D" x="-93.479" y="78.57"/><use xlink:href="#B" x="-67.818" y="67.809"/><use xlink:href="#D" x="-69.005" y="54.22"/><path d="M47.887 75.602l2.861-2.858v-.39l-6.371-6.365-2.991 2.988zM36.834 58.71l-2.861 2.858 6.502 6.625 3.121-3.118-6.371-6.365z"/><use xlink:href="#B" x="-49.463" y="49.55"/><path d="M24.397 71.209l6.529 6.522-2.572 2.575-6.529-6.522z"/><use xlink:href="#C" x="-54.206" y="69.04"/></g><g class="J"><use xlink:href="#D" x="-90.329" y="75.53"/><use xlink:href="#D" x="-76.902" y="76.76"/><use xlink:href="#D" x="-84.303" y="69.35"/><path d="M.556 95.348l6.371 6.235 2.601-2.598-6.502-6.495-2.471 2.468z"/><use xlink:href="#C" x="-69.41" y="84.26"/><path d="M14.209 108.853h.39l2.341-2.468-6.502-6.495-2.601 2.598z"/><use xlink:href="#C" x="-45.12" y="59.91"/><path d="M33.487 62.073l6.522 6.528-2.575 2.572-6.522-6.528z"/><use xlink:href="#C" x="-64.758" y="64.67"/><path d="M27.38 68.159l6.527 6.522-2.572 2.574-6.527-6.522z"/><use xlink:href="#D" x="-64.758" y="64.67"/><use xlink:href="#C" x="-57.265" y="71.99"/></g><g class="B D"><g transform="matrix(-1 0 0 1 51.398 58.19)"><path d="M26.656 11.821L14.824 0h-.91L0 13.899v.909l19.635 19.485z"/></g></g><g fill="#f9a825"><path d="M29.683 29.612c.39-.39 11.833 8.833 11.833 8.833l-2.991 2.988s-9.232-11.431-8.842-11.821z"/><path d="M29.052 31.093a1.43 1.43 0 0 1 2.021-2.023 1.43 1.43 0 0 1-2.021 2.023z"/></g><g class="B F"><g transform="matrix(-1 0 0 1 39.826 29.23)"><path d="M0 10.782l1.43 1.429S6.892 5.456 9.232 2.078c.52.26 1.17.13 1.56-.26A1.39 1.39 0 0 0 10.923 0L0 10.782z"/></g></g><g class="C"><path d="M36.055 43.904c.26.26 2.211-1.299 4.421-3.507s3.771-4.157 3.511-4.417-2.341 1.169-4.551 3.377-3.641 4.287-3.381 4.546z"/><path d="M43.907 35.957l2.481 2.482-7.904 7.904-2.481-2.482z"/></g><g class="B F"><g transform="matrix(-1 0 0 1 42.296 39.36)"><path d="M0 3.118l3.771 3.767 2.471-2.468c.26-.26-1.17-2.338-3.251-4.417L0 3.118z"/></g></g><g fill="#c62828"><path d="M48.414 36.466l3.952 3.952-11.855 11.855-3.952-3.952z"/><path d="M36.512 48.319c-.558-.558 1.622-3.644 4.871-6.892s6.334-5.429 6.892-4.871-1.622 3.644-4.871 6.892-6.334 5.429-6.892 4.871z"/></g><g class="B F"><g transform="matrix(-1 0 0 1 46.327 41.7)"><path d="M0 4.806l5.851 5.845 3.901-3.897c.52-.52-1.56-3.507-4.811-6.755L0 4.806z"/></g></g><g class="C"><path d="M37.049 52.713c-1.066-1.066 1.608-5.468 5.973-9.833s8.767-7.039 9.833-5.973-1.609 5.468-5.973 9.833-8.767 7.039-9.833 5.973z"/><path d="M52.702 36.963L72.46 56.721 56.653 72.527 36.896 52.769z"/></g><path d="M56.78 72.473c-1.066-1.066 1.609-5.468 5.973-9.833s8.767-7.039 9.833-5.973-1.609 5.468-5.973 9.833-8.767 7.039-9.833 5.973z" class="E"/><g class="B F"><g transform="matrix(-1 0 0 1 66.482 43)"><path d="M0 23.641c4.291 4.287 8.712 6.885 9.752 5.845L29.517 9.742c1.04-1.039-1.56-5.456-5.851-9.742L0 23.641z"/></g></g><g fill="#c62828"><path d="M59.723 69.527c-.406-.406 1.487-2.957 4.227-5.698s5.292-4.633 5.698-4.227-1.487 2.957-4.227 5.698-5.292 4.633-5.698 4.227z"/><path d="M69.602 59.697l3.952 3.952-9.833 9.833-3.952-3.952z"/></g><g class="B F"><g transform="matrix(-1 0 0 1 68.562 63.91)"><path d="M0 4.676l4.811 4.806 3.901-3.897c.39-.39-1.43-2.858-4.031-5.586L0 4.676z"/></g></g><path d="M60.752 74.461c-.812-.812 1.615-4.556 5.422-8.363s7.551-6.234 8.363-5.422-1.615 4.556-5.422 8.363-7.551 6.234-8.363 5.422z" class="C"/><path d="M74.023 73.91c4.811-4.806 6.371-8.443 5.981-8.833s-4.031 1.169-8.842 5.975-6.371 8.443-5.981 8.833 4.031-1.169 8.842-5.975z" fill="#37474f"/><g class="B"><path d="M72.594 69.496l4.941-4.936.91 1.948-3.901 4.027zm-7.932 7.92l4.941-4.936 1.04 1.948-4.031 3.897z"/><path d="M69.473 74.306l4.941-4.936 1.04 1.948-4.031 4.027zm-1.561-1.56l4.941-4.936.91 1.948-3.901 3.897z"/></g><path d="M60.76 74.429L74.544 60.66l5.981 3.897-.52.52c-.39-.39-4.031 1.169-8.842 5.975s-6.371 8.443-5.981 8.833l-.52.52-3.901-5.975z" class="C"/><g class="H"><path d="M69.908 73.643c-.406-.406.129-1.599 1.195-2.665s2.259-1.6 2.665-1.194-.129 1.599-1.195 2.665-2.259 1.6-2.665 1.194z"/><use xlink:href="#E"/><use xlink:href="#E" x="7.857" y="-7.8"/><path d="M71.427 75.276c-.355-.355.221-1.507 1.286-2.573s2.218-1.642 2.573-1.287-.221 1.507-1.286 2.573-2.218 1.642-2.573 1.287z"/></g><g fill="#ff8f00"><use xlink:href="#F"/><use xlink:href="#F" x="-3.25" y="4.68"/><path d="M76.754 68.849c.65-.649 1.04-1.299 1.17-1.559-.39.13-.91.52-1.56 1.169s-1.04 1.299-1.17 1.559c.26-.26.91-.52 1.56-1.169zm-3.25 4.67c.52-.52.78-.909 1.04-1.169-.39.26-.78.52-1.17 1.039-.52.52-.78.909-1.04 1.169.26-.26.78-.65 1.17-1.039z"/></g><path d="M70.643 70.534c4.421-4.417 8.842-7.014 9.882-5.975s-1.56 5.456-5.981 9.872-8.842 7.014-9.882 5.975c-1.04-1.169 1.56-5.586 5.981-9.872zm3.381 3.377c4.811-4.806 6.371-8.443 5.981-8.833s-4.031 1.169-8.842 5.975-6.371 8.443-5.981 8.833 4.031-1.169 8.842-5.975z" class="E"/><g class="B F"><g transform="matrix(-1 0 0 1 74.414 66.12)"><path d="M0 8.443c4.291 4.287 8.712 6.885 9.752 5.845l3.901-5.975c.78-.779-1.56-4.546-5.331-8.313L0 8.443z"/></g></g><defs ><path id="B" d="M87.397 22.975l6.523 6.527-2.574 2.572-6.523-6.527z"/><path id="C" d="M86.014 9.588l6.527 6.523-2.572 2.574-6.527-6.523z"/><path id="D" d="M99.536 10.906l6.525 6.525-2.573 2.573-6.525-6.525z"/><path id="E" d="M66.674 78.294c-.406-.406.129-1.599 1.195-2.665s2.259-1.601 2.665-1.195-.129 1.599-1.195 2.665-2.259 1.601-2.665 1.195z"/><path id="F" d="M72.073 71.959c.65-.649 1.04-1.299 1.17-1.559-.39.13-.91.52-1.56 1.169s-1.04 1.299-1.17 1.559c.26-.13.91-.52 1.56-1.169z"/></defs></svg>