<svg xmlns="http://www.w3.org/2000/svg" xmlns:xlink="http://www.w3.org/1999/xlink" width="98" height="65" xmlns:v="https://vecta.io/nano"><defs><path id="A" d="M0 0h139v23H0z"/><linearGradient x1="-21.3274736%" y1="-6.73300242%" x2="77.1999233%" y2="-99.3560042%" id="B"><stop stop-color="#fff" offset="0%"/><stop stop-color="#c6c6c6" offset="12.01%"/><stop stop-color="#929292" offset="24.46%"/><stop stop-color="#656565" offset="37.13%"/><stop stop-color="#414141" offset="49.78%"/><stop stop-color="#242424" offset="62.4%"/><stop stop-color="#101010" offset="74.98%"/><stop stop-color="#040404" offset="87.52%"/><stop stop-color="#fff" offset="100%"/></linearGradient></defs><g transform="matrix(.866 -.5 .5 .866 -6 53.5)" fill-rule="evenodd"><mask id="C" fill="#fff"><use xlink:href="#A"/></mask><g fill-rule="nonzero"><path fill="url(#B)" opacity=".15" mask="url(#C)" transform="matrix(.906308 .422618 -.422618 .906308 12.346618 -30.62629)" d="M68.589 14.512l55.16-22.164-77.667 33.879L111.861.739l-78.935 33.72 67.998-26.121L13.43 45.066l-4.121-9.182L93.633-7.018 29.756 27.177l75.131-37.52-56.11 29.287 71.327-34.353L70.967 9.604 141.184-20z"/><path d="M6.702 16.148a5.07 5.07 0 0 0 5.071-5.067 5.07 5.07 0 1 0-10.142 0 5.07 5.07 0 0 0 5.071 5.067z" fill="#cfd8dc" mask="url(#C)"/></g></g></svg>