<svg xmlns="http://www.w3.org/2000/svg" xmlns:xlink="http://www.w3.org/1999/xlink" width="241" height="134" xmlns:v="https://vecta.io/nano"><style><![CDATA[.B{opacity:.5}.C{fill:#e3fbed}.D{fill:#2cb0b5}.E{fill:#217588}.F{opacity:.2}.G{fill:#74f0c8}.H{fill:#c6eb8f}.I{fill-rule:nonzero}.J{fill:#ffcc9e}]]></style><defs><linearGradient x1="99.8986862%" y1="7.33517898e-06%" x2="99.8986862%" y2="97.6372317%" id="A"><stop stop-color="#ffedd9" offset="0%"/><stop stop-color="#dbad77" offset="100%"/></linearGradient><path id="B" d="M0 0h216v142H0z"/><linearGradient x1="100.000259%" y1="-9.50626255e-07%" x2="100.000259%" y2="100.000288%" id="C"><stop stop-color="#eb5223" offset="0%"/></linearGradient><linearGradient x1="99.9999575%" y1="1.89445206e-07%" x2="99.9999575%" y2="99.9997337%" id="D"><stop stop-color="#ff7438" offset="0%"/><stop stop-color="#ff8c38" offset="100%"/></linearGradient><radialGradient cx="46.5786257%" cy="56.963519%" fx="46.5786257%" fy="56.963519%" r="0.816327052%" gradientTransform="translate(0.465786,0.569635),scale(0.630214,1.000000),translate(-0.465786,-0.569635)" id="E"><stop stop-color="#ff7438" offset="56.99%"/><stop stop-color="#b4370a" offset="100%"/></radialGradient><linearGradient x1="22.7330467%" y1="-10.5935565%" x2="-19.5625954%" y2="80.3141381%" id="F"><stop stop-color="#298992" offset="20.97%"/><stop stop-color="#308f99" offset="35.58%"/><stop stop-color="#44a1ac" offset="57.09%"/><stop stop-color="#64bfcb" offset="82.72%"/><stop stop-color="#7ed6e4" offset="100%"/></linearGradient><linearGradient x1="22.9734497%" y1="-7.05688851%" x2="-19.3335874%" y2="79.0226818%" id="G"><stop stop-color="#298992" offset="20.97%"/><stop stop-color="#308f99" offset="35.58%"/><stop stop-color="#44a1ac" offset="57.09%"/><stop stop-color="#64bfcb" offset="82.72%"/><stop stop-color="#7ed6e4" offset="100%"/></linearGradient><linearGradient x1="9.65168231%" y1="-0.314926296%" x2="109.986333%" y2="6.46604903%" id="H"><stop stop-color="#298992" offset="20.97%"/><stop stop-color="#308f99" offset="35.58%"/><stop stop-color="#44a1ac" offset="57.09%"/><stop stop-color="#64bfcb" offset="82.72%"/><stop stop-color="#7ed6e4" offset="100%"/></linearGradient><linearGradient x1="1.69972463%" y1="1.04780451%" x2="101.1584%" y2="1.96560864%" id="I"><stop stop-color="#298992" offset="20.97%"/><stop stop-color="#308f99" offset="35.58%"/><stop stop-color="#44a1ac" offset="57.09%"/><stop stop-color="#64bfcb" offset="82.72%"/><stop stop-color="#7ed6e4" offset="100%"/></linearGradient><linearGradient x1="-1.35786075%" y1="4.6583359%" x2="94.9964441%" y2="-1.38245375%" id="J"><stop stop-color="#298992" offset="20.97%"/><stop stop-color="#308f99" offset="35.58%"/><stop stop-color="#44a1ac" offset="57.09%"/><stop stop-color="#64bfcb" offset="82.72%"/><stop stop-color="#7ed6e4" offset="100%"/></linearGradient><linearGradient x1="-1.35811915%" y1="4.65729512%" x2="94.9973092%" y2="-1.38221016%" id="K"><stop stop-color="#298992" offset="20.97%"/><stop stop-color="#308f99" offset="35.58%"/><stop stop-color="#44a1ac" offset="57.09%"/><stop stop-color="#64bfcb" offset="82.72%"/><stop stop-color="#7ed6e4" offset="100%"/></linearGradient><linearGradient x1="100%" y1="-6.75775011e-15%" x2="100%" y2="110.362731%" id="L"><stop stop-color="#ffedd9" offset="0%"/><stop stop-color="#dbad77" offset="100%"/></linearGradient><path id="M" d="M7.377 1.92C5.529-.09 2.673-.592 1.162.748-.518 2.255-.35 5.102 1.498 7.112s4.703 2.512 6.383 1.172c1.512-1.34 1.344-4.187-.504-6.364z"/></defs><g transform="translate(-1 -24)" fill="none" fill-rule="evenodd"><path d="M74.959 54.885l-56.264-20.68 27.675 25.772-24.844.935 15.71 9.041L0 96.552l37.565-4.902 75.081-7.083a50 50 0 0 1 7.649-.134l122.515 7.248-37.238-15.701 30.141-19.537-36.612-1.16 7.989-27.206-40.216 16.891-4.134-15.515-16.302-.517L113.165 0l5.997 18.026-6.572 9.84-1.37 33.462-21.555-27.435 1.005 23.902-11.6-11.431-4.11 8.521z" transform="matrix(-.9922 -.124357 -.124357 .9922 253.542399 61.71849)" fill="url(#A)" class="I"/><g transform="matrix(.999391 .034899 -.034899 .999391 26.468983 .552084)"><mask id="N" fill="#fff"><use xlink:href="#B"/></mask><g mask="url(#N)" class="I"><g transform="translate(-8 15)"><g transform="translate(41 40)"><g fill="#fa7c34"><path d="M153.363 0c-4.871 23.111-24.189 56.94-57.952 76.869C61.647 96.631 22.677 97.133 0 90.1L153.363 0z" transform="matrix(.9794 -.202079 .202079 .9794 .561094 31.715903)"/></g><g fill="#d93f0f"><path d="M19.149 25.456L62.319 0C57.448 23.111 38.131 56.94 4.367 76.869c-1.512.837-2.856 1.675-4.367 2.512 28.22-20.934 43.506-47.059 19.149-53.926z" transform="matrix(.9794 -.202079 .202079 .9794 89.557508 13.336125)"/></g><g opacity=".8" fill="#a32600"><path d="M150.675 10.551c1.176-3.684 1.848-7.369 2.52-10.551L0 90.1c5.207 1.507 11.254 2.847 17.805 3.517 53.417-4.857 116.072-58.95 132.869-83.066z" transform="matrix(.9794 -.202079 .202079 .9794 .561102 31.715901)"/></g></g><g fill="url(#C)"><g transform="matrix(.9794 -.202079 .202079 .9794 .37962 41.94551)"><path d="M4.248 123.731c8.735 14.737 61.647 4.856 115.4-26.628 53.752-31.652 88.019-73.018 79.284-87.755-1.343-2.345-4.535-7.704-7.894-8.541-17.974-4.857-60.304 12.728-105.322 39.188C39.523 67.125 3.073 95.26.049 113.013c-.504 2.847 3.024 8.708 4.199 10.718z"/></g></g><g fill="url(#D)"><g transform="matrix(.979369 -.202079 .202079 .979369 .034029 39.997049)"><path d="M.665 115.996c7.055 12.393 58.12.838 110.864-30.145s89.364-71.175 80.293-82.061c-8.231-9.881-57.952-.67-110.697 30.312C28.382 65.252-5.214 105.78.665 115.996z"/></g></g><g opacity=".4" fill="#eb5223"><path d="M.68 52.32C-5.871 40.43 36.963-1.941 41.33.069c.672.67 2.52 5.024 2.52 5.024C36.963 3.754 5.215 32.726.68 52.32z" transform="matrix(.9794 -.202079 .202079 .9794 13.223516 102.330305)"/></g><g class="D"><path d="M20.157 16.58l.84-.837C15.622 9.881 6.383 3.182.504 0L0 1.005c5.711 3.182 14.782 9.713 20.157 15.575z" transform="matrix(.9794 -.202079 .202079 .9794 117.528087 73.315358)"/></g><g class="J"><path d="M20.493 16.915l.84-.837C15.958 10.216 6.551 3.349.504 0L0 1.005c6.047 3.349 15.286 10.048 20.493 15.91z" transform="matrix(.9794 -.202079 .202079 .9794 116.97164 73.935135)"/></g><g transform="translate(134 44)"><g class="B D"><path d="M37.963 4.68l.672-1.005C32.084-1.014 5.375-.01 0 .325v1.172c3.36 0 31.58-1.34 37.963 3.182z" transform="matrix(.9794 -.202079 .202079 .9794 .180063 8.601331)"/></g><g class="J"><path d="M37.795 4.496l.672-1.005C32.587-.696 8.903-.026 1.176.142H0v1.172h1.176c20.493-.502 32.923.502 36.619 3.182z" transform="matrix(.9794 -.202079 .202079 .9794 .187763 9.471331)"/></g></g><g transform="translate(141 10)" class="B"><g class="D"><path d="M49.721 3.557l.504-1.005C36.619-4.984 3.36 6.404 0 8.079l.504 1.005c5.711-2.68 36.787-12.56 49.217-5.527z" transform="matrix(.9794 -.202079 .202079 .9794 .209069 10.99867)"/></g><g class="G"><path d="M49.721 3.345l.504-1.005C36.451-4.526 5.207 5.69 0 7.867l.504 1.005C5.543 6.694 36.283-3.354 49.721 3.345z" transform="matrix(.9794 -.202079 .202079 .9794 .057877 11.928668)"/></g></g><g opacity=".3"><g class="B D"><path d="M1.077 34.667C.237 27.465 10.316 5.694 14.179.67l-.84-.67C9.308 5.192-.939 27.13.069 34.834l1.008-.167z" transform="matrix(.9794 -.202079 .202079 .9794 63.071505 107.316725)"/></g><g class="G"><path d="M1.008 33.829C2.016 25.121 10.079 3.684 13.438.837L12.766 0C9.239 3.182 1.008 24.618 0 33.829h1.008z" transform="matrix(.9794 -.202079 .202079 .9794 64.02506 106.606946)"/></g></g><g opacity=".1" transform="translate(27 109)"><g class="B D"><path d="M1.177 41.365C1.009 26.46 23.854 3.852 27.717 1.005L27.045 0C23.014 2.847-.167 26.125.001 41.365h1.176z" transform="matrix(.9794 -.202079 .202079 .9794 .016347 6.113845)"/></g><g class="G"><path d="M1.008 41.198C1.68 26.293 23.013 4.354 27.548.837L26.876 0C22.341 3.684.504 25.958 0 41.198h1.008z" transform="matrix(.9794 -.202079 .202079 .9794 .873347 6.113845)"/></g></g><g transform="translate(98 89)" class="B"><g class="D"><path d="M5.543 26.795C2.856 19.762 1.176 7.704 1.176 0H0c0 7.704 1.68 19.929 4.535 27.13l1.008-.335z" transform="matrix(.9794 -.202079 .202079 .9794 .914481 1.328715)"/></g><g class="G"><path d="M5.039 25.121C2.52 17.584 1.176 6.531 1.176 0H0c0 6.699 1.344 17.919 3.863 25.456l1.176-.335z" transform="matrix(.9794 -.202079 .202079 .9794 .096598 2.358711)"/></g></g><g opacity=".4" fill="#660c00"><path d="M.502 63.434c5.039 9.546 32.419 3.517 61.311-13.565 29.06-17.082 48.713-39.691 42.666-47.394-5.375-6.866-31.076 1.005-60.136 18.087C15.452 37.476-3.362 56.232.502 63.434z" transform="matrix(.9794 -.202079 .202079 .9794 37.232535 49.066535)"/></g><g fill="#eb5223"><path d="M.557 64.202c4.871 8.541 33.427 3.014 62.487-14.068s48.713-39.858 42.666-47.562c-5.711-7.034-31.412.837-60.304 17.752C16.347 37.406-3.642 57.001.557 64.202z" transform="matrix(.9794 -.202079 .202079 .9794 37.337481 45.696315)"/></g><g transform="translate(40 26)"><g fill="url(#E)"><g transform="matrix(.9794 -.202079 .202079 .9794 1.079956 20.398305)"><path d="M.394 58.232c4.031 7.201 29.732 1.172 56.104-14.402 26.54-15.407 45.018-35.504 39.81-41.868C91.773-3.9 68.593 3.803 42.052 19.378S-2.965 52.37.394 58.232z"/></g></g><g fill="#f0bdaa"><path d="M4.676 61.924c-2.016-.502-3.36-1.507-4.199-2.847-4.031-7.034 18.142-25.791 41.826-39.691C69.851 3.142 92.528-3.892 97.4 2.137c.84 1.172 1.176 2.68.84 4.522-1.68 9.211-19.317 25.791-40.818 38.518-20.997 12.058-43.17 19.259-52.745 16.747zm-3.024-3.517c.504 1.005 1.68 1.842 3.36 2.177 8.063 2.177 28.388-3.014 51.905-16.747C80.266 30.105 95.72 13.86 97.064 6.156c.336-1.507 0-2.68-.672-3.517-4.199-5.192-27.212 2.345-53.417 17.752-28.22 16.58-44.178 33.159-41.322 38.016z" transform="matrix(.9794 -.202079 .202079 .9794 .402901 20.018083)"/></g></g><g fill="#c7c7c7" fill-opacity=".8"><path d="M4.663 78.062c4.031 7.201 29.732 1.172 56.104-14.403 26.54-15.407 45.018-35.504 39.811-41.868-4.536-5.861-31.58-36.844-72.062-12.728C-11.63 33.18 1.304 72.201 4.663 78.062z" transform="matrix(.9794 -.202079 .202079 .9794 32.892598 27.83745)"/></g><g opacity=".7" fill="#ededed"><path d="M17.984 55.433C3.706 35.336 4.882 13.733 13.617 0-8.388 21.436 2.362 49.906 4.546 55.265c1.176 2.68 13.942 1.507 13.438.167z" transform="matrix(.9794 -.202079 .202079 .9794 40.535676 47.676097)"/></g><g class="J"><path d="M0 111.871s.168.168.336.503c.336.335.672.837 1.344 1.507 1.344 1.172 3.863 2.177 7.055 2.512 6.551.837 15.958-.167 26.876-3.014 5.375-1.34 11.254-3.182 17.302-5.192 6.047-2.177 12.43-4.522 18.813-7.369 12.766-5.526 26.036-12.393 38.97-19.929 12.766-7.536 25.197-15.91 36.283-24.283s20.829-17.082 28.724-25.121c7.727-8.039 13.27-15.742 15.79-21.771 1.175-3.014 1.511-5.694 1.007-7.369-.168-.837-.672-1.507-.84-1.842L191.158 0s.168.167.336.502.503 1.005.671 1.842c.336 1.675 0 4.354-1.343 7.201s-3.528 6.196-6.215 9.713c-2.856 3.517-6.216 7.201-10.247 11.053-7.895 7.871-17.973 16.077-29.06 24.283a387.02 387.02 0 0 1-36.283 23.781C96.251 85.913 83.148 92.779 70.55 98.473a398.13 398.13 0 0 1-18.477 7.703c-5.879 2.177-11.59 4.187-16.966 5.694-10.583 3.015-19.821 4.689-26.204 4.02-3.192-.335-5.711-1.173-7.055-2.178-.672-.502-1.176-1.004-1.512-1.339-.168-.335-.336-.503-.336-.503z" transform="matrix(.9794 -.202079 .202079 .9794 1.52011 43.907265)"/></g><g fill="#fff"><path d="M0 8.76c.336-.167.672-.335 1.008-.67 36.787-22.106 62.319 7.536 66.519 12.728 1.008 1.172-.84 6.196-2.016 4.522C55.432 10.937 35.107-5.307 0 8.76z" transform="matrix(.9794 -.202079 .202079 .9794 61.983448 25.224915)"/></g><g fill="#f7ffff"><path d="M.04 10.094c.504 5.024 5.039 6.531 10.918 6.029s10.583-2.847 10.079-7.871S15.493-.457 9.782.046C3.903.548-.464 5.07.04 10.094z" transform="matrix(.9794 -.202079 .202079 .9794 75.14444 35.175135)"/></g><g fill="#fff"><path d="M.829 6.428c1.176 1.507 3.36 1.172 5.039-.335s2.184-3.517.84-5.024c-1.176-1.507-3.695-1.34-5.207 0C-.179 2.576-.515 4.92.829 6.428z" transform="matrix(.9794 -.202079 .202079 .9794 66.408563 43.288234)"/></g><g transform="translate(116 92)"><g fill="url(#F)" class="B"><g transform="matrix(.9794 -.202079 .202079 .9794 4.733162 8.705807)"><path d="M1.22 14.062C-1.3 9.707.212 4.013 4.579 1.334 9.115-1.346 14.826.162 17.345 4.516s1.008 10.048-3.36 12.728C9.451 19.923 3.739 18.416 1.22 14.062z"/></g></g><g transform="translate(4 4)"><g fill="url(#F)"><g transform="matrix(.979369 -.202079 .202079 .979369 .732962 4.705807)"><path d="M1.22 14.062C-1.3 9.707.212 4.013 4.579 1.334 9.115-1.346 14.826.162 17.345 4.516s1.008 10.048-3.36 12.728C9.451 19.923 3.739 18.416 1.22 14.062z"/></g></g><g class="E"><path d="M1.325 14.39C-1.362 9.868.149 4.007 4.853 1.327 9.388-1.352 15.267.155 17.955 4.677s1.176 10.383-3.528 13.063C9.724 20.252 3.845 18.912 1.325 14.39zm.336-.335c2.52 4.187 8.063 5.694 12.43 3.182s5.879-8.039 3.36-12.393C14.931.658 9.388-.85 5.021 1.662.653 4.342-.859 9.868 1.661 14.055z" transform="matrix(.9794 -.202079 .202079 .9794 .432915 4.595584)"/></g></g><g class="C F"><path d="M1.804 19.595C-1.891 13.398.292 5.527 6.508 1.843S20.786.168 24.313 6.364c3.696 6.196 1.512 14.068-4.703 17.752-6.047 3.684-14.11 1.675-17.806-4.522z" transform="matrix(.9794 -.202079 .202079 .9794 .124733 5.884039)"/></g><g class="H"><path d="M6.883 13.405c3.801 0 6.883-3.001 6.883-6.703S10.685 0 6.883 0 0 3.001 0 6.703s3.082 6.703 6.883 6.703z" transform="matrix(.7412 -.671332 .671332 .7412 6.128536 15.629708)"/></g><g class="C"><path d="M4.533 8.713c2.503 0 4.533-1.951 4.533-4.357S7.036 0 4.533 0 0 1.951 0 4.357s2.029 4.357 4.533 4.357z" transform="matrix(.7411 -.671433 .671433 .7411 9.439749 15.790222)"/></g></g><g transform="translate(82 122)"><g fill="url(#G)" class="B"><g transform="matrix(.9794 -.202079 .202079 .9794 3.671116 7.70647)"><path d="M1.273 12.018C-1.078 7.998-.071 3.142 3.457.965s8.399-.502 10.751 3.349c2.352 4.019 1.344 8.876-2.184 11.053s-8.399.67-10.751-3.349z"/></g></g><g transform="translate(3 4)"><g fill="url(#G)"><g transform="matrix(.979369 -.202079 .202079 .979369 .671016 3.70647)"><path d="M1.273 12.018C-1.078 7.998-.071 3.142 3.457.965s8.399-.502 10.751 3.349c2.352 4.019 1.344 8.876-2.184 11.053s-8.399.67-10.751-3.349z"/></g></g><g class="E"><path d="M1.265 12.213C-1.087 8.194-.079 3.17 3.617.992s8.567-.67 10.919 3.517c2.352 4.019 1.344 9.043-2.352 11.221-3.528 2.01-8.567.502-10.918-3.517zm.336-.167c2.352 3.852 6.887 5.359 10.415 3.349s4.367-6.866 2.184-10.718C11.848.825 7.312-.682 3.785 1.327S-.583 8.194 1.601 12.046z" transform="matrix(.9794 -.202079 .202079 .9794 .509016 3.71647)"/></g></g><g class="C F"><path d="M1.805 16.769C-1.554 11.243-.042 4.376 4.829 1.362c5.039-3.014 11.758-.837 14.95 4.689 3.36 5.527 1.848 12.393-3.024 15.407-5.039 3.014-11.758 1.005-14.95-4.689z" transform="matrix(.9794 -.202079 .202079 .9794 .026788 5.145146)"/></g></g><g transform="translate(151 60)"><g fill="url(#H)" class="B"><g transform="matrix(.9794 -.202079 .202079 .9794 4.079537 7.09647)"><path d="M14.207 4.347C11.856.328 6.984-1.18 3.457.997s-4.535 7.034-2.184 11.053 7.055 5.527 10.751 3.349c3.528-2.177 4.535-7.034 2.184-11.053z"/></g></g><g transform="translate(3 3)"><g fill="url(#H)"><g transform="matrix(.9794 -.202079 .202079 .9794 1.079537 4.09647)"><path d="M14.207 4.347C11.856.328 6.984-1.18 3.457.997s-4.535 7.034-2.184 11.053 7.055 5.527 10.751 3.349c3.528-2.177 4.535-7.034 2.184-11.053z"/></g></g><g class="E"><path d="M1.265 12.213C-1.087 8.194-.079 3.17 3.617.992s8.567-.67 10.919 3.517c2.352 4.019 1.344 9.043-2.352 11.221-3.528 2.177-8.567.502-10.918-3.517zm.336-.167c2.352 3.852 6.887 5.359 10.415 3.349s4.367-6.866 2.184-10.718C11.848.825 7.312-.682 3.785 1.327S-.751 8.194 1.601 12.046z" transform="matrix(.9794 -.202079 .202079 .9794 .890206 3.96647)"/></g></g><g class="C F"><path d="M19.864 6.051C16.505.524 9.954-1.653 4.914 1.362s-6.383 9.881-3.192 15.407c3.36 5.526 9.911 7.704 14.95 4.689 5.207-3.014 6.551-9.881 3.192-15.407z" transform="matrix(.9794 -.202079 .202079 .9794 .358058 4.585146)"/></g><g class="H"><path d="M5.372 12.064c2.967 0 5.372-2.701 5.372-6.032S8.339 0 5.372 0 0 2.701 0 6.032s2.405 6.032 5.372 6.032z" transform="matrix(.7411 -.671433 .671433 .7411 5.228059 12.748896)"/></g><g class="C"><path d="M3.526 8.043c1.947 0 3.526-1.801 3.526-4.022S5.473 0 3.526 0 0 1.801 0 4.022s1.578 4.022 3.526 4.022z" transform="matrix(.7412 -.671332 .671332 .7412 7.950289 12.9894)"/></g></g><g transform="translate(174 33)"><g fill="url(#I)" class="B"><g transform="matrix(.9794 -.202079 .202079 .9794 3.707989 5.717131)"><path d="M10.501 3.102C8.149.087 4.454-.918 1.934.925s-2.52 5.861-.336 8.876c2.352 3.014 6.047 4.019 8.567 2.177 2.352-2.01 2.52-5.861.336-8.876z"/></g></g><g transform="translate(3 2)"><g fill="url(#I)"><g transform="matrix(.9794 -.202079 .202079 .9794 .707589 3.717131)"><path d="M10.501 3.102C8.149.087 4.454-.918 1.934.925s-2.52 5.861-.336 8.876c2.352 3.014 6.047 4.019 8.567 2.177 2.352-2.01 2.52-5.861.336-8.876z"/></g></g><g class="E"><path d="M1.664 10.071C-.688 7.056-.52 2.87 2 1.027c.168-.167.336-.167.504-.335C5.023-.815 8.719.19 10.902 3.205c1.176 1.507 1.68 3.182 1.68 5.024 0 1.675-.84 3.182-2.016 4.019-.168.167-.336.167-.504.335-2.688 1.507-6.215.335-8.399-2.512zm.504-8.876c-2.352 1.842-2.52 5.694-.336 8.541s5.543 3.852 7.895 2.345c.168-.167.336-.167.336-.335 1.176-.837 1.848-2.177 1.848-3.852s-.504-3.349-1.512-4.689C8.383.525 4.855-.647 2.504.86c0 .167-.168.335-.336.335z" transform="matrix(.9794 -.202079 .202079 .9794 .424481 3.497132)"/></g></g><g class="C F"><path d="M14.645 4.28C11.453.094 6.078-1.246 2.719 1.266s-3.695 8.039-.504 12.393c3.192 4.187 8.567 5.527 11.926 3.014 3.528-2.679 3.696-8.206.504-12.393z" transform="matrix(.9794 -.202079 .202079 .9794 .785462 3.746249)"/></g><g class="H"><path d="M4.028 10.057c2.225 0 4.028-2.251 4.028-5.028S6.253 0 4.028 0 0 2.251 0 5.028s1.803 5.028 4.028 5.028z" transform="matrix(.6616 -.749828 .749828 .6616 4.354887 10.395582)"/></g><g class="C"><path d="M2.685 6.704c1.483 0 2.685-1.501 2.685-3.352S4.168 0 2.685 0 0 1.501 0 3.352s1.202 3.352 2.685 3.352z" transform="matrix(.6618 -.749683 .749683 .6618 6.494827 10.507281)"/></g></g><g transform="translate(185 8)"><g fill="url(#J)" class="B"><g transform="matrix(.9794 -.202079 .202079 .9794 4.171899 6.808015)"><use xlink:href="#M"/></g></g><g transform="translate(4 4)"><g fill="url(#K)"><g transform="matrix(.979369 -.202079 .202079 .979369 .171899 2.808015)"><use xlink:href="#M"/></g></g><g class="E"><path d="M1.498 7.333C-.35 5.156-.518 2.309 1.162.802c.168-.167.336-.335.504-.335C3.345-.538 5.865.132 7.545 1.974c.84 1.005 1.512 2.177 1.512 3.517 0 1.172-.336 2.345-1.176 3.014-.168.167-.336.335-.504.335-1.68 1.005-4.199.335-5.879-1.507zM1.162.969c-1.512 1.34-1.344 4.187.336 6.196 1.68 1.842 4.031 2.345 5.711 1.507.168-.167.336-.167.504-.335.84-.67 1.176-1.675 1.008-2.847 0-1.172-.672-2.345-1.512-3.349C5.529.299 3.177-.203 1.498.634c0 .167-.168.167-.336.335z" transform="matrix(.9794 -.202079 .202079 .9794 .161753 2.757792)"/></g></g><g class="C F"><path d="M5.537 14.084c3.058 0 5.537-3.153 5.537-7.042S8.596 0 5.537 0 0 3.153 0 7.042s2.479 7.042 5.537 7.042z" transform="matrix(.5946 -.803987 .803987 .5946 .568309 10.620067)"/></g><g class="H"><path d="M2.852 7.377c1.575 0 2.852-1.651 2.852-3.688S4.428 0 2.852 0 0 1.651 0 3.688s1.277 3.688 2.852 3.688z" transform="matrix(.5945 -.80411 .80411 .5945 4.854522 10.4746)"/></g><g class="C"><path d="M1.846 4.694c1.019 0 1.846-1.051 1.846-2.347S2.865 0 1.846 0 0 1.051 0 2.347.826 4.694 1.846 4.694z" transform="matrix(.5948 -.80386 .80386 .5948 6.527272 10.456692)"/></g></g></g></g></g><path d="M9.829 3.133l31.372 10.221 2.292-4.212 6.468 5.65-.56-11.813 12.019 13.559L62.183 0l7.537 5.855L89.016 0l-9.941 16.538 28.919-10.683-13.556 23.883H0l20.167-8.937-8.76-4.468 13.852-.462z" transform="matrix(.9995 .031688 -.031688 .9995 69.345031 115.489002)" fill="url(#L)" class="I"/></g></svg>