<svg xmlns="http://www.w3.org/2000/svg" xmlns:xlink="http://www.w3.org/1999/xlink" width="800" height="497" xmlns:v="https://vecta.io/nano"><g fill-rule="evenodd" opacity=".5"><g fill="#f4f4f4" fill-rule="nonzero"><use xlink:href="#B"/><path d="M264.93 30.049c-3.804 0-4.755 1.425-4.755 4.749 0-3.325-1.268-4.749-4.755-4.749 3.487 0 4.755-1.425 4.755-4.749 0 3.325 1.11 4.749 4.755 4.749z"/><use xlink:href="#B" x="582.502" y="252.51"/><use xlink:href="#B" x="163.259" y="-110.97"/><use xlink:href="#C"/><use xlink:href="#D"/><path d="M264.93 99.549c-4.28 0-4.755.633-4.755 4.749 0-4.116-.634-4.749-4.755-4.749 4.121 0 4.755-.792 4.755-4.749 0 4.116.634 4.749 4.755 4.749z"/><use xlink:href="#D" x="31.225" y="-149.77"/><use xlink:href="#C" x="-69.266" y="-223.37"/><use xlink:href="#E"/><use xlink:href="#E" x="489.143" y="157.68"/><path d="M495.712 213.209c-5.072 0-5.706.633-5.706 5.699 0-5.066-.793-5.699-5.706-5.699 4.914 0 5.706-.95 5.706-5.699 0 4.908.634 5.699 5.706 5.699zm5.706-154.82c-5.072 0-5.706.633-5.706 5.699 0-5.066-.792-5.699-5.706-5.699 4.914 0 5.706-.95 5.706-5.699 0 4.749.634 5.699 5.706 5.699z"/><use xlink:href="#F"/><use xlink:href="#F" x="167.855" y="155.15"/><use xlink:href="#G"/><use xlink:href="#F" x="151.529" y="-124.27"/><use xlink:href="#G" x="-416.707" y="262.8"/><use xlink:href="#F" x="-201.142" y="124.27"/><use xlink:href="#H"/><path d="M143.833 327.986c-2.853 0-3.17.317-3.17 3.166 0-2.691-.476-3.166-3.17-3.166 2.695 0 3.17-.475 3.17-3.166.158 2.691.476 3.166 3.17 3.166z"/><use xlink:href="#I"/><use xlink:href="#I" x="207.798" y="164.65"/><path d="M390.782 179.966c-2.853 0-3.17.317-3.17 3.166 0-2.691-.476-3.166-3.17-3.166 2.695 0 3.17-.475 3.17-3.166.159 2.691.476 3.166 3.17 3.166z"/><use xlink:href="#H" x="578.38" y="-18.84"/><path d="M669.115 338.436c-2.853 0-3.17.317-3.17 3.166 0-2.691-.476-3.166-3.17-3.166 2.695 0 3.17-.475 3.17-3.166 0 2.533.317 3.166 3.17 3.166z"/><use xlink:href="#I" x="570.614" y="3.17"/><use xlink:href="#I" x="415.28" y="-140.26"/><use xlink:href="#I" x="174.988" y="-124.9"/><use xlink:href="#I" x="-19.971" y="-98.78"/><path d="M56.656 36.851c-4.438 0-5.548 1.741-5.548 5.541 0-3.958-1.427-5.541-5.548-5.541 4.121 0 5.548-1.583 5.548-5.541-.159 3.958 1.11 5.541 5.548 5.541z"/><use xlink:href="#J"/><path d="M60.143 313.263c-2.695 0-3.487.95-3.487 3.483 0-2.375-.951-3.483-3.487-3.483 2.536 0 3.487-.95 3.487-3.483.158 2.375.793 3.483 3.487 3.483z"/><use xlink:href="#J" x="532.89" y="-14.4"/><use xlink:href="#K"/><use xlink:href="#K" x="32.335" y="23.75"/><use xlink:href="#J" x="34.871" y="74.09"/><path d="M391.099 88.623c-2.695 0-3.487.95-3.487 3.483 0-2.375-.951-3.483-3.487-3.483 2.536 0 3.487-.95 3.487-3.483.159 2.375.792 3.483 3.487 3.483zm161.991 211.66c-2.695 0-3.487.95-3.487 3.483 0-2.375-.951-3.483-3.487-3.483 2.536 0 3.487-.95 3.487-3.483.159 2.533.951 3.483 3.487 3.483z"/><use xlink:href="#J" x="330.798" y="167.5"/><use xlink:href="#J" x="309.717" y="-44.64"/><path d="M614.273 19.123c-2.695 0-3.487.95-3.487 3.483 0-2.375-.951-3.483-3.487-3.483 2.536 0 3.487-.95 3.487-3.483.159 2.375.793 3.483 3.487 3.483zm51.989 14.41c-2.695 0-3.487.95-3.487 3.483 0-2.375-.951-3.483-3.487-3.483 2.536 0 3.487-.95 3.487-3.483 0 2.375.792 3.483 3.487 3.483zm44.222 44.48c-2.695 0-3.487.95-3.487 3.483 0-2.375-.951-3.483-3.487-3.483 2.536 0 3.487-.95 3.487-3.483 0 2.533.792 3.483 3.487 3.483zm45.966-11.24c-2.695 0-3.487.95-3.487 3.483 0-2.375-.951-3.483-3.487-3.483 2.536 0 3.487-.95 3.487-3.483 0 2.375.793 3.483 3.487 3.483z"/><use xlink:href="#J" x="678.396" y="-83.9"/><use xlink:href="#L"/><use xlink:href="#M"/><use xlink:href="#N"/><use xlink:href="#M" x="-233.635" y="133.14"/><use xlink:href="#L" x="-126.644" y="377.73"/><use xlink:href="#L" x="-159.137" y="134.89"/><use xlink:href="#N" x="-236.012" y="139.31"/><path d="M1.339 34.801c-2.378 0-3.646 1.583-3.646 3.641 0-2.058-1.427-3.799-3.646-3.641 2.219-.158 3.646-1.741 3.646-3.641-.158 1.9 1.268 3.641 3.646 3.641z"/><use xlink:href="#O"/><path d="M475.74 368.361c-2.378 0-3.646 1.583-3.646 3.641 0-2.058-1.427-3.799-3.646-3.641 2.219-.158 3.646-1.741 3.646-3.641 0 2.058 1.268 3.641 3.646 3.641z"/><use xlink:href="#O" x="293.549" y="-102.27"/><use xlink:href="#O" x="70.851" y="-64.75"/><use xlink:href="#P"/><use xlink:href="#Q"/><use xlink:href="#Q" x="-162.467" y="54.77"/><use xlink:href="#P" x="207.64" y="398.16"/><use xlink:href="#R"/><use xlink:href="#P" x="566.968" y="343.38"/><path d="M680.21 170.306c-2.061 0-3.17 1.425-3.17 3.166 0-1.9-1.268-3.325-3.17-3.166 2.061-.158 3.17-1.425 3.17-3.166-.159 1.583 1.11 3.166 3.17 3.166z"/><use xlink:href="#Q" x="159.454" y="-121.9"/><path d="M74.515 203.062c-6.499 0-10.144 4.274-10.144 10.132 0-5.858-3.804-10.449-10.144-10.132 6.34-.317 10.144-4.591 10.144-10.132 0 5.541 3.646 10.132 10.144 10.132zm450.044-58.556c-2.061 0-3.17 1.425-3.17 3.166 0-1.9-1.268-3.325-3.17-3.166 2.061-.158 3.17-1.425 3.17-3.166-.159 1.741 1.11 3.166 3.17 3.166z"/><use xlink:href="#R" x="105.722" y="-192.67"/><use xlink:href="#R" x="-199.556" y="-107.97"/><use xlink:href="#R" x="-367.887" y="-58.73"/><path d="M641.377 453.216c-2.061 0-3.17 1.425-3.17 3.166 0-1.9-1.268-3.325-3.17-3.166 2.061-.158 3.17-1.425 3.17-3.166-.159 1.583.951 3.166 3.17 3.166z"/><use xlink:href="#R" x="243.145" y="-6.49"/><use xlink:href="#R" x="-307.656" y="17.57"/><use xlink:href="#R" x="267.396" y="-355.73"/></g></g><defs ><path id="B" d="M183.459 120.599c-3.804 0-4.755 1.425-4.755 4.749 0-3.325-1.268-4.749-4.755-4.749 3.487 0 4.755-1.425 4.755-4.749 0 3.325.951 4.749 4.755 4.749z"/><path id="C" d="M392.526 406.349c-4.28 0-4.755.633-4.755 4.749 0-4.116-.634-4.749-4.755-4.749 4.121 0 4.755-.792 4.755-4.749 0 4.116.476 4.749 4.755 4.749z"/><path id="D" d="M257.164 308.519c-4.28 0-4.755.633-4.755 4.749 0-4.116-.634-4.749-4.755-4.749 4.121 0 4.755-.792 4.755-4.749 0 3.958.476 4.749 4.755 4.749z"/><path id="E" d="M98.818-3.671c-5.072 0-5.706.633-5.706 5.699 0-5.066-.793-5.699-5.706-5.699 4.914 0 5.706-.95 5.706-5.699 0 4.749.634 5.699 5.706 5.699z"/><path id="F" d="M283.634 124.558c-3.487 0-3.963.475-3.963 3.958 0-3.483-.476-3.958-3.963-3.958 3.487 0 3.963-.633 3.963-3.958 0 3.325.476 3.958 3.963 3.958z"/><path id="G" d="M676.882 124.558c-3.487 0-3.963.475-3.963 3.958 0-3.483-.476-3.958-3.963-3.958 3.487 0 3.963-.633 3.963-3.958.159 3.325.476 3.958 3.963 3.958z"/><path id="H" d="M.705 229.046c-2.853 0-3.17.317-3.17 3.166 0-2.691-.476-3.166-3.17-3.166 2.695 0 3.17-.475 3.17-3.166 0 2.691.476 3.166 3.17 3.166z"/><path id="I" d="M170.145 176.796c-2.853 0-3.17.317-3.17 3.166 0-2.691-.476-3.166-3.17-3.166 2.695 0 3.17-.475 3.17-3.166 0 2.691.317 3.166 3.17 3.166z"/><path id="J" d="M78.054 99.543c-2.695 0-3.487.95-3.487 3.483 0-2.375-.951-3.483-3.487-3.483 2.536 0 3.487-.95 3.487-3.483 0 2.533.793 3.483 3.487 3.483z"/><path id="K" d="M662.775 229.043c-2.695 0-3.487.95-3.487 3.483 0-2.375-.951-3.483-3.487-3.483 2.536 0 3.487-.95 3.487-3.483.159 2.533.793 3.483 3.487 3.483z"/><path id="L" d="M188.214 14.369c-3.012 0-4.755 2.058-4.755 4.749 0-2.691-1.744-4.908-4.755-4.749 3.012-.158 4.755-2.216 4.755-4.749 0 2.533 1.585 4.749 4.755 4.749z"/><path id="M" d="M490.006 110.939c-3.012 0-4.755 2.058-4.755 4.749 0-2.691-1.744-4.908-4.755-4.749 3.012-.158 4.755-2.216 4.755-4.749-.159 2.533 1.585 4.749 4.755 4.749z"/><path id="N" d="M803.367 262.289c-3.012 0-4.755 2.058-4.755 4.749 0-2.691-1.744-4.908-4.755-4.749 3.012-.158 4.755-2.216 4.755-4.749 0 2.533 1.744 4.749 4.755 4.749z"/><path id="O" d="M153.819 256.271c-2.378 0-3.646 1.583-3.646 3.641 0-2.058-1.427-3.799-3.646-3.641 2.219-.158 3.646-1.741 3.646-3.641 0 1.9 1.268 3.641 3.646 3.641z"/><path id="P" d="M109.28 55.056c-2.061 0-3.17 1.425-3.17 3.166 0-1.9-1.268-3.325-3.17-3.166 2.061-.158 3.17-1.425 3.17-3.166 0 1.583 1.11 3.166 3.17 3.166z"/><path id="Q" d="M170.304 401.606c-2.061 0-3.17 1.425-3.17 3.166 0-1.9-1.268-3.325-3.17-3.166 2.061-.158 3.17-1.425 3.17-3.166-.159 1.741.951 3.166 3.17 3.166z"/><path id="R" d="M521.231 476.326c-2.061 0-3.17 1.425-3.17 3.166 0-1.9-1.268-3.325-3.17-3.166 2.061-.158 3.17-1.425 3.17-3.166 0 1.741 1.11 3.166 3.17 3.166z"/></defs></svg>