<?xml version="1.0" encoding="UTF-8"?><svg version="1.1" xmlns="http://www.w3.org/2000/svg" xmlns:xlink="http://www.w3.org/1999/xlink" viewBox="0 0 1600 1200" width="1600" height="1200" x="0px" y="0px">
              
              <!-- ITEM 0 -->
<g>
    <defs>
        
        <clipPath id="clip-path-id-viewbox-item-0">
            <rect x="0.0" y="0.0" width="2486.316" height="1484.139"/>
        </clipPath>
    </defs>
    <g transform="translate(1436.0 101.0) rotate(0.0 -648.0 388.0) scale(-0.5212531311386003 0.5228620769348424)">
        <g clip-path="url(#clip-path-id-viewbox-item-0)" transform="translate(-0.0 -0.0)">

<path style="fill:#00AEE0;" d="M2309.247,992.098c-83.531,38.502-179.678,34.2-269.877,52.209  c-200.743,40.074-360.387,186.761-539.553,285.786c-370.303,204.674-931.277,230.744-1252.324-77.82  C158.896,1167.118,88.07,1063.035,45.57,947.499c-83.545-227.08-52.171-496.653,93.751-689.652  C285.252,64.848,545.331-39.384,781.364,13.848c53.581,12.082,104.847,31.374,155.098,53.781c4.458,1.98,8.908,3.998,13.351,6.03  c128.382,58.736,250.86,135.472,389.321,160.987c116.433,21.45,235.521,5.058,353.868-5.192c4.45-0.378,8.9-0.757,13.351-1.12  c9.865-0.816,19.714-1.572,29.564-2.247c150.945-10.376,306.74-1.038,445.72,58.75c0.297,0.126,0.594,0.252,0.89,0.386  c4.472,1.928,8.923,3.924,13.351,5.971c132.906,61.473,246.328,175.072,280.839,317.042  C2512.444,755.257,2446.647,928.764,2309.247,992.098z"/>

        </g>
    </g>
</g>

<!-- ITEM 1 -->
<g>
    <defs>
        
        <clipPath id="clip-path-id-viewbox-item-1">
            <rect x="0.0" y="0.0" width="484.0" height="329.278"/>
        </clipPath>
    </defs>
    <g transform="translate(853.0 578.0) rotate(0.0 176.5 120.5) scale(0.7293388429752066 0.7319043483014352)">
        <g clip-path="url(#clip-path-id-viewbox-item-1)" transform="translate(-0.0 -0.0)">
<title>speech_bubble_l_3</title><g id="Layer_2-i1" data-name="Layer 2"><g id="speech_bubble_l_3-i1"><path d="M434,250s-106.124,8-194,8c-80.756,0-190-8-190-8A50,50,0,0,1,0,200V50A50,50,0,0,1,50,0S204.417,6,230,6c49.417,0,204-6,204-6a50,50,0,0,1,50,50V200A50,50,0,0,1,434,250Z" fill="#04294f"/><path d="M38,207s50.141,74.224-4.9,113.4a4.884,4.884,0,0,0,4.136,8.684C79.55,317.492,136.669,276.192,149,207Z" fill="#04294f"/></g></g>
        </g>
    </g>
</g>

<!-- ITEM 2 -->
<g>
    <defs>
        
        <clipPath id="clip-path-id-viewbox-item-2">
            <rect x="0.0" y="0.0" width="400.0" height="224.278"/>
        </clipPath>
    </defs>
    <g transform="translate(1328.0 394.0) rotate(0.0 -168.5 94.5) scale(-0.8425 0.8427041439641874)">
        <g clip-path="url(#clip-path-id-viewbox-item-2)" transform="translate(-0.0 -0.0)">
<title>speech_bubble_m_4</title><g id="Layer_2-i2" data-name="Layer 2"><g id="speech_bubble_m_4-i2"><path d="M350,157s-110.917,3-150,3c-35.917,0-150-3-150-3A50,50,0,0,1,0,107V54A50,50,0,0,1,50,4S179.417,0,205,0c49.417,0,145,4,145,4a50,50,0,0,1,50,50v53A50,50,0,0,1,350,157Z" fill="#fff"/><path d="M38,114s38.141,62.224-16.9,101.4a4.884,4.884,0,0,0,4.136,8.684C67.55,212.492,136.669,183.192,149,114Z" fill="#fff"/></g></g>
        </g>
    </g>
</g>

<!-- ITEM 3 -->
<g>
    <defs>
        
        <clipPath id="clip-path-id-viewbox-item-3">
            <rect x="0.0" y="0.0" width="447.229" height="810.18"/>
        </clipPath>
    </defs>
    <g transform="translate(315.0 311.0) rotate(0.0 228.5 413.0) scale(1.0218478676472234 1.0195265249697598)">
        <g clip-path="url(#clip-path-id-viewbox-item-3)" transform="translate(-0.0 -0.0)">
<title>msn_looking_at_the_phone</title><g id="Layer_2-i3" data-name="Layer 2"><g id="msn_looking_at_the_phone-i3"><path d="M426.129,215.275l-.2-.1a9.632,9.632,0,0,0-7.8-.7,6.811,6.811,0,0,0-2.6,1.5,28.057,28.057,0,0,0-3.1,2.9,130.591,130.591,0,0,0-21.1,26.8c-.8,1.4-1.7,2.9-2.5,4.3h0c-11.5,17.5-45.5,8.6-38.9-28.4,5-28.4,6.7-41.5,6.6-50.6a10.029,10.029,0,0,0-10-10,11.151,11.151,0,0,0-3.1.5c-3.3,1.1-6.5,3.6-8.9,8.3a5.918,5.918,0,0,0-.5,1.9c-.9-.1-1.5-.2-1.5-.2-5.9-.3-13.6,1.4-16.4,11.1a20.1,20.1,0,0,0-.8,6.9l.1-.1h0l-.1.1a4.4,4.4,0,0,0,.2,1h-.7c-5.5.6-11.3,3.5-14.5,11.6a21.947,21.947,0,0,0-1.6,8c-4.2,27.7,6.4,63.5,17.8,69.7,4.6,2.5,12.1,18,6.9,29.6.3.1,15.1-1.9,27.4,2.2,12.7,4.4,23.7,14.7,23.8,14.8,5.4-15.6,18-21.8,23.2-35,.1-.2.2-.5.3-.7a20.136,20.136,0,0,0,1-3.5c0-.2.1-.3.1-.5.6-2.5,1.1-5.2,1.8-7.6s1.6-5.2,2.5-7.8a72.243,72.243,0,0,1,3.3-8.1,53.862,53.862,0,0,1,3.9-8,106.688,106.688,0,0,1,8.8-14.4,81.081,81.081,0,0,1,5.1-6.5l3.8-4.3a9.442,9.442,0,0,0-1-13.5A3.436,3.436,0,0,0,426.129,215.275Z" fill="#ffb400"/><path d="M163.829,755.375c.1,1.4.2,2.9.3,4.2h0C164.029,758.275,163.929,756.775,163.829,755.375Z" fill="none"/><polygon points="295.129 236.775 370.929 152.875 295.129 236.775 318.929 249.775 295.129 236.775" fill="none"/><path d="M314.629,84.175a30.283,30.283,0,0,1,19.5,19.9h0A30.08,30.08,0,0,0,314.629,84.175Z" fill="none"/><path d="M164.029,759.675l.1,1.1a3.75,3.75,0,0,0-.1-1.1Z" fill="#10294c"/><path d="M115.729,798.675v0Z" fill="#10294c"/><path d="M173.029,761.075a13.735,13.735,0,0,1,1.3,2,6.982,6.982,0,0,1,.8,2c.1.3.2.6.3,1a3.085,3.085,0,0,1,.1.9,8.6,8.6,0,0,1,.1,1.6,4.121,4.121,0,0,1-.1,1.2,5,5,0,0,1-.1,1.1,1.224,1.224,0,0,1-1.4,1,1.555,1.555,0,0,1-.8-.6l-.1-.2a4.768,4.768,0,0,1-.4-.8c-.1-.3-.3-.6-.4-.9s-.4-.7-.6-1.1l-.3-.6-.4-.6c-.3-.4-.6-.9-.9-1.3-.2-.2-.3-.4-.5-.6l-.6-.6-.6-.6-.6-.6c-.4-.4-.9-.7-1.3-1.1a7.1,7.1,0,0,0-1.4-1,2.092,2.092,0,0,0-.6-.4c.1.8.1,1.7.2,2.5,1,13.2-8.9,17.4-22.1,18.4-.6,0-1.2.1-1.8.1-12.4,0-22.9-2.2-23.9-14.8h0a3.941,3.941,0,0,0-1.4,2.5c-.3,6.7-1.1,16.2,0,26.5-.1-1-.2-1.9-.3-3,4.3,7.3,15.3,11.5,34.7,6.3,21.1-5.7,48.4-11.1,55.9-18.9v1.3c.1-7.5-1.9-13.5-15-18.5a42.841,42.841,0,0,0-5.1-1.5,10.417,10.417,0,0,1,1,1.8,8.64,8.64,0,0,1,.7,2.1,3.553,3.553,0,0,1,.2,1c0,.3.1.6.1.9a8.6,8.6,0,0,1,.1,1.6c0,.5-.1.9-.1,1.2a6.468,6.468,0,0,1-.2,1,1.3,1.3,0,0,1-1.4.9,1.555,1.555,0,0,1-.8-.6l-.1-.2a4.106,4.106,0,0,1-.4-.9,6.9,6.9,0,0,0-.4-1,13.391,13.391,0,0,1-.6-1.2l-.3-.6-.4-.6a3.805,3.805,0,0,0-.9-1.3,4.233,4.233,0,0,1-.5-.7c-.2-.3-.4-.4-.5-.6s-.4-.4-.5-.6l-.6-.6c-.4-.4-.9-.8-1.3-1.2a7.1,7.1,0,0,0-1.4-1c-.5-.3-.8-.6-1.2-.8l-2.2-.2-1.4-.1.2.2C172.529,760.475,172.829,760.775,173.029,761.075Z" fill="#10294c"/><path d="M205.529,781.875v0Z" fill="#10294c"/><path d="M115.429,797.575l-.1-.3Z" fill="#10294c"/><path d="M205.529,783.275a4.869,4.869,0,0,1-.1,1.2A4.869,4.869,0,0,1,205.529,783.275Z" fill="#10294c"/><path d="M205.329,785.675a1.949,1.949,0,0,1,.1-.8C205.429,785.075,205.329,785.375,205.329,785.675Z" fill="#10294c"/><path d="M149.729,799.375c-19.5,5.3-30.6,1.1-34.7-6.3.1,1,.2,1.9.3,3a5.019,5.019,0,0,0,.2,1.2l.1.3c.1.3.1.7.2,1v.2a9.172,9.172,0,0,0,.9,2.3h0c3.7,7.6,14.3,12.1,33.6,6.8,23.2-6.3,54.4-12.1,55.1-21.7v-.5a1.949,1.949,0,0,1,.1-.8v-.2a4.869,4.869,0,0,1,.1-1.2v-2.8C198.029,788.375,170.729,793.675,149.729,799.375Z" fill="#f04e23"/><path d="M137.729,747.475c-8.9,0-16.9-1.1-22.7-4.8.4,8.2.9,16.5,1.5,24.4h0c.9,12.6,11.5,14.8,23.9,14.8a10.869,10.869,0,0,0,1.8-.1c13.2-1,23.1-5.2,22.1-18.3-.1-.8-.1-1.7-.2-2.5h0v-.2l-.1-1.1-.3-4.2v-.1h0c-.3-5.2-.6-10.4-.9-15.7-5.2,4.7-13.3,6.9-22.8,7.6A8.954,8.954,0,0,1,137.729,747.475Z" fill="#ffb400"/><path d="M163.829,755.375c.1,1.4.2,2.9.3,4.2a3.75,3.75,0,0,0,.1,1.1v.1h0a2.092,2.092,0,0,1,.6.4c.5.3.9.7,1.4,1a6.885,6.885,0,0,1,1.3,1.1l.6.6.6.6.6.6c.2.2.3.4.5.6a14.629,14.629,0,0,1,.9,1.3l.4.6.3.6c.2.4.5.8.6,1.1a7.93,7.93,0,0,0,.4.9,4.768,4.768,0,0,0,.4.8l.1.2a1.081,1.081,0,0,0,1.6.4,1.555,1.555,0,0,0,.6-.8,5,5,0,0,0,.1-1.1c0-.3.1-.8.1-1.2,0-.5-.1-1.1-.1-1.6a2.769,2.769,0,0,1-.1-.9c-.1-.3-.2-.6-.3-1a11.919,11.919,0,0,0-.8-2,8.577,8.577,0,0,0-1.3-2c-.3-.3-.5-.7-.8-1l-.2-.2-.7-.7a6.47,6.47,0,0,0-.9-.8,8.65,8.65,0,0,0-1-.7,12.81,12.81,0,0,0-2-1.1,11.919,11.919,0,0,0-2-.8,9.363,9.363,0,0,0-1.6-.4h0Z" fill="#fff"/><path d="M177.129,761.175c.5.3.9.7,1.4,1a4.894,4.894,0,0,1,1.3,1.2l.6.6a2.651,2.651,0,0,1,.5.6c.1.2.4.4.5.6a3.039,3.039,0,0,0,.5.7c.3.4.6.9.9,1.3l.4.6.3.6.6,1.2a6.9,6.9,0,0,1,.4,1c.2.5.4.9.4.9l.1.2a1.242,1.242,0,0,0,.8.6,1.091,1.091,0,0,0,1.4-.9s.1-.4.2-1c0-.3.1-.8.1-1.2a8.6,8.6,0,0,0-.1-1.6c0-.3-.1-.6-.1-.9s-.2-.6-.2-1a17.233,17.233,0,0,0-.7-2.1,16.179,16.179,0,0,0-1-1.8c-.1-.1-.1-.2-.2-.3-.2-.3-.5-.7-.7-1l-.8-.9a6.47,6.47,0,0,0-.9-.8l-.7-.6h0l-.2-.2-.1-.1h0c-.2-.2-.5-.5-.7-.5h0a5.982,5.982,0,0,0-5.8,0h0a.758.758,0,0,1-.4.2h0a2.836,2.836,0,0,0-1,.9h0c-.1.1-.2.2-.2.3a2.843,2.843,0,0,0-.4,1.2h.4l2.2.2A10.592,10.592,0,0,0,177.129,761.175Z" fill="#fff"/><path d="M105.329,748.575l.1-.9Z" fill="#10294c"/><path d="M73.029,723.975a13.735,13.735,0,0,1,1.3,2,6.982,6.982,0,0,1,.8,2c.1.3.2.7.3,1a2.769,2.769,0,0,1,.1.9,8.6,8.6,0,0,1,.1,1.6,4.121,4.121,0,0,1-.1,1.2,8.153,8.153,0,0,0-.1,1,1.13,1.13,0,0,1-1.3,1h0a1.555,1.555,0,0,1-.8-.6l-.1-.2a4.768,4.768,0,0,1-.4-.8c-.1-.3-.3-.6-.4-.9s-.4-.7-.6-1.1l-.3-.6-.4-.6c-.3-.4-.6-.9-.9-1.3a2.651,2.651,0,0,1-.5-.6l-.6-.6-.6-.6-.6-.6c-.4-.4-.9-.7-1.3-1.1a7.1,7.1,0,0,0-1.4-1l-.6-.4c.1.8.1,1.7.2,2.5,1,13.2-8.9,17.3-22.1,18.3-.6,0-1.2.1-1.8.1-12.4,0-22.9-2.2-23.9-14.8h0a3.436,3.436,0,0,0-1.3,2.5,196.338,196.338,0,0,0-.3,23.6c4.3,7.4,15.3,11.5,34.7,6.3,21.1-5.7,48.3-11,55.8-18.9v1.3c.1-7.5-1.9-13.5-15-18.5a42.841,42.841,0,0,0-5.1-1.5,16.179,16.179,0,0,1,1,1.8,8.64,8.64,0,0,1,.7,2.1,3.553,3.553,0,0,1,.2,1l.1.9a8.6,8.6,0,0,1,.1,1.6c0,.5-.1.9-.1,1.2a6.468,6.468,0,0,1-.2,1,1.35,1.35,0,0,1-1.5.9,1.555,1.555,0,0,1-.8-.6l-.1-.2a4.768,4.768,0,0,1-.4-.8,6.9,6.9,0,0,0-.4-1,13.391,13.391,0,0,1-.6-1.2l-.3-.6a2.092,2.092,0,0,0-.4-.6,3.805,3.805,0,0,0-.9-1.3,4.233,4.233,0,0,1-.5-.7c-.2-.3-.4-.4-.5-.6s-.4-.4-.5-.6l-.6-.6c-.4-.4-.9-.8-1.3-1.2a17.1,17.1,0,0,0-1.4-1.1,6.207,6.207,0,0,0-1.2-.8l-2.4-.2-1.3-.1.2.2C72.529,723.375,72.729,723.675,73.029,723.975Z" fill="#10294c"/><path d="M105.429,746.175a4.869,4.869,0,0,1-.1,1.2A4.121,4.121,0,0,0,105.429,746.175Z" fill="#10294c"/><path d="M64.029,722.575h0c0,.4.1.8.1,1.1A3.75,3.75,0,0,0,64.029,722.575Z" fill="#10294c"/><path d="M105.529,744.775v0Z" fill="#10294c"/><path d="M49.629,762.275c-19.5,5.3-30.6,1.1-34.7-6.3h0c.1,1,.2,1.9.3,3a5.019,5.019,0,0,0,.2,1.2.367.367,0,0,0,.1.3c.1.3.1.7.2,1v.1c2.5,9,13.2,15,34.5,9.2,23.2-6.3,54.4-12.1,55.2-21.7v-.5l.1-.9v-.2a4.869,4.869,0,0,1,.1-1.2v-2.8C97.929,751.175,70.629,756.575,49.629,762.275Z" fill="#f04e23"/><path d="M38.129,706.875c-9.3,0-17.6-.9-23.4-4.8.4,9.5,1,18.8,1.7,27.8h0c.9,12.6,11.5,14.8,23.9,14.8a10.869,10.869,0,0,0,1.8-.1c13.2-1,23.1-5.2,22.1-18.3-.1-.8-.1-1.7-.2-2.5h0v-.1c0-.4-.1-.8-.1-1.1-.5-7.2-.9-14.8-1.3-22.3-5.2,4.1-13.1,5.9-22.1,6.5C39.829,706.775,39.029,706.875,38.129,706.875Z" fill="#ffb400"/><path d="M162.329,473.675a72.654,72.654,0,0,1-20,6.2,129.953,129.953,0,0,1-13.8,1.7,133.66,133.66,0,0,1-15.5.3,153,153,0,0,1-16.5-1.4,135.074,135.074,0,0,1-16.8-3.4c-1.4-.3-2.8-.8-4.1-1.2l-4.1-1.3c-2.8-.8-5.3-1.9-8-2.9-5.2-2-10.3-4.3-15.2-6.6-2.4-1.1-4.8-2.4-7-3.6s-4.5-2.5-6.5-3.8a61.744,61.744,0,0,1-6-3.9l-2.9-2-2.6-2a46.251,46.251,0,0,1-4.8-4c-.8-.6-1.4-1.3-2.1-1.9l-1.9-1.9c-1.2-1.2-2.3-2.5-3.4-3.7a38.45,38.45,0,0,1-2.6-3.4c-1-1.4-1.9-2.9-2.8-4.4-2.2,44.4-6.6,155.5,1.1,256.9.5,7.1,3.5,11.7,7.8,14.6,5.8,3.9,14.2,4.8,23.4,4.8a19.269,19.269,0,0,0,2.4-.1c9.1-.7,16.9-2.5,22.1-6.5,4.8-3.7,7.4-9.3,6.7-17.5-4.2-55-4.7-114.2-3.9-162.9.2-5.3,3.2-7.9,7.4-8.7l-1.6-.3c-1.3-.2-2.9-.6-4.5-1s-3.4-.8-5-1.3-3.4-1.1-4.9-1.6a28.148,28.148,0,0,1-4.2-1.7c-1.1-.6-2.2-1-3-1.4-.7-.4-1.1-.6-1.1-.6h0a1.538,1.538,0,0,1-.5-2.2h0a1.826,1.826,0,0,1,1.3-.8,22.166,22.166,0,0,1,4.5.4c1.3.2,2.9.5,4.5.8s3.4.9,5.1,1.4a24.13,24.13,0,0,0,2.5.8,23.4,23.4,0,0,1,2.4.9c1.5.7,3,1.3,4.2,2s2.2,1.2,2.9,1.6c.6.4,1,.7,1,.7a1.546,1.546,0,0,1,.3,2l-.1.2c11.1,1,26.1,11.4,25.8,22.9-1.4,53.6-1.5,125.5,3.6,193,.6,7.5,3.8,12.4,8.6,15.5,5.7,3.7,13.9,4.8,22.7,4.8a19.269,19.269,0,0,0,2.4-.1c9.5-.7,17.6-3,22.8-7.6,4.3-3.9,6.6-9.5,6.1-17.3-7.5-99-3-211.5-.8-252.4l-.7.6A17.99,17.99,0,0,1,162.329,473.675Z" fill="#00acdc"/><path d="M323.329,309.175s-1.6,4-1.9,4.6a153.464,153.464,0,0,1-16.5,30c-6.4,9.2-24.9,38.2-47.5,28.4a15.656,15.656,0,0,1-6.9-5.8l1.5,3c.7,1.2,1.5,2.5,2.3,3.7.8,1.1,1.6,2.3,2.5,3.4.9,1,1.7,2,2.6,3l1.3,1.3a13.576,13.576,0,0,1,1.2,1.2c.8.7,1.6,1.4,2.3,2s1.3,1.1,1.8,1.5c1.1.8,1.6,1.2,1.6,1.2h.1a1.189,1.189,0,0,1,.2,1.8,1.237,1.237,0,0,1-1.4.4,26.722,26.722,0,0,1-4.4-1.7c-.9-.4-1.9-1-3-1.6l-1.6-1c-.5-.4-1.1-.8-1.6-1.2a24.456,24.456,0,0,1-3.4-3.1,40.634,40.634,0,0,1-3.2-3.7,14.29,14.29,0,0,1-1.4-2c-.4-.7-.9-1.4-1.3-2.1a45.119,45.119,0,0,1-2.2-4.4,34.3,34.3,0,0,1-1.6-4.5,33.925,33.925,0,0,1-1.1-4.3,26.291,26.291,0,0,1-.6-3.9,58.279,58.279,0,0,1-.3-5.9c0-.7.1-1.3.1-1.7l.1-.6a1.556,1.556,0,0,1,1.7-1.4,1.706,1.706,0,0,1,1.4,1.3v.1s.1.7.4,2c.1.5.2,1.1.4,1.8-2.3-15.9,1.1-34.6,2.5-37h0c8.1-42.3-15.1-73.5-56.6-105.4-9-6.8-18.7-13.8-29.2-20.8a277.009,277.009,0,0,0-24-14.4c-37.2-19-78.4-23.5-113.8,31.7-36.5,57.2-21.6,145.5-16.3,171v-.2c.1-2.2.1-5.1.2-8.3s.3-6.8.6-10.6c.3-3.9.6-8.1,1.1-12.6.2-2.2.5-4.6.8-6.9s.6-4.8.9-7.2c.7-4.9,1.4-9.9,2.4-15s2-10.2,3.2-15.4c.6-2.5,1.2-5.1,1.8-7.6s1.3-5.1,2-7.5c1.4-5,3-9.9,4.5-14.6.8-2.3,1.6-4.6,2.4-6.8s1.6-4.4,2.5-6.5c1.6-4.2,3.5-8.1,5.2-11.7.9-1.7,1.7-3.5,2.5-5.1l2.4-4.5c.8-1.4,1.5-2.6,2.2-3.9l2-3.3c1.2-1.9,2.3-3.5,3-4.5l1.1-1.5a1.28,1.28,0,0,1,1.8-.3,1.388,1.388,0,0,1,.4,1.7h0l-3.5,6.2-1.7,3.4c-.6,1.2-1.3,2.5-1.9,4l-2.1,4.6-2.2,5.1c-1.5,3.6-3.1,7.4-4.6,11.6-.8,2-1.5,4.3-2.2,6.4s-1.4,4.5-2.2,6.8c-1.4,4.6-2.9,9.5-4.2,14.4-.7,2.4-1.2,5-1.9,7.4s-1.1,5-1.7,7.5c-1.1,5.1-2.2,10.1-3.2,15.2-.9,5.1-1.8,10-2.6,14.8s-1.5,9.4-2.1,13.9-1.1,8.7-1.6,12.4c-.9,7.7-1.6,14.2-2,18.7-.2,2.2-.3,4.1-.4,5.3s-.1,1.8-.1,1.8h0a1.649,1.649,0,0,1-1.7,1.5h-.1c-.6,4.2-2.2,16.4-4.7,31.9a17.957,17.957,0,0,0,1.2,9.2,1.588,1.588,0,0,1,2,.6h0l1,1.7a27.455,27.455,0,0,0,3.2,4.4l2.6,3c1,1,2.1,2.1,3.4,3.3,2.9,2.4,5.8,4.8,8.9,6.9l2.6,1.8,2.8,1.7c1.8,1.2,3.9,2.3,5.9,3.6,4.2,2.3,8.6,4.7,13.3,6.8,4.8,2.1,9.7,4.3,14.8,6.2,2.5.9,5.1,1.9,7.7,2.8l3.9,1.2c1.3.4,2.8.8,4.1,1.2a143.751,143.751,0,0,0,16.1,3.4c5.4.8,10.7,1.4,15.9,1.7s10.2.3,15,.2a129.073,129.073,0,0,0,13.3-1,103.149,103.149,0,0,0,11.1-2,54.66,54.66,0,0,0,8.1-2.6c1.6-.7,3.3-1.5,4.9-2.4,1-.7,1.5-1.1,1.5-1.1h0a1.248,1.248,0,0,1,1.7.2,12.658,12.658,0,0,0,3.8-6.1c3.2-14.6,4.1-50.5,7.5-72.6a1.64,1.64,0,0,1-1.1-.7l-.7-1c-.4-.6-1-1.6-1.7-2.9a48.966,48.966,0,0,1-2.3-4.6c-.8-1.8-1.7-3.9-2.5-6.1s-1.6-4.8-2.4-7.5a74.062,74.062,0,0,1-1.9-8.7,92.744,92.744,0,0,1-1.2-9.4c-.1-1.6-.2-3.3-.3-4.9l-.1-2.4v-2.4c0-3.3.3-6.5.6-9.7a90.226,90.226,0,0,1,1.5-9.3c.6-3,1.3-5.9,2.1-8.6.2-.7.4-1.3.6-1.9l.6-1.9c.4-1.2.8-2.4,1.3-3.6.9-2.2,1.7-4.3,2.5-6.1s1.5-3.4,2.2-4.6c1.3-2.4,2.1-3.9,2.1-3.9a1.31,1.31,0,0,1,1.7-.5,1.336,1.336,0,0,1,.6,1.5h0s-.5,1.5-1.5,4.1c-.5,1.2-1,2.9-1.6,4.7s-1.2,3.9-1.9,6.1q-.45,1.65-.9,3.6l-.5,1.8c-.1.6-.3,1.3-.4,1.9-.6,2.5-1.1,5.4-1.6,8.2-.2,1.4-.5,2.9-.6,4.4s-.4,3-.5,4.5c-.3,3.1-.4,6.1-.4,9.2v2.3l.1,2.3c0,1.5.1,3.1.2,4.6s.3,3.1.4,4.5.3,3,.5,4.4c.4,2.9.9,5.6,1.5,8.3.6,2.6,1.2,5.1,1.8,7.3a83.886,83.886,0,0,0,3.8,10.6c.5,1.2.9,2.2,1.2,2.9a6.908,6.908,0,0,0,.5,1v.1a1.588,1.588,0,0,1-.6,2l1.2,2.1a90.842,90.842,0,0,0,48.7,39.6,86.676,86.676,0,0,0,33.1,4.4,96.377,96.377,0,0,0,32.1-7.9c20.8-9.2,37.5-25.5,50.5-43.7,17.8-25,27.6-56.7,27.6-56.7s-11-10.4-23.8-14.8C338.429,307.275,323.729,309.375,323.329,309.175Zm31.7,11.4c.9.5,1.8,1.1,2.8,1.7.4.3.9.6,1.3.9l1.2,1a32.039,32.039,0,0,1,8,9.9,1.714,1.714,0,0,1-2.5,2.2l-.1-.1c-3.3-2.2-6.1-4.6-9.4-6.3l-1.2-.7-1.2-.6-2.4-1.2a44.45,44.45,0,0,0-5.1-1.9,97.738,97.738,0,0,0-10.6-2.9c-.9-.1-1.8-.3-2.8-.5a23.58,23.58,0,0,0-2.8-.4c-1.8-.3-3.8-.5-5.6-.7h-.2a2.117,2.117,0,0,1-1.8-2.4,2.216,2.216,0,0,1,1.4-1.7,27.147,27.147,0,0,1,6.3-1.3c1-.1,2.1-.2,3.2-.2h3.2a39.757,39.757,0,0,1,12.4,2.6l1.5.6,1.5.6C353.129,319.675,354.029,320.075,355.029,320.575Z" fill="#f04e23"/><path d="M233.229,105.975c3.3-11.8,6.9-23.9,16.7-26.9s18.7,5.3,16.2,12.7-8.8,14.4-12.5,20.4c-3.8,6,11.4,13.2,14.2,8.8,12.5-22,30.9-42.2,46.9-36.9a30.283,30.283,0,0,1,19.5,19.9h0v.1a154.459,154.459,0,0,0-10.6,12.4c36.4-11.9,40.5-41.9,32.2-65.1l14.6-.6c-7.1-14.4-24.5-22.3-24.5-22.3l10.7-9.9c-5.6-4-47.1-24.5-99.1-16.9l.1.1a64.275,64.275,0,0,0-14.1,3.9c-46.3,18.2-80.2,97.3-78.7,106.5a22.814,22.814,0,0,0,1.7,5.8c3.8,8.4,13.2,17.3,29.5,16C216.129,132.375,229.929,117.775,233.229,105.975Z" fill="#10294c"/><path d="M191.029,208.775l5.8-7.7s7.4,5.6,26.5,13.4,35.6.9,46.3-22.7c0,0,1.5,6.8,8.6,8.1,7,1.3,12.9-7.2,8.8-14.6,0,0,8.7,2.3,12.6-3.1,4-5.4,3-12.2-3.3-13a20.428,20.428,0,0,1-10.4-4.6s22.5-29.7,37.2-47.9l.2-.3c4.8-5.9,8.7-10.5,10.6-12.4v-.1a30.28,30.28,0,0,0-19.5-19.9c-16-5.3-34.3,14.9-46.9,36.9-2.8,4.4-17.8-2.8-14.2-8.8,3.7-6,10-12.9,12.5-20.4,2.5-7.4-6.5-15.8-16.2-12.7s-13.4,15.1-16.7,26.9-17.1,26.4-37.3,28c-16.3,1.3-25.7-7.6-29.5-16l-.3.1c-10.7,20.3-27.3,53.3-28.4,55.5a223.93,223.93,0,0,1,24,14.4C172.329,194.975,182.129,201.875,191.029,208.775Z" fill="#ffb400"/><path d="M167.429,467.175h0s-.6.4-1.6,1.1a37.129,37.129,0,0,1-4.9,2.4,47.708,47.708,0,0,1-8.1,2.6,103.149,103.149,0,0,1-11.1,2c-4.1.5-8.6.9-13.3,1-4.8.1-9.8.1-15-.2s-10.5-.9-15.9-1.7a128.054,128.054,0,0,1-16.1-3.4c-1.3-.3-2.6-.8-4.1-1.2l-3.9-1.2c-2.6-.8-5.2-1.8-7.7-2.8-5.1-2-10.1-4-14.8-6.2s-9.2-4.5-13.3-6.8c-2-1.2-4.1-2.3-5.9-3.6l-2.9-1.7-2.6-1.8c-3.1-2.1-6-4.5-8.9-6.9-1.2-1.1-2.3-2.2-3.4-3.3l-2.6-3c-1.1-1.4-2.2-2.9-3.2-4.4l-1-1.7h0a1.489,1.489,0,0,0-2-.6h-.2a1.528,1.528,0,0,0-.7,2.1l.9,1.8c.1.2.2.5.3.7a29.608,29.608,0,0,0,2.8,4.4c.8,1,1.6,2.1,2.6,3.4,1,1.2,2.1,2.3,3.4,3.7l1.9,1.9c.7.6,1.3,1.3,2.1,1.9,1.5,1.3,3.1,2.6,4.8,4l2.6,2,2.9,1.9c1.9,1.3,4,2.5,6,3.9,2,1.3,4.3,2.5,6.5,3.8,2.2,1.2,4.6,2.4,7,3.6,4.8,2.3,9.9,4.6,15.2,6.6,2.6.9,5.3,2,8,2.9l4.1,1.3c1.3.4,2.6.8,4.1,1.2a161.211,161.211,0,0,0,16.8,3.4c5.5.7,11,1.2,16.5,1.4a133.66,133.66,0,0,0,15.5-.3,129.953,129.953,0,0,0,13.8-1.7,78.615,78.615,0,0,0,20-6.2,27.229,27.229,0,0,0,5.1-3.2l.7-.6c.6-.5.9-.8.9-.8a1.248,1.248,0,0,0,.2-1.7.1.1,0,0,1-.1-.1A1.427,1.427,0,0,0,167.429,467.175Z" fill="#10294c"/><path d="M10.629,383.375h0a12.252,12.252,0,0,0,.1-1.8c0-1.2.2-3,.4-5.3.4-4.6,1.1-11,2-18.7.5-3.9,1-8,1.6-12.4s1.3-9.1,2.1-13.9,1.6-9.8,2.6-14.8,2-10.1,3.2-15.2c.6-2.5,1.1-5.1,1.7-7.5s1.2-5,1.9-7.4c1.3-4.9,2.6-9.8,4.2-14.4.7-2.3,1.4-4.6,2.2-6.8s1.4-4.4,2.2-6.4c1.5-4.2,3.1-8,4.6-11.6l2.2-5.1,2.1-4.6c.6-1.4,1.3-2.8,1.9-4l1.7-3.4,3.5-6.2h0a1.282,1.282,0,0,0-.5-1.7,1.388,1.388,0,0,0-1.7.4l-1.1,1.5q-1.05,1.5-3,4.5l-2,3.3c-.7,1.2-1.5,2.4-2.2,3.9l-2.4,4.5c-.8,1.6-1.6,3.3-2.5,5.1-1.7,3.6-3.6,7.4-5.2,11.7-.9,2-1.7,4.3-2.5,6.5s-1.6,4.5-2.4,6.8c-1.6,4.7-3.2,9.6-4.5,14.6-.7,2.4-1.3,5-2,7.5s-1.2,5.1-1.8,7.6c-1.1,5.1-2.2,10.3-3.2,15.4q-1.35,7.65-2.4,15c-.3,2.4-.7,4.9-.9,7.2-.3,2.3-.6,4.7-.8,6.9-.5,4.5-.8,8.8-1.1,12.6-.3,3.9-.5,7.5-.6,10.7s-.2,6-.2,8.3v7.3a1.52,1.52,0,0,0,1.4,1.5h.1c.4.1,1.2-.5,1.3-1.6Z" fill="#10294c"/><path d="M182.129,386.375h0a3.413,3.413,0,0,0-.5-1.1,23.51,23.51,0,0,1-1.2-2.9c-1.4-3.5-2.6-7-3.7-10.6-.6-2.2-1.2-4.7-1.8-7.3s-1.1-5.4-1.5-8.2c-.2-1.4-.4-2.9-.5-4.4s-.3-3-.4-4.5-.2-3.1-.2-4.6l-.1-2.3v-2.3c0-3.1.2-6.2.4-9.2.1-1.5.3-3.1.5-4.5s.4-3,.6-4.4c.5-2.9,1-5.6,1.6-8.3.1-.6.3-1.3.4-1.9l.5-1.8.9-3.6c.7-2.2,1.2-4.3,1.9-6.1s1.1-3.4,1.6-4.7c1-2.5,1.5-4.1,1.5-4.1h0a1.179,1.179,0,0,0-.6-1.5,1.282,1.282,0,0,0-1.7.5s-.8,1.4-2.1,3.9c-.7,1.2-1.4,2.8-2.2,4.6s-1.6,3.9-2.5,6.1c-.4,1.1-.8,2.3-1.3,3.6l-.6,1.9c-.2.6-.4,1.3-.6,1.9a83.432,83.432,0,0,0-2.1,8.6c-.6,3.1-1.1,6.1-1.5,9.3a77.731,77.731,0,0,0-.6,9.7v2.4l.1,2.4c0,1.6.2,3.3.3,4.9a92.744,92.744,0,0,0,1.2,9.4c.5,3.1,1.2,5.9,1.9,8.7a60.255,60.255,0,0,0,2.4,7.5c.9,2.3,1.7,4.4,2.5,6.1s1.6,3.4,2.3,4.6,1.3,2.2,1.7,2.9l.7,1a1.9,1.9,0,0,0,1.1.7,1.412,1.412,0,0,0,.9-.1.1.1,0,0,0,.1-.1A1.633,1.633,0,0,0,182.129,386.375Z" fill="#10294c"/><path d="M349.129,317.975a45,45,0,0,0-12.4-2.6c-1,0-2.1-.1-3.2,0-1,.1-2.1.1-3.2.2a27.147,27.147,0,0,0-6.3,1.3,2.189,2.189,0,0,0-1.3,2.8,2.216,2.216,0,0,0,1.7,1.4h.2c1.8.3,3.8.4,5.6.7.9.1,1.8.3,2.8.4.9.1,1.8.3,2.8.5a66.639,66.639,0,0,1,10.6,2.9c1.7.5,3.4,1.3,5.1,1.9l2.4,1.2,1.2.6,1.2.7c3.3,1.7,6.1,4,9.4,6.3l.1.1a1.747,1.747,0,0,0,2.4-.4,1.669,1.669,0,0,0,.1-1.8,33.243,33.243,0,0,0-8-9.9l-1.2-1c-.4-.3-.9-.6-1.3-.9a33.822,33.822,0,0,0-5.7-3.1,9.385,9.385,0,0,0-1.5-.6Z" fill="#ffb400"/><path d="M244.329,347.275h0a1.534,1.534,0,0,0-1.9-1.3,1.594,1.594,0,0,0-1.3,1.4l-.1.6c0,.4-.1.9-.1,1.7a29.2,29.2,0,0,0,.3,5.9c.1,1.3.4,2.6.6,3.9.3,1.4.7,2.9,1.1,4.3.5,1.5,1,3.1,1.6,4.5a36.117,36.117,0,0,0,2.2,4.4c.4.7.9,1.4,1.3,2.1a24.258,24.258,0,0,0,1.4,2c1,1.3,2,2.4,3.2,3.7a25.6,25.6,0,0,0,3.4,3.1c.6.4,1.1.9,1.6,1.2l1.6,1a14.593,14.593,0,0,0,3,1.6,26.722,26.722,0,0,0,4.4,1.7,1.275,1.275,0,0,0,1.2-2.2h-.1s-.6-.5-1.6-1.2q-.75-.6-1.8-1.5c-.7-.6-1.5-1.2-2.3-2l-1.2-1.2-1.3-1.3c-.9-.9-1.7-1.9-2.6-3a29.854,29.854,0,0,1-2.5-3.4,33.23,33.23,0,0,1-2.3-3.7c-.5-1-1-1.9-1.5-3a4.053,4.053,0,0,0-.5-.9c-.6-1.3-1.2-2.6-1.7-3.9s-.9-2.5-1.3-3.8c-.4-1.2-.7-2.3-1-3.5-.4-1.3-.6-2.4-.9-3.5-.2-.7-.3-1.3-.4-1.8C244.529,347.975,244.329,347.275,244.329,347.275Z" fill="#10294c"/><path d="M64.129,723.775h0l.6.4c.5.3.9.7,1.4,1a6.885,6.885,0,0,1,1.3,1.1l.6.6.6.6.6.6c.2.2.3.4.5.6a14.629,14.629,0,0,1,.9,1.3l.4.6.3.6c.2.4.5.8.6,1.1a7.93,7.93,0,0,0,.4.9,4.559,4.559,0,0,1,.4.8l.1.2a1.555,1.555,0,0,0,.8.6,1.224,1.224,0,0,0,1.4-1h0a4.536,4.536,0,0,0,.1-1c0-.3.1-.8.1-1.2,0-.5-.1-1.1-.1-1.6,0-.3-.1-.6-.1-.9a5.388,5.388,0,0,0-.3-1,11.919,11.919,0,0,0-.8-2,8.577,8.577,0,0,0-1.3-2,7.006,7.006,0,0,0-.8-1l-.2-.2-.7-.7a6.47,6.47,0,0,0-.9-.8,8.65,8.65,0,0,0-1-.7,12.81,12.81,0,0,0-2-1.1,11.919,11.919,0,0,0-2-.8,9.363,9.363,0,0,0-1.6-.4c.1,1.4.2,2.9.3,4.3a3.75,3.75,0,0,0,.1,1.1Z" fill="#fff"/><path d="M77.029,723.975a13.444,13.444,0,0,1,1.4,1.1,7.41,7.41,0,0,1,1.3,1.2l.6.6a2.651,2.651,0,0,1,.5.6c.1.2.4.4.5.6a3.039,3.039,0,0,0,.5.7c.3.4.6.9.9,1.3.1.2.3.4.4.6l.3.6.6,1.2a6.9,6.9,0,0,1,.4,1,4.768,4.768,0,0,0,.4.8l.1.2a1.165,1.165,0,0,0,1.6.5,1.242,1.242,0,0,0,.6-.8s.1-.4.2-1c0-.3.1-.8.1-1.2a8.6,8.6,0,0,0-.1-1.6l-.1-.9c0-.3-.2-.6-.2-1a17.233,17.233,0,0,0-.7-2.1,16.179,16.179,0,0,0-1-1.8c-.1-.1-.1-.2-.2-.3-.2-.3-.5-.7-.7-1l-.8-.9a6.47,6.47,0,0,0-.9-.8l-.7-.6h0l-.2-.2-.1-.1v.2a.864.864,0,0,0-.6-.3h0v-.2a5.979,5.979,0,0,0-5.8-.1h0c-.1.1-.3.1-.4.2h0a2.836,2.836,0,0,0-1,.9h0a2.2,2.2,0,0,0-.6,1.5h.3l2.3.2C76.129,723.475,76.529,723.675,77.029,723.975Z" fill="#fff"/><path d="M76.929,508.875s-.4-.3-1-.7a21.881,21.881,0,0,0-2.9-1.6c-1.2-.6-2.6-1.3-4.2-2l-2.4-.9a18.285,18.285,0,0,0-2.5-.8c-1.7-.5-3.5-1-5.1-1.4a28.625,28.625,0,0,0-4.5-.8,35.761,35.761,0,0,0-4.5-.4,1.561,1.561,0,0,0-1.3.8,1.634,1.634,0,0,0,.5,2.3h0s.4.2,1.1.6a22.035,22.035,0,0,0,3,1.4c1.2.5,2.6,1.1,4.2,1.7,1.5.6,3.3,1.1,4.9,1.6s3.5.9,5,1.3,3.2.7,4.5,1l1.6.3a11.548,11.548,0,0,0,1.6.2,2.663,2.663,0,0,1,1.2.3h.1a1.389,1.389,0,0,0,1-.5l.1-.2A2.014,2.014,0,0,0,76.929,508.875Z" fill="#10294c"/><path d="M17.029,689.675h0l-.2-.1c-.1-.1-.3-.1-.4-.2h-.2l-.1-.1-.2-.3h0a1.579,1.579,0,0,0-2.2-.3,1.723,1.723,0,0,0-.6,1.8l.1.3c0,.1,0,.1.1.2l.1.3a1,1,0,0,0,.4.5,2.336,2.336,0,0,0,.7.7l.3.3c.1.1.3.2.4.3a1.9,1.9,0,1,0,1.9-3.3.1.1,0,0,1-.1-.1Z" fill="#10294c"/><path d="M28.429,691.175s-.9-.1-1.8-.1l-1.8-.1h0a2.977,2.977,0,0,0-2.8,2.3,2.784,2.784,0,0,0,2.2,3.1l1.8.3,1.8.2h.2a2.923,2.923,0,0,0,3.1-2.8,2.734,2.734,0,0,0-2.7-2.9Z" fill="#10294c"/><path d="M40.629,690.975h-3.6a3.033,3.033,0,0,0-2.9,3.2v.1a3.115,3.115,0,0,0,3.2,3l1.8-.1,1.8-.1a3.185,3.185,0,0,0,3-3.2,3.064,3.064,0,0,0-3.3-2.9Z" fill="#10294c"/><path d="M52.829,689.875h0l-3.6.5-.3.1a2.737,2.737,0,0,0-1.8,3.4,2.769,2.769,0,0,0,3.3,1.9h0l3.5-.9a2.574,2.574,0,0,0,1.8-3.1A2.62,2.62,0,0,0,52.829,689.875Z" fill="#10294c"/><path d="M61.929,686.575l-.4.5-.1.1-.1.1-.1.1-.1.1-.2.2-.2.2-.3.3a1.57,1.57,0,1,0,2.5,1.9h0l.2-.2.2-.3c.1-.2.2-.3.3-.5s.2-.3.2-.5a.749.749,0,0,0,.1-.5l.1-.5a1.235,1.235,0,0,0-.9-1.4.962.962,0,0,0-1.2.4Z" fill="#10294c"/><path d="M116.229,731.475h0l-.2-.1c-.1-.1-.2-.1-.4-.2s0,0-.1,0h0l-.1-.1-.2-.3h0a1.579,1.579,0,0,0-2.2-.3,1.723,1.723,0,0,0-.6,1.8l.1.3c0,.1,0,.1.1.2l.2.3a1,1,0,0,0,.4.5,2.336,2.336,0,0,0,.7.7l.3.3c.1.1.3.2.4.3a1.824,1.824,0,0,0,2.5-.8,2.073,2.073,0,0,0-.9-2.6Z" fill="#10294c"/><path d="M127.629,732.975l-1.8-.1-1.8-.1h0a2.87,2.87,0,0,0-2.8,2.3,2.7,2.7,0,0,0,2.2,3.1l1.8.3,1.8.2h.2a2.858,2.858,0,1,0,.4-5.7Z" fill="#10294c"/><path d="M139.829,732.775h-3.6a3.033,3.033,0,0,0-2.9,3.2v.1a3,3,0,0,0,3.2,3h.1l1.8-.1,1.8-.1a3.185,3.185,0,0,0,3-3.2,3.134,3.134,0,0,0-3.4-2.9Z" fill="#10294c"/><path d="M152.029,731.775h0l-3.6.4h-.3a2.754,2.754,0,0,0,1.5,5.3h0l3.6-.9a2.414,2.414,0,0,0,1.8-2.8A2.916,2.916,0,0,0,152.029,731.775Z" fill="#10294c"/><path d="M161.129,728.175l-.4.5-.1.1-.1.1-.1.1-.1.1s-.2.1-.2.2l-.2.2a1.57,1.57,0,0,0,1.9,2.5l.3-.3h0l.2-.2.2-.3.3-.5c.1-.2.2-.3.2-.5a.9.9,0,0,0,.1-.5l.1-.5a1.11,1.11,0,0,0-.4-1.1,1.238,1.238,0,0,0-1.7.1Z" fill="#10294c"/><path d="M52.829,517.275a1.666,1.666,0,0,0,1.7-1.6h0v-2a1.456,1.456,0,0,0-1.3-1.6,1.553,1.553,0,0,0-1.7,1.3h0l-.3,2h0v.1A1.759,1.759,0,0,0,52.829,517.275Z" fill="#10294c"/><path d="M52.029,531.575a2.135,2.135,0,0,0,2.2-2.1h0l.1-4a2,2,0,1,0-4-.2h0l-.3,4v.1A2,2,0,0,0,52.029,531.575Z" fill="#10294c"/><path d="M51.529,545.975a2.628,2.628,0,0,0,2.6-2.5v-4a2.457,2.457,0,0,0-4.9-.2l-.2,4v.1a2.385,2.385,0,0,0,2.5,2.6Z" fill="#10294c"/><path d="M51.229,560.175a2.881,2.881,0,0,0,2.9-2.8h0v-4a2.656,2.656,0,0,0-2.9-2.6,2.7,2.7,0,0,0-2.6,2.5l-.1,4v.1a2.6,2.6,0,0,0,2.7,2.8Z" fill="#10294c"/><path d="M48.429,571.275a2.8,2.8,0,0,0,5.6,0h0v-4a2.9,2.9,0,0,0-5.8,0h0l.2,4Z" fill="#10294c"/><path d="M48.429,585.175a2.807,2.807,0,0,0,5.6.4v-4.3a2.954,2.954,0,1,0-5.9-.3v.3l.3,3.9Z" fill="#10294c"/><path d="M51.429,602.075a3.052,3.052,0,0,0,3.1-3.1l.1-4h0a3.25,3.25,0,0,0-6.5.1l.1,4A2.994,2.994,0,0,0,51.429,602.075Z" fill="#10294c"/><path d="M54.529,608.875a2.984,2.984,0,0,0-3.5-2.5,2.9,2.9,0,0,0-2.5,2.8l.1,4a3.02,3.02,0,0,0,3.2,2.8,2.951,2.951,0,0,0,2.8-2.9l-.1-4.2Z" fill="#10294c"/><path d="M51.729,620.175a3.045,3.045,0,0,0-2.8,3l.2,4a2.826,2.826,0,0,0,3.1,2.5,2.746,2.746,0,0,0,2.5-2.8l-.1-4v-.1A2.6,2.6,0,0,0,51.729,620.175Z" fill="#10294c"/><path d="M52.329,634.275a2.63,2.63,0,0,0-2.4,2.9h0l.3,4a2.558,2.558,0,0,0,3,2.1,2.454,2.454,0,0,0,2.1-2.3l-.1-4v-.1A2.83,2.83,0,0,0,52.329,634.275Z" fill="#10294c"/><path d="M55.629,654.775l-.1-4v-.1a2.3,2.3,0,1,0-4.6.2v.2l.3,4a2.23,2.23,0,0,0,2.4,2,2.349,2.349,0,0,0,2-2.3Z" fill="#10294c"/><path d="M54.129,670.575a1.71,1.71,0,0,0,1.7-1.8h0l-.1-4v-.1a1.83,1.83,0,0,0-2.1-1.6,1.96,1.96,0,0,0-1.7,2l.4,4A1.921,1.921,0,0,0,54.129,670.575Z" fill="#10294c"/><path d="M56.229,678.575a1.456,1.456,0,0,0-1.6-1.2,1.508,1.508,0,0,0-1.2,1.5l.2,2a1.221,1.221,0,0,0,1.3,1.1,1.181,1.181,0,0,0,1.2-1.3h0l.1-2.1Z" fill="#10294c"/><path d="M153.129,488.475a1.666,1.666,0,0,0,1.7-1.6h0v-2a1.58,1.58,0,0,0-1.6-1.6,1.617,1.617,0,0,0-1.6,1.4l-.2,2v.1A1.752,1.752,0,0,0,153.129,488.475Z" fill="#10294c"/><path d="M152.429,502.775a1.923,1.923,0,0,0,2-1.9v-.1l.1-4a1.907,1.907,0,0,0-1.8-2,1.973,1.973,0,0,0-2,1.8h0l-.3,4v.1a2.027,2.027,0,0,0,2,2.1Z" fill="#10294c"/><path d="M151.829,517.175a2.414,2.414,0,0,0,2.4-2.3h0l.1-4a2.2,2.2,0,1,0-4.4-.2l-.2,4v.1A2.126,2.126,0,0,0,151.829,517.175Z" fill="#10294c"/><path d="M151.329,531.275a2.562,2.562,0,0,0,2.6-2.5h0l.1-4a2.5,2.5,0,0,0-5-.2l-.2,4v.1a2.5,2.5,0,0,0,2.5,2.6Z" fill="#10294c"/><path d="M150.929,545.475a2.948,2.948,0,0,0,2.9-2.8l.1-4a2.572,2.572,0,0,0-2.8-2.6,2.628,2.628,0,0,0-2.6,2.5l-.2,4v.1a2.63,2.63,0,0,0,2.6,2.8Z" fill="#10294c"/><path d="M150.329,559.475a3.094,3.094,0,0,0,3.2-2.9l.1-4a3.029,3.029,0,0,0-3-3.1,2.97,2.97,0,0,0-3.1,3h0l-.3,4h0A3.163,3.163,0,0,0,150.329,559.475Z" fill="#10294c"/><path d="M150.229,573.675a3.1,3.1,0,0,0,3.1-3v-4a3,3,0,0,0-6-.1l-.1,4h0A3.166,3.166,0,0,0,150.229,573.675Z" fill="#10294c"/><path d="M147.229,584.575a3.007,3.007,0,1,0,6,.4v-4.3a3.007,3.007,0,0,0-6-.4v4.3Z" fill="#10294c"/><path d="M147.229,598.575a2.986,2.986,0,0,0,2.6,3.2,2.913,2.913,0,0,0,3.2-2.6v-4.5a3.007,3.007,0,0,0-6-.4v.3l.2,4Z" fill="#10294c"/><path d="M150.029,615.675a3.185,3.185,0,0,0,3.2-3l.2-4h0a3.191,3.191,0,0,0-3.5-3,3.226,3.226,0,0,0-3,3v4A3.1,3.1,0,0,0,150.029,615.675Z" fill="#10294c"/><path d="M153.329,622.575a3.233,3.233,0,0,0-3.4-3,3.166,3.166,0,0,0-3,3.1l.1,4a3.166,3.166,0,0,0,3.1,3,3.1,3.1,0,0,0,3.1-3l.1-4.1Z" fill="#10294c"/><path d="M153.329,636.475a3.138,3.138,0,0,0-3.2-3.1,3.077,3.077,0,0,0-3.1,3.2l.1,4a3,3,0,0,0,6-.1l.2-4Z" fill="#10294c"/><path d="M153.329,650.475h0a2.884,2.884,0,0,0-3.3-2.6,2.993,2.993,0,0,0-2.6,2.8l.1,4a2.784,2.784,0,0,0,2.9,2.6,2.734,2.734,0,0,0,2.8-2.8Z" fill="#10294c"/><path d="M150.429,661.975a2.475,2.475,0,0,0-2.4,2.6l.2,4a2.419,2.419,0,0,0,2.6,2.4,2.475,2.475,0,0,0,2.4-2.6v-4.1a2.652,2.652,0,0,0-2.8-2.3Z" fill="#10294c"/><path d="M153.329,678.375a2.355,2.355,0,1,0-4.7.3l.2,4a2.305,2.305,0,0,0,4.6-.1l-.1-4.2Z" fill="#10294c"/><path d="M153.829,696.375l-.1-4v-.1a2.177,2.177,0,0,0-2.3-1.8,2.072,2.072,0,0,0-1.8,2.1l.3,4a1.964,1.964,0,0,0,3.9-.2Z" fill="#10294c"/><path d="M152.529,712.075a1.666,1.666,0,0,0,1.6-1.7h0l-.1-4v-.1a1.756,1.756,0,1,0-3.5.3h0l.3,4A1.649,1.649,0,0,0,152.529,712.075Z" fill="#10294c"/><path d="M151.929,722.575a1.155,1.155,0,0,0,1.3,1.1,1.24,1.24,0,0,0,1.2-1.3h0l-.1-2v-.1a1.351,1.351,0,0,0-2.7.1v.2Z" fill="#10294c"/><path d="M13.829,461.075h.2c1.1-.5,2.2-1,3.5-1.5a2.167,2.167,0,0,0-.3-2.9,16.429,16.429,0,0,1-1.4-1.2,2.052,2.052,0,0,0-2.9,0,1.606,1.606,0,0,0-.5,1.1q-.15.9-.3,2.1a2.016,2.016,0,0,0,1.7,2.4Z" fill="#10294c"/><path d="M21.629,464.575c.9.5,1.8,1,3,1.6a2.92,2.92,0,0,0,.9.2,2.006,2.006,0,0,0,2-2,2.107,2.107,0,0,0-1.1-1.8c-1-.5-1.9-1-2.8-1.5a2.08,2.08,0,0,0-2.8.7,2.246,2.246,0,0,0,.8,2.8Z" fill="#10294c"/><path d="M32.029,469.675l.6.2v.6a2.005,2.005,0,0,0,1.9,2.1h.1a1.985,1.985,0,0,0,2-1.9l.1-2a2.121,2.121,0,0,0-1.2-1.9l-1.8-.8a2.08,2.08,0,0,0-1.9,3.7Z" fill="#10294c"/><path d="M34.429,475.775a2.005,2.005,0,0,0-2.1,1.9c-.1.9-.1,1.9-.2,2.9a2.005,2.005,0,0,0,1.9,2.1h.1a1.985,1.985,0,0,0,2-1.9c.1-1,.1-1.9.2-2.9a2.077,2.077,0,0,0-1.9-2.1Z" fill="#10294c"/><path d="M31.529,492.675a1.952,1.952,0,0,0,.7-.1l1.9-.7a1.937,1.937,0,0,0,1.3-1.7c.1-.6.1-1.3.2-2a2.026,2.026,0,0,0-1.9-2.2,1.89,1.89,0,0,0-2.1,1.9v.7l-.7.2a1.969,1.969,0,0,0-1.2,2.5,1.808,1.808,0,0,0,1.8,1.4Z" fill="#10294c"/><path d="M20.429,495.275a2.088,2.088,0,0,0,1.6.8,1.952,1.952,0,0,0,.7-.1l1.9-.7a1.969,1.969,0,0,0,1.2-2.5,2.04,2.04,0,0,0-2.6-1.2l-.5.2-.4-.5a2.147,2.147,0,0,0-2.9-.2,2.121,2.121,0,0,0-.3,2.8Z" fill="#10294c"/><path d="M108.329,488.575c-1.4-.1-2.1-.1-2.1-.1a2.034,2.034,0,0,0-2,1.7q-.15.9-.3,2.1a2.017,2.017,0,0,0,1.8,2.2h.2a2.046,2.046,0,0,0,2-1.8v-.1h.1a2.017,2.017,0,0,0,2.2-1.8,1.924,1.924,0,0,0-1.9-2.2Z" fill="#10294c"/><path d="M115.529,493.375l3.1.5h.3a2.01,2.01,0,0,0,.4-4c-1.1-.2-2.1-.3-3.1-.5a2,2,0,1,0-.9,3.9c.1,0,.1,0,.2.1Z" fill="#10294c"/><path d="M125.929,495.275l.3.1v.3a2.077,2.077,0,0,0,1.9,2.1h.1a1.923,1.923,0,0,0,2-1.9l.1-2a1.948,1.948,0,0,0-1.6-2l-2-.4a2.1,2.1,0,0,0-2.4,1.6,1.9,1.9,0,0,0,1.6,2.2Z" fill="#10294c"/><path d="M128.029,502.375a2.005,2.005,0,0,0-2.1,1.9h0c0,1.1-.1,2.3-.2,3.5a2.005,2.005,0,0,0,1.9,2.1h.1a1.923,1.923,0,0,0,2-1.9c0-1.2.1-2.3.1-3.5A1.863,1.863,0,0,0,128.029,502.375Z" fill="#10294c"/><path d="M125.229,521.375a1.268,1.268,0,0,0,.6-.1l1.9-.6a1.927,1.927,0,0,0,1.4-1.7c.1-.6.1-1.3.2-2a2.005,2.005,0,0,0-1.9-2.1,1.872,1.872,0,0,0-2.1,1.8h0v.6l-.6.2a2,2,0,0,0-1.4,2.5,1.95,1.95,0,0,0,1.9,1.4Z" fill="#10294c"/><path d="M113.829,524.775a1.268,1.268,0,0,0,.6-.1l1.9-.6a1.992,1.992,0,1,0-1.2-3.8l-.8.2-.6-.6a2.052,2.052,0,0,0-3,2.8l.1.1,1.4,1.4A2.9,2.9,0,0,0,113.829,524.775Z" fill="#10294c"/><path d="M107.129,513.475v-1.1a2.006,2.006,0,0,0-2-2h0a2.006,2.006,0,0,0-2,2v2a1.816,1.816,0,0,0,.6,1.4l1.5,1.4a2.052,2.052,0,0,0,2.8-3h0Z" fill="#10294c"/><path d="M105.229,506.075h0a2.006,2.006,0,0,0,2-2c0-1.1.1-2.2.1-3.3a2.077,2.077,0,0,0-1.9-2.1,2.005,2.005,0,0,0-2.1,1.9h0c0,1.1-.1,2.2-.1,3.4a1.916,1.916,0,0,0,2,2.1Z" fill="#10294c"/><path d="M335.529,172.175a14.769,14.769,0,0,1,4.5,4.8,18.915,18.915,0,0,1,1.6,6.2,62.323,62.323,0,0,1-.5,12.2c-.5,4-1,7.8-1.6,11.7s-1.2,7.7-1.8,11.7h0a1.146,1.146,0,0,1-1.3,1,1.108,1.108,0,0,1-1-1.2c.1-4,.2-7.9.6-11.9s.8-7.8,1.3-11.7a87.682,87.682,0,0,0,.8-11.5,19,19,0,0,0-.9-5.3,10.517,10.517,0,0,0-3-4.3h0a1,1,0,0,1,0-1.5C334.329,171.975,334.929,171.875,335.529,172.175Z" fill="#f04e23"/><path d="M317.529,189.975a13.229,13.229,0,0,1,4.7,4.7,16.962,16.962,0,0,1,1.8,6.3,56.088,56.088,0,0,1-.4,12.3c-.5,4-1,7.9-1.6,11.9s-1.2,7.8-1.8,11.8h0a1.146,1.146,0,0,1-1.3,1,1.108,1.108,0,0,1-1-1.2c.1-4.1.3-8,.7-12s.9-7.9,1.3-11.9a90.441,90.441,0,0,0,.8-11.6,17.772,17.772,0,0,0-1-5.2,9.426,9.426,0,0,0-3.3-4.1h-.1a1.215,1.215,0,0,1-.1-1.6,1.011,1.011,0,0,1,1.3-.4Z" fill="#f04e23"/><path d="M377.129,260.775a22.768,22.768,0,0,0-8.9,2.1,19.93,19.93,0,0,0-7,5.5,26.667,26.667,0,0,0-4.4,7.9,35.725,35.725,0,0,0-1.8,9.2h0a1.2,1.2,0,0,1-2.4,0,26.067,26.067,0,0,1,.7-10.4,24.42,24.42,0,0,1,4.8-9.5,20.178,20.178,0,0,1,8.7-6.3,20.854,20.854,0,0,1,10.5-1.1,1.2,1.2,0,0,1,1,1.3,1.391,1.391,0,0,1-1.2,1.3Z" fill="#f04e23"/><path d="M425.329,221.375c-5.2-3.8-13.2,3-5.9,9S428.929,223.875,425.329,221.375Z" fill="#f04e23"/><path d="M414.229,243.475c-.1-.2-.1-.4-.2-.6s-.2-.5-.3-.7l-.9-1.2a3.126,3.126,0,0,0-1.1-.9l-1.2-.6a2.92,2.92,0,0,0-.9-.2h-.6l-.3.1a1.268,1.268,0,0,0-.8,1.6l.1.4a2.994,2.994,0,0,0,.4.8,6.549,6.549,0,0,0,1.5,1.8,5.5,5.5,0,0,0,.9.7l.4.3a.758.758,0,0,0,.4.2l.4.2a.367.367,0,0,0,.3.1l.3.1.3.1c.1,0,.1.1.2.1a.991.991,0,0,0,1.1-.8v-.9C414.329,243.875,414.229,243.675,414.229,243.475Z" fill="#f04e23"/><path d="M409.529,251.075a6.89,6.89,0,0,0-.3-.8,11.4,11.4,0,0,0-1-1.9,6.549,6.549,0,0,0-1.5-1.8,11.6,11.6,0,0,0-3.6-2.5,6.943,6.943,0,0,0-1.3-.5,1.268,1.268,0,0,0-.6-.1,1.128,1.128,0,0,0-.8.1,1.165,1.165,0,0,0-.5,1.6h0a8.277,8.277,0,0,0,1.1,1.5,19.029,19.029,0,0,0,2.8,2.9c1,.9,2.1,1.8,2.9,2.5l.5.4a.781.781,0,0,1,.4.4.781.781,0,0,0,.4.3l.1.1c.2.1.3.2.5.2a.9.9,0,0,0,.9-.9v-.6C409.629,251.475,409.629,251.275,409.529,251.075Z" fill="#f04e23"/><path d="M286.729,142.975c3.2,2.2,6.6,2.3,14.2-7.6s6-13.5,2.9-15.8c-3.2-2.2-6.8-2.6-14.2,7.6C282.129,137.575,283.529,140.675,286.729,142.975Z" fill="#10294c"/><path d="M297.429,108.975c.9.2,1.8.4,2.8.7.9.3,1.8.6,2.8.9a26.278,26.278,0,0,1,3,1.4c.5.3.9.5,1.4.8a6.233,6.233,0,0,1,1.2.9c.3.3.7.6,1,.9s.6.5.9.8l.7.7.5.6.4.5.1.1c.2.2.3.4.5.5a3.265,3.265,0,0,0,4.4-.5,3.166,3.166,0,0,0-.5-4.4l-.7-.6-.9-.5-1.1-.7c-.4-.3-.9-.5-1.4-.8a7.741,7.741,0,0,0-1.6-.7,18.949,18.949,0,0,0-3.6-1.1,32.867,32.867,0,0,0-3.6-.7,30.285,30.285,0,0,0-3.1-.2,16.045,16.045,0,0,0-3.1,0,.661.661,0,0,0-.6.7c-.1.3.2.6.5.7Z" fill="#10294c"/><path d="M179.829,190.775l1.2,1.8a29.774,29.774,0,0,0,4.6,4.8,18.6,18.6,0,0,0,2.8,2.1c.8.5,1.7,1,2.6,1.5.7.3,1.3.6,2,.9a2.353,2.353,0,0,0,.8.2,2.462,2.462,0,0,0,1.2-.1,1.709,1.709,0,0,0,.8-2.3,4.348,4.348,0,0,0-.4-.7,20.278,20.278,0,0,0-1.3-1.8,10.448,10.448,0,0,0-2.1-2.1c-.8-.7-1.6-1.5-2.5-2.2a39.368,39.368,0,0,0-5.5-3.5c-.7-.3-1.3-.6-2-.9-.5-.2-.8-.3-.8-.3h-.2a1.412,1.412,0,0,0-.9.1,1.356,1.356,0,0,0-.7,1.8h0A2.218,2.218,0,0,1,179.829,190.775Z" fill="#f04e23"/><path d="M245.629,100.875v.3a1.421,1.421,0,0,0,.2.6,2.128,2.128,0,0,0,2.8,1l.2-.1c.2-.1.3-.1.5-.2a7.837,7.837,0,0,0,1.5-1,15.055,15.055,0,0,0,3.5-4,13.442,13.442,0,0,0,1.2-2.4,8.561,8.561,0,0,0,.5-2.3,10.869,10.869,0,0,0,.1-1.8,1.7,1.7,0,0,0-.1-.7.764.764,0,0,0-.2-.5,2.713,2.713,0,0,0-3.6-1.4h0a2.092,2.092,0,0,0-.6.4,7.551,7.551,0,0,0-1.4,1.1,9.345,9.345,0,0,0-1.6,1.8,14.608,14.608,0,0,0-2.9,6.9,10.869,10.869,0,0,0-.1,1.8C245.529,100.475,245.629,100.675,245.629,100.875Z" fill="#f04e23"/><path d="M191.429,215.575h0c-6.3-2.9-12.4-5.9-18.4-9.2s-11.9-6.7-17.5-10.4-11.2-7.6-16.8-11.7c-2.8-2-5.5-4.1-8.1-6.1-1.3-1-2.6-2.1-3.9-3.2-.6-.5-1.2-1.1-1.8-1.6l-.8-.8-.4-.4c-.1-.1-.2-.3-.2-.2a2.154,2.154,0,1,0-4,1.6c.2.5.3.6.4.9a1.612,1.612,0,0,0,.4.7,12.75,12.75,0,0,0,.7,1.2,17.684,17.684,0,0,0,1.6,2.2,36.222,36.222,0,0,0,3.6,4.2,105.681,105.681,0,0,0,7.7,7.3,147.3,147.3,0,0,0,17,12.7,120.839,120.839,0,0,0,18.9,9.8,89.177,89.177,0,0,0,20.4,6.2,1.676,1.676,0,0,0,1.8-1,1.329,1.329,0,0,0-.6-2.2Z" fill="#ffb400"/><path d="M167.229,452.075h0a38.28,38.28,0,0,1-9.4,4.4,90.514,90.514,0,0,1-10.3,2.4,138,138,0,0,1-21.3,1.7,188.76,188.76,0,0,1-21.3-1.2,135.466,135.466,0,0,1-20.9-4.1,185.628,185.628,0,0,1-20.2-7,189.289,189.289,0,0,1-19.4-9.1l-2.3-1.2-2.3-1.3-2.3-1.3-2.2-1.4c-.7-.5-1.5-.9-2.2-1.4l-2.1-1.5a43.541,43.541,0,0,1-4.3-3.2c-5.6-4.3-10.7-9.2-14.2-15.1l-.1-.1a2.181,2.181,0,0,0-3.9,1.9,41.9,41.9,0,0,0,6.1,9.9c.6.8,1.2,1.4,1.8,2.1s1.2,1.4,1.9,2.1a37.8,37.8,0,0,0,4.1,3.9,116.783,116.783,0,0,0,18.3,13,162.226,162.226,0,0,0,20,10l5.3,2.2,5.2,1.9c3.6,1.2,7,2.4,10.7,3.4a145.3,145.3,0,0,0,44.5,4.5,120.047,120.047,0,0,0,22.2-3.2,58.913,58.913,0,0,0,10.7-3.7,48.134,48.134,0,0,0,5.1-2.5,26.079,26.079,0,0,0,4.7-3.5,1.72,1.72,0,0,0,.1-2.4,1.426,1.426,0,0,0-2-.2Z" fill="#ffb400"/><path d="M377.429,275.475a143.062,143.062,0,0,1,13.8-30l-34.4,42.2-76.9-42.1h-.4l1.8,14.8,35.2,19.3,40,21.9Z" fill="#10294c"/><path d="M288.129,19.675c-.7-.1-1.5-.2-2.2-.3l-1.2-.1h-3.7c-.8,0-1.7.1-2.5.1s-1.6.2-2.4.2a7.8,7.8,0,0,0-2.2.4,14.62,14.62,0,0,0-2,.5c-1,.2-2,.6-3,.9a3.385,3.385,0,0,0-.8.3l-.4.1a1.1,1.1,0,0,0-.6,1,1.028,1.028,0,0,0,1.1,1h1.1l1.2-.1a9.151,9.151,0,0,0,1.6-.1c1.2-.1,2.6-.1,4.2-.2a17.7,17.7,0,0,0,2.3-.1,19.269,19.269,0,0,1,2.4-.1l2.4-.1h6.2c2.4.1,4.1,0,4.1,0h.1a.754.754,0,0,0,.7-.5.809.809,0,0,0-.5-1.1,40.576,40.576,0,0,0-4.1-1.3A9.465,9.465,0,0,0,288.129,19.675Z" fill="#00acdc"/><path d="M305.329,29.675a7.6,7.6,0,0,0-1.1-.4c-.4-.1-.9-.2-1.3-.3a6.753,6.753,0,0,0-1.4-.2,7.569,7.569,0,0,0-1.5-.1c-1,0-1.9,0-3,.1a5.067,5.067,0,0,0-1.3.2,5.274,5.274,0,0,0-1.2.3,4.923,4.923,0,0,0-1.7.6l-.6.3h-.2a1.164,1.164,0,0,0,.4,2.1h0l.6.1c.4.1,1,.1,1.7.2a16.95,16.95,0,0,0,2.3.1h7.5a16.95,16.95,0,0,0,2.3-.1h.1a.9.9,0,0,0,.4-1.6h0A3.527,3.527,0,0,0,305.329,29.675Z" fill="#00acdc"/><path d="M318.529,14.975a7.719,7.719,0,0,0-1.5.2,4.875,4.875,0,0,0-1.1.4.758.758,0,0,0-.4.2l-.1.1a1.38,1.38,0,0,0-.3.4,1.165,1.165,0,0,0,.5,1.6h0l.4.2c.3.1.6.3.9.4a4.951,4.951,0,0,0,1.3.4,7.844,7.844,0,0,0,1.4.2c.2,0,.5.1.7.1h2a6.753,6.753,0,0,0,1.4-.2h.1c.1,0,.2-.1.3-.2a1.058,1.058,0,0,0,.2-1.4,4.263,4.263,0,0,0-1.2-1.1,3.694,3.694,0,0,0-1.4-.7,8.447,8.447,0,0,0-1.7-.5A5.349,5.349,0,0,0,318.529,14.975Z" fill="#00acdc"/><path d="M15.329,760.375a.367.367,0,0,0-.1-.3C15.229,760.275,15.229,760.375,15.329,760.375Z" fill="#10294c"/><path d="M15.029,758.975c-.1-1-.2-1.9-.3-3C14.929,756.975,14.929,758.075,15.029,758.975Z" fill="#10294c"/><path d="M13.429,474.275h0a2.03,2.03,0,0,0,2.1-2c0-1.2.1-2.5.1-3.8a2.077,2.077,0,0,0-1.9-2.1,2.005,2.005,0,0,0-2.1,1.9c0,1.3-.1,2.5-.1,3.8a1.924,1.924,0,0,0,1.9,2.2Z" fill="#10294c"/><path d="M14.929,486.975a2.45,2.45,0,0,0,1.2-.4,2.049,2.049,0,0,0,.3-2.9h0l-1.2-1.5v-.4a2.006,2.006,0,0,0-2-2h0a2.006,2.006,0,0,0-2,2v1.1a2.45,2.45,0,0,0,.4,1.2l1.6,2A2.235,2.235,0,0,0,14.929,486.975Z" fill="#10294c"/><path d="M447.229,176.975l-31.8,38.9a13.5,13.5,0,0,1,2.6-1.5,9.632,9.632,0,0,1,7.8.7l.2.1,18.9-23.4Z" fill="#10294c"/><path d="M343.229,175.375l-9.6,10.6-5.6,6.2-1.4,1.6-1.2,1.3-3.5,3.9-20.4,22.5-21.8,24.1,76.9,42.1,34.4-42.2a139.887,139.887,0,0,1,21.2-26.7,29.3,29.3,0,0,1,3.1-2.9l31.8-38.9-72.6-36.3-18.8,20.8-11.2,12.4Z" fill="#f04e23"/><path d="M361.229,268.275l66.8-82.5-56.2-28-70.3,77.8Z" fill="#00acdc"/><path d="M318.929,249.675l43.4,23.7,72.2-89-63.5-31.5-75.9,83.9Zm109.1-63.8-66.8,82.5-59.6-32.6,70.3-77.8Z" fill="#10294c"/><path d="M415.729,171.275a3.052,3.052,0,0,0,3.1-3.1,1.268,1.268,0,0,0-.1-.6,1.421,1.421,0,0,0-.2-.6,2.186,2.186,0,0,0-.3-.5,1.756,1.756,0,0,0-.4-.5,3.214,3.214,0,0,0-4.3,0,2.181,2.181,0,0,0-.4.5c-.1.2-.2.3-.3.5s-.1.4-.2.6c0,.2-.1.4-.1.6A3.34,3.34,0,0,0,415.729,171.275Z" fill="#10294c"/><path d="M394.929,160.175l9.7,4.8a2.92,2.92,0,0,0,.9.2,1.992,1.992,0,0,0,1.8-1.1,2.15,2.15,0,0,0-.9-2.8h0l-9.7-4.8a2.15,2.15,0,0,0-2.8.9,2.223,2.223,0,0,0,1,2.8Z" fill="#10294c"/></g></g>
        </g>
    </g>
</g>

<!-- ITEM 4 -->
<g>
    <defs>
        
        <clipPath id="clip-path-id-viewbox-item-4">
            <rect x="0.0" y="0.0" width="400.0" height="224.278"/>
        </clipPath>
    </defs>
    <g transform="translate(852.0 206.0) rotate(0.0 171.0 96.5) scale(0.855 0.8605391523020537)">
        <g clip-path="url(#clip-path-id-viewbox-item-4)" transform="translate(-0.0 -0.0)">
<title>speech_bubble_m_3</title><g id="Layer_2-i4" data-name="Layer 2"><g id="speech_bubble_m_3-i4"><path d="M350,157s-110.917,3-150,3c-35.917,0-150-3-150-3A50,50,0,0,1,0,107V54A50,50,0,0,1,50,4S179.417,0,205,0c49.417,0,145,4,145,4a50,50,0,0,1,50,50v53A50,50,0,0,1,350,157Z" fill="#04294f"/><path d="M38,114s38.141,62.224-16.9,101.4a4.884,4.884,0,0,0,4.136,8.684C67.55,212.492,136.669,183.192,149,114Z" fill="#04294f"/></g></g>
        </g>
    </g>
</g>

<!-- ITEM 5 -->
<g>
    <defs>
        
        <clipPath id="clip-path-id-viewbox-item-5">
            <rect x="0.0" y="0.0" width="1560.593" height="457.384"/>
        </clipPath>
    </defs>
    <g transform="translate(881.0 632.0) rotate(0.0 145.0 42.5) scale(0.18582679789028914 0.18583946967974393)">
        <g clip-path="url(#clip-path-id-viewbox-item-5)" transform="translate(-0.0 -0.0)">

<g>
	<path style="fill:#ffffff;" d="M510.621,55H27.5C12.313,55,0,42.688,0,27.5S12.313,0,27.5,0h483.121   c15.188,0,27.5,12.312,27.5,27.5S525.809,55,510.621,55z"/>
	<path style="fill:#ffffff;" d="M835.725,256.167H27.5c-15.188,0-27.5-12.312-27.5-27.5s12.313-27.5,27.5-27.5h808.225   c15.188,0,27.5,12.312,27.5,27.5S850.912,256.167,835.725,256.167z"/>
	<path style="fill:#ffffff;" d="M774.131,55h-153.56c-15.188,0-27.5-12.312-27.5-27.5S605.384,0,620.571,0h153.56   c15.188,0,27.5,12.312,27.5,27.5S789.318,55,774.131,55z"/>
	<path style="fill:#ffffff;" d="M1533.093,55H890.581c-15.188,0-27.5-12.312-27.5-27.5S875.394,0,890.581,0h642.512   c15.188,0,27.5,12.312,27.5,27.5S1548.28,55,1533.093,55z"/>
	<path style="fill:#ffffff;" d="M350.013,457.384H27.5c-15.188,0-27.5-12.312-27.5-27.5s12.313-27.5,27.5-27.5h322.513   c15.188,0,27.5,12.312,27.5,27.5S365.2,457.384,350.013,457.384z"/>
	<path style="fill:#ffffff;" d="M966.581,457.384H465.5c-15.188,0-27.5-12.312-27.5-27.5s12.313-27.5,27.5-27.5h501.081   c15.188,0,27.5,12.312,27.5,27.5S981.769,457.384,966.581,457.384z"/>
</g>

        </g>
    </g>
</g>

<!-- ITEM 6 -->
<g>
    <defs>
        <clipPath id="clip-path-id-crop-item-6">
          <g transform="scale(5.514462897526502 5.510650602409639)">
          <rect x="0.0" y="0.0" width="283.0" height="59.0"/>
          </g>
        </clipPath>
        <clipPath id="clip-path-id-viewbox-item-6">
            <rect x="0.0" y="0.0" width="1560.593" height="457.384"/>
        </clipPath>
    </defs>
    <g clip-path="url(#clip-path-id-crop-item-6)" transform="translate(881.0 255.0) rotate(0.0 141.5 41.5) scale(0.18134132345845458 0.18146677627551466)">
        <g clip-path="url(#clip-path-id-viewbox-item-6)" transform="translate(-0.0 -0.0)">

<g>
	<path style="fill:#ffffff;" d="M510.621,55H27.5C12.313,55,0,42.688,0,27.5S12.313,0,27.5,0h483.121   c15.188,0,27.5,12.312,27.5,27.5S525.809,55,510.621,55z"/>
	<path style="fill:#ffffff;" d="M835.725,256.167H27.5c-15.188,0-27.5-12.312-27.5-27.5s12.313-27.5,27.5-27.5h808.225   c15.188,0,27.5,12.312,27.5,27.5S850.912,256.167,835.725,256.167z"/>
	<path style="fill:#ffffff;" d="M774.131,55h-153.56c-15.188,0-27.5-12.312-27.5-27.5S605.384,0,620.571,0h153.56   c15.188,0,27.5,12.312,27.5,27.5S789.318,55,774.131,55z"/>
	<path style="fill:#ffffff;" d="M1533.093,55H890.581c-15.188,0-27.5-12.312-27.5-27.5S875.394,0,890.581,0h642.512   c15.188,0,27.5,12.312,27.5,27.5S1548.28,55,1533.093,55z"/>
	<path style="fill:#ffffff;" d="M350.013,457.384H27.5c-15.188,0-27.5-12.312-27.5-27.5s12.313-27.5,27.5-27.5h322.513   c15.188,0,27.5,12.312,27.5,27.5S365.2,457.384,350.013,457.384z"/>
	<path style="fill:#ffffff;" d="M966.581,457.384H465.5c-15.188,0-27.5-12.312-27.5-27.5s12.313-27.5,27.5-27.5h501.081   c15.188,0,27.5,12.312,27.5,27.5S981.769,457.384,966.581,457.384z"/>
</g>

        </g>
    </g>
</g>

<!-- ITEM 7 -->
<g>
    <defs>
        <clipPath id="clip-path-id-crop-item-7">
          <g transform="scale(5.050462783171521 5.026197802197802)">
          <rect x="0.0" y="0.0" width="165.0" height="69.0"/>
          </g>
        </clipPath>
        <clipPath id="clip-path-id-viewbox-item-7">
            <rect x="0.0" y="0.0" width="1560.593" height="457.384"/>
        </clipPath>
    </defs>
    <g clip-path="url(#clip-path-id-crop-item-7)" transform="translate(1121.0 437.0) rotate(0.0 154.5 45.5) scale(0.19800165706241152 0.19895754989243172)">
        <g clip-path="url(#clip-path-id-viewbox-item-7)" transform="translate(-0.0 -0.0)">

<g>
	<path style="fill:#04294F;" d="M510.621,55H27.5C12.313,55,0,42.688,0,27.5S12.313,0,27.5,0h483.121   c15.188,0,27.5,12.312,27.5,27.5S525.809,55,510.621,55z"/>
	<path style="fill:#04294F;" d="M835.725,256.167H27.5c-15.188,0-27.5-12.312-27.5-27.5s12.313-27.5,27.5-27.5h808.225   c15.188,0,27.5,12.312,27.5,27.5S850.912,256.167,835.725,256.167z"/>
	<path style="fill:#04294F;" d="M774.131,55h-153.56c-15.188,0-27.5-12.312-27.5-27.5S605.384,0,620.571,0h153.56   c15.188,0,27.5,12.312,27.5,27.5S789.318,55,774.131,55z"/>
	<path style="fill:#04294F;" d="M1533.093,55H890.581c-15.188,0-27.5-12.312-27.5-27.5S875.394,0,890.581,0h642.512   c15.188,0,27.5,12.312,27.5,27.5S1548.28,55,1533.093,55z"/>
	<path style="fill:#04294F;" d="M350.013,457.384H27.5c-15.188,0-27.5-12.312-27.5-27.5s12.313-27.5,27.5-27.5h322.513   c15.188,0,27.5,12.312,27.5,27.5S365.2,457.384,350.013,457.384z"/>
	<path style="fill:#04294F;" d="M966.581,457.384H465.5c-15.188,0-27.5-12.312-27.5-27.5s12.313-27.5,27.5-27.5h501.081   c15.188,0,27.5,12.312,27.5,27.5S981.769,457.384,966.581,457.384z"/>
</g>

        </g>
    </g>
</g>

              </svg>