<svg xmlns="http://www.w3.org/2000/svg" xmlns:xlink="http://www.w3.org/1999/xlink" width="1000" height="1000" x="0" y="0" version="1.1" viewBox="0 0 1000 1000"><g style="isolation:isolate"><g id="Layer_1" data-name="Layer 1"><rect width="638.331" height="18" x="160.161" y="648.303" fill="#c9c9c9" rx="9"/><path fill="#cecece" d="M285.891,573.289a17.343,17.343,0,0,1,0-34.685h98.034v34.685Z"/><path fill="#fff" d="M285.891,532.6H389.6a0,0,0,0,1,0,0v46.685a0,0,0,0,1,0,0H285.891a23.342,23.342,0,0,1-23.342-23.342v0A23.342,23.342,0,0,1,285.891,532.6Z"/><path fill="#1f3969" d="M383.925,552.567H279.549a2,2,0,0,1,0-4H383.925a2,2,0,0,1,0,4Z"/><path fill="#1f3969" d="M383.925,563.158H279.549a2,2,0,0,1,0-4H383.925a2,2,0,1,1,0,4Z"/><path fill="#1f3969" d="M383.925,575.289H285.891a19.343,19.343,0,0,1,0-38.685h98.034a2,2,0,0,1,2,2v34.685A2,2,0,0,1,383.925,575.289ZM285.891,540.6a15.343,15.343,0,0,0,0,30.685h96.034V540.6Z"/><path fill="#ff3e3e" d="M285.891,573.289a17.343,17.343,0,0,1,0-34.685H385.6l4-6H285.891a23.342,23.342,0,0,0-23.342,23.342h0a23.342,23.342,0,0,0,23.342,23.343H389.6l-4-6Z"/><path fill="#1f3969" d="M389.6,581.289H285.891a25.343,25.343,0,0,1,0-50.685H389.6a2,2,0,0,1,1.664,3.109l-4,6a2,2,0,0,1-1.664.891H285.891a15.343,15.343,0,0,0,0,30.685H385.6a2,2,0,0,1,1.664.891l4,6a2,2,0,0,1-1.664,3.109ZM285.891,534.6a21.343,21.343,0,0,0,0,42.685h99.976l-1.334-2H285.891a19.343,19.343,0,0,1,0-38.685h98.642l1.334-2Z"/><g opacity=".28"><rect width="18.391" height="46.685" x="348.914" y="532.604" fill="#1f3969"/><path fill="#1f3969" d="M367.305,581.289H348.914a2,2,0,0,1-2-2V532.6a2,2,0,0,1,2-2h18.391a2,2,0,0,1,2,2v46.685A2,2,0,0,1,367.305,581.289Zm-16.391-4h14.391V534.6H350.914Z"/></g><rect width="203.426" height="38.557" x="182.27" y="579.289" fill="#50b56f" rx="6.761"/><path fill="#1f3969" d="M378.935,619.846h-189.9a8.772,8.772,0,0,1-8.762-8.761V586.05a8.772,8.772,0,0,1,8.762-8.761h189.9a8.771,8.771,0,0,1,8.761,8.761v25.035A8.771,8.771,0,0,1,378.935,619.846Zm-189.9-38.557a4.767,4.767,0,0,0-4.762,4.761v25.035a4.767,4.767,0,0,0,4.762,4.761h189.9a4.767,4.767,0,0,0,4.761-4.761V586.05a4.767,4.767,0,0,0-4.761-4.761Z"/><g opacity=".28"><path fill="#1f3969" d="M378.935,579.289H348.914v15a17.06,17.06,0,0,0,17.061,17.061h19.708c0-.087.013-.173.013-.261V586.05A6.761,6.761,0,0,0,378.935,579.289Z"/><path fill="#1f3969" d="M385.683,613.347H365.975a19.083,19.083,0,0,1-19.061-19.062v-15a2,2,0,0,1,2-2h30.021a8.771,8.771,0,0,1,8.761,8.761v25.035c0,.1-.005.2-.012.294A2.1,2.1,0,0,1,385.683,613.347Zm-34.769-32.058v13a15.078,15.078,0,0,0,15.061,15.062h17.718l0-23.3a4.767,4.767,0,0,0-4.761-4.761Z"/></g><path fill="#cecece" d="M432.39,625.587H212.442a32.774,32.774,0,0,1,0,22.716H432.39a32.789,32.789,0,0,1,0-22.716Z"/><rect width="231.87" height="6.044" x="206.485" y="619.543" fill="#5f5aff"/><path fill="#1f3969" d="M438.355,627.587H206.485a2,2,0,0,1-2-2v-6.044a2,2,0,0,1,2-2h231.87a2,2,0,0,1,2,2v6.044A2,2,0,0,1,438.355,627.587Zm-229.87-4h227.87v-2.044H208.485Z"/><rect width="231.87" height="6.044" x="206.485" y="648.303" fill="#f6f9fd"/><rect width="231.87" height="6.044" x="206.485" y="648.303" fill="#5f5aff"/><path fill="#1f3969" d="M438.355,656.347H206.485a2,2,0,0,1-2-2V648.3a2,2,0,0,1,2-2h231.87a2,2,0,0,1,2,2v6.044A2,2,0,0,1,438.355,656.347Zm-229.87-4h227.87V650.3H208.485Z"/><path fill="#bfcfe2" d="M553.631,633l-3.013-33.652H501.21L498.2,633c-.7,7.816-5.4,15.3-12.777,21.276l-.009.072h81.007l-.009-.072C559.035,648.3,554.331,640.814,553.631,633Z"/><g opacity=".28"><polygon fill="#1f3969" points="501.21 599.346 499.401 619.543 552.426 619.543 550.618 599.346 501.21 599.346"/><path fill="#1f3969" d="M552.427,621.543H499.4a2,2,0,0,1-1.992-2.179l1.809-20.2a2,2,0,0,1,1.992-1.821h49.408a2,2,0,0,1,1.992,1.821l1.809,20.2a2,2,0,0,1-1.992,2.179Zm-50.839-4h48.651l-1.45-16.2h-45.75Z"/></g><path fill="#1f3969" d="M566.417,656.347H485.41a2,2,0,0,1-1.985-2.242,2.178,2.178,0,0,1,.735-1.385c7.135-5.778,11.412-12.846,12.044-19.9l3.014-33.651a2,2,0,0,1,1.992-1.821h49.407a2,2,0,0,1,1.992,1.821l3.015,33.651h0c.631,7.054,4.908,14.121,12.043,19.9a2,2,0,0,1,.727,1.312,2.082,2.082,0,0,1-.484,1.6A2.031,2.031,0,0,1,566.417,656.347Zm-75.894-4H561.3c-5.674-5.765-9.063-12.435-9.665-19.171l-2.852-31.829H503.039l-2.851,31.83C499.585,639.913,496.2,646.583,490.523,652.347Z"/><rect width="340" height="230" x="355.914" y="374.346" fill="#fff" rx="12"/><rect width="340" height="230" x="355.914" y="374.346" fill="#bfcfe2" rx="12"/><path fill="#1f3969" d="M683.914,606.347h-316a14.016,14.016,0,0,1-14-14v-206a14.015,14.015,0,0,1,14-14h316a14.015,14.015,0,0,1,14,14v206A14.016,14.016,0,0,1,683.914,606.347Zm-316-230a10.011,10.011,0,0,0-10,10v206a10.011,10.011,0,0,0,10,10h316a10.012,10.012,0,0,0,10-10v-206a10.011,10.011,0,0,0-10-10Z"/><rect width="174.591" height="306" x="438.618" y="325.642" fill="#f6f9fd" transform="translate(1004.556 -47.272) rotate(90)"/><g opacity=".28"><path fill="#1f3969" d="M383.928,374.346V512.939a8,8,0,0,0,8,8H581a8,8,0,0,0,8-8V374.346Z"/><path fill="#1f3969" d="M581,522.939H391.928a10.011,10.011,0,0,1-10-10V374.346a2,2,0,0,1,2-2H589a2,2,0,0,1,2,2V512.939A10.011,10.011,0,0,1,581,522.939ZM385.928,376.346V512.939a6.007,6.007,0,0,0,6,6H581a6.006,6.006,0,0,0,6-6V376.346Z"/></g><path fill="#1f3969" d="M678.914,567.938h-306a2,2,0,0,1-2-2V391.346a2,2,0,0,1,2-2h306a2,2,0,0,1,2,2V565.938A2,2,0,0,1,678.914,567.938Zm-304-4h302V393.346h-302Z"/><path fill="#1f3969" d="M539.359,587.048H512.468a2,2,0,1,1,0-4h26.891a2,2,0,1,1,0,4Z"/><rect width="205.073" height="164.286" x="392.928" y="345.654" fill="#2d425e" rx="8"/><path fill="#1f3969" d="M598,367.108H392.928a2,2,0,0,1-2-2V353.654a10.011,10.011,0,0,1,10-10H590a10.011,10.011,0,0,1,10,10v11.454A2,2,0,0,1,598,367.108Zm-203.073-4H596v-9.454a6.006,6.006,0,0,0-6-6H400.928a6.007,6.007,0,0,0-6,6Z"/><path fill="#d0ddf0" d="M400.928,345.654H590a8,8,0,0,1,8,8v15.264a0,0,0,0,1,0,0H392.928a0,0,0,0,1,0,0V353.654A8,8,0,0,1,400.928,345.654Z"/><path fill="#1f3969" d="M598,370.918H392.928a2,2,0,0,1-2-2V353.654a10.011,10.011,0,0,1,10-10H590a10.011,10.011,0,0,1,10,10v15.264A2,2,0,0,1,598,370.918Zm-203.073-4H596V353.654a6.006,6.006,0,0,0-6-6H400.928a6.007,6.007,0,0,0-6,6Z"/><path fill="#1f3969" d="M598,370.918H392.928a2,2,0,0,1-2-2V353.654a10.011,10.011,0,0,1,10-10H590a10.011,10.011,0,0,1,10,10v15.264A2,2,0,0,1,598,370.918Zm-203.073-4H596V353.654a6.006,6.006,0,0,0-6-6H400.928a6.007,6.007,0,0,0-6,6Z"/><path fill="#1f3969" d="M590,511.939H400.928a10.011,10.011,0,0,1-10-10V353.654a10.011,10.011,0,0,1,10-10H590a10.011,10.011,0,0,1,10,10V501.939A10.011,10.011,0,0,1,590,511.939ZM400.928,347.654a6.007,6.007,0,0,0-6,6V501.939a6.007,6.007,0,0,0,6,6H590a6.006,6.006,0,0,0,6-6V353.654a6.006,6.006,0,0,0-6-6Z"/><g opacity=".28"><rect width="132.016" height="138.945" x="564.673" y="406.4" fill="#1f3969" rx="8"/><path fill="#1f3969" d="M688.689,547.346H572.673a10.012,10.012,0,0,1-10-10V414.4a10.011,10.011,0,0,1,10-10H688.689a10.011,10.011,0,0,1,10,10V537.346A10.012,10.012,0,0,1,688.689,547.346ZM572.673,408.4a6.006,6.006,0,0,0-6,6V537.346a6.007,6.007,0,0,0,6,6H688.689a6.007,6.007,0,0,0,6-6V414.4a6.006,6.006,0,0,0-6-6Z"/></g><rect width="132.016" height="138.945" x="572.673" y="399.4" fill="#2aa1ff" rx="8"/><path fill="#1f3969" d="M696.689,540.346H580.673a10.012,10.012,0,0,1-10-10V407.4a10.011,10.011,0,0,1,10-10H696.689a10.011,10.011,0,0,1,10,10V530.346A10.012,10.012,0,0,1,696.689,540.346ZM580.673,401.4a6.006,6.006,0,0,0-6,6V530.346a6.007,6.007,0,0,0,6,6H696.689a6.007,6.007,0,0,0,6-6V407.4a6.006,6.006,0,0,0-6-6Z"/><rect width="91.903" height="18.134" x="592.69" y="419.339" fill="none" stroke="#fff" stroke-linecap="round" stroke-linejoin="round" stroke-width="2" opacity=".34" rx="5.167" style="mix-blend-mode:screen"/><g opacity=".34" style="mix-blend-mode:screen"><rect width="55.977" height="18.134" x="592.77" y="448.646" fill="none" stroke="#fff" stroke-linecap="round" stroke-linejoin="round" stroke-width="2" rx="5.167"/><rect width="27.989" height="18.134" x="656.684" y="448.646" fill="none" stroke="#fff" stroke-linecap="round" stroke-linejoin="round" stroke-width="2" rx="5.167"/></g><line x1="592.69" x2="684.593" y1="497.23" y2="497.23" fill="none" stroke="#fff" stroke-linecap="round" stroke-linejoin="round" stroke-width="2"/><line x1="592.69" x2="684.593" y1="508.021" y2="508.021" fill="none" stroke="#fff" stroke-linecap="round" stroke-linejoin="round" stroke-width="2"/><line x1="592.69" x2="648.667" y1="518.811" y2="518.811" fill="none" stroke="#fff" stroke-linecap="round" stroke-linejoin="round" stroke-width="2"/><circle cx="413" cy="357.286" r="4" fill="#1f3969"/><circle cx="426.886" cy="357.286" r="4" fill="#1f3969"/><circle cx="440.772" cy="357.286" r="4" fill="#1f3969"/><line x1="510.741" x2="523.669" y1="387.379" y2="387.379" fill="none" stroke="#fff" stroke-linecap="round" stroke-linejoin="round" stroke-width="4"/><line x1="444.772" x2="501.148" y1="387.379" y2="387.379" fill="none" stroke="#7bffa0" stroke-linecap="round" stroke-linejoin="round" stroke-width="4"/><line x1="417" x2="436.772" y1="387.379" y2="387.379" fill="none" stroke="#9169ff" stroke-linecap="round" stroke-linejoin="round" stroke-width="4"/><line x1="442.772" x2="485.83" y1="485.938" y2="485.938" fill="none" stroke="#9169ff" stroke-linecap="round" stroke-linejoin="round" stroke-width="4"/><line x1="417" x2="430.885" y1="485.938" y2="485.938" fill="none" stroke="#7bffa0" stroke-linecap="round" stroke-linejoin="round" stroke-width="4"/><line x1="501.149" x2="509.164" y1="399.699" y2="399.699" fill="none" stroke="#fff" stroke-linecap="round" stroke-linejoin="round" stroke-width="4"/><line x1="464.279" x2="491.506" y1="399.699" y2="399.699" fill="none" stroke="#9169ff" stroke-linecap="round" stroke-linejoin="round" stroke-width="4"/><line x1="426.886" x2="454.63" y1="399.699" y2="399.699" fill="none" stroke="#ffc47d" stroke-linecap="round" stroke-linejoin="round" stroke-width="4"/><line x1="469.83" x2="493.668" y1="412.019" y2="412.019" fill="none" stroke="#fff" stroke-linecap="round" stroke-linejoin="round" stroke-width="4"/><line x1="439.769" x2="462.251" y1="412.019" y2="412.019" fill="none" stroke="#ff5757" stroke-linecap="round" stroke-linejoin="round" stroke-width="4"/><line x1="473.009" x2="477.947" y1="424.339" y2="424.339" fill="none" stroke="#fff" stroke-linecap="round" stroke-linejoin="round" stroke-width="4"/><line x1="453.189" x2="464.279" y1="424.339" y2="424.339" fill="none" stroke="#9169ff" stroke-linecap="round" stroke-linejoin="round" stroke-width="4"/><line x1="426.886" x2="444.772" y1="424.339" y2="424.339" fill="none" stroke="#7bffa0" stroke-linecap="round" stroke-linejoin="round" stroke-width="4"/><line x1="465.288" x2="497.182" y1="436.659" y2="436.659" fill="none" stroke="#ffc47d" stroke-linecap="round" stroke-linejoin="round" stroke-width="4"/><line x1="426.886" x2="455.513" y1="436.659" y2="436.659" fill="none" stroke="#ff5757" stroke-linecap="round" stroke-linejoin="round" stroke-width="4"/><line x1="502.182" x2="519.525" y1="448.979" y2="448.979" fill="none" stroke="#9169ff" stroke-linecap="round" stroke-linejoin="round" stroke-width="4"/><line x1="465.288" x2="493.037" y1="448.979" y2="448.979" fill="none" stroke="#ff5757" stroke-linecap="round" stroke-linejoin="round" stroke-width="4"/><line x1="439.769" x2="455.513" y1="448.979" y2="448.979" fill="none" stroke="#7bffa0" stroke-linecap="round" stroke-linejoin="round" stroke-width="4"/><line x1="477.893" x2="493.037" y1="461.299" y2="461.299" fill="none" stroke="#fff" stroke-linecap="round" stroke-linejoin="round" stroke-width="4"/><line x1="439.769" x2="467.513" y1="461.299" y2="461.299" fill="none" stroke="#9169ff" stroke-linecap="round" stroke-linejoin="round" stroke-width="4"/><line x1="517.205" x2="534.497" y1="473.619" y2="473.619" fill="none" stroke="#fff" stroke-linecap="round" stroke-linejoin="round" stroke-width="4"/><line x1="464.279" x2="507.848" y1="473.619" y2="473.619" fill="none" stroke="#ffc47d" stroke-linecap="round" stroke-linejoin="round" stroke-width="4"/><line x1="426.886" x2="454.63" y1="473.619" y2="473.619" fill="none" stroke="#fff" stroke-linecap="round" stroke-linejoin="round" stroke-width="4"/><path fill="#1f3969" d="M430.359,634.522H214.9a2,2,0,1,1,0-4H430.359a2,2,0,1,1,0,4Z"/><path fill="#1f3969" d="M430.359,642.539H214.9a2,2,0,1,1,0-4H430.359a2,2,0,0,1,0,4Z"/><path fill="#1f3969" d="M432.39,650.3H212.442a2,2,0,0,1-1.86-2.735,30.787,30.787,0,0,0,0-21.247,2,2,0,0,1,1.86-2.734H432.39a2,2,0,0,1,1.86,2.733,30.792,30.792,0,0,0,0,21.249,2,2,0,0,1-1.86,2.734Zm-217.168-4H429.611a35.6,35.6,0,0,1,0-18.716H215.222a35.626,35.626,0,0,1,0,18.716Z"/><rect width="9.814" height="72.65" x="722.76" y="544.444" fill="#ffa364" transform="translate(-62.746 88.794) rotate(-6.695)"/><rect width="9.814" height="7.39" x="718.956" y="544.666" fill="#2aa1ff" transform="translate(-58.994 88.13) rotate(-6.695)"/><path fill="#1f3969" d="M719.42,554.6a2,2,0,0,1-1.986-1.767l-.862-7.34a2,2,0,0,1,1.753-2.22l9.747-1.144a2,2,0,0,1,2.22,1.753l.861,7.34a2,2,0,0,1-1.753,2.219l-9.747,1.145A2.037,2.037,0,0,1,719.42,554.6Zm1.358-7.587.395,3.367,5.774-.678-.394-3.367Z"/><path fill="#1f3969" d="M727.028,619.418a2,2,0,0,1-1.986-1.767l-8.47-72.154a2,2,0,0,1,1.753-2.22l9.747-1.144a2,2,0,0,1,2.22,1.753l8.47,72.154a2,2,0,0,1-1.753,2.22l-9.747,1.144A2.054,2.054,0,0,1,727.028,619.418Zm-6.25-72.4,8,68.181,5.775-.677-8-68.182Z"/><rect width="9.814" height="72.65" x="741.439" y="558.065" fill="#ff5252" transform="translate(68.601 -77.171) rotate(6.204)"/><path fill="#1f3969" d="M747.3,633.032c-.073,0-.146,0-.219-.011l-9.757-1.061a2,2,0,0,1-1.772-2.2l7.85-72.224a2,2,0,0,1,2.2-1.772l9.757,1.06a2,2,0,0,1,1.773,2.2l-7.851,72.224A2,2,0,0,1,747.3,633.032Zm-7.556-4.833,5.78.629,7.419-68.247-5.78-.629Z"/><rect width="9.814" height="7.39" x="744.965" y="558.256" fill="#2d425e" transform="translate(65.117 -77.742) rotate(6.204)"/><path fill="#1f3969" d="M754.354,568.155c-.072,0-.145,0-.218-.011l-9.757-1.061a2,2,0,0,1-1.773-2.2l.8-7.347a2,2,0,0,1,2.2-1.772l9.757,1.06a2,2,0,0,1,1.773,2.2l-.8,7.347A2,2,0,0,1,754.354,568.155Zm-7.555-4.833,5.78.629.367-3.37-5.78-.629Z"/><polygon fill="#6567c3" points="761.07 654.573 721.809 654.573 715.424 594.39 767.455 594.39 761.07 654.573"/><polygon fill="#6567c3" points="715.424 594.39 715.541 595.495 755.183 595.495 748.915 654.573 761.07 654.573 767.455 594.39 715.424 594.39" style="mix-blend-mode:overlay"/><path fill="#1f3969" d="M761.069,656.573h-39.26a2,2,0,0,1-1.99-1.789L713.435,594.6a2,2,0,0,1,1.989-2.211h52.031a2,2,0,0,1,1.989,2.211l-6.385,60.183A2,2,0,0,1,761.069,656.573Zm-37.462-4h35.664l5.96-56.183H717.647Z"/></g></g></svg>