<?xml version="1.0" encoding="UTF-8"?><svg xmlns="http://www.w3.org/2000/svg" viewBox="0 0 1000 1000" x="0px" y="0px" width="1000px" height="1000px" version="1.1" xmlns:xlink="http://www.w3.org/1999/xlink"><g style="isolation:isolate"><g id="Layer_1" data-name="Layer 1"><rect x="153.152" y="648.303" width="693.696" height="18" rx="9" fill="#848484" opacity="0.28" style="mix-blend-mode:multiply"/><path d="M808.451,573.892a71.45,71.45,0,0,0-64.726-71.272v-8.411H721.812v160.7h21.913v-9.743A71.449,71.449,0,0,0,808.451,573.892Zm-64.726,48.173V525.721a48.66,48.66,0,0,1,0,96.344Z" fill="#f09f54"/><path d="M743.725,502.62v-8.411H721.812v160.7h21.913v-9.743a71.6,71.6,0,0,0,0-142.544Zm0,135.185v8.337H723.273V501.513h20.452v8.467c32.14,3.107,58.042,30.53,58.042,63.912S775.865,634.7,743.725,637.8Z" fill="#f09f54" opacity="0.29" style="mix-blend-mode:multiply"/><path d="M743.725,656.907H721.812a2,2,0,0,1-2-2v-160.7a2,2,0,0,1,2-2h21.913a2,2,0,0,1,2,2v6.614a73.607,73.607,0,0,1,0,146.138v7.946A2,2,0,0,1,743.725,656.907Zm-19.913-4h17.913v-7.743a2,2,0,0,1,1.811-1.991,69.6,69.6,0,0,0,0-138.562,2,2,0,0,1-1.811-1.991v-6.411H723.812Zm19.913-28.843a2,2,0,0,1-2-2V525.721a2,2,0,0,1,2.284-1.98,50.66,50.66,0,0,1,0,100.3A1.947,1.947,0,0,1,743.725,624.064Zm2-95.977V619.7a46.657,46.657,0,0,0,0-91.611Z" fill="#444e59"/><path d="M730.577,640.337h-8.765a1.5,1.5,0,1,1,0-3h8.765a1.5,1.5,0,0,1,0,3Z" fill="#444e59"/><path d="M730.577,624.268h-8.765a1.5,1.5,0,1,1,0-3h8.765a1.5,1.5,0,0,1,0,3Z" fill="#444e59"/><path d="M730.577,608.2h-8.765a1.5,1.5,0,0,1,0-3h8.765a1.5,1.5,0,0,1,0,3Z" fill="#444e59"/><path d="M730.577,592.128h-8.765a1.5,1.5,0,0,1,0-3h8.765a1.5,1.5,0,0,1,0,3Z" fill="#444e59"/><path d="M730.577,576.058h-8.765a1.5,1.5,0,1,1,0-3h8.765a1.5,1.5,0,0,1,0,3Z" fill="#444e59"/><path d="M730.577,559.988h-8.765a1.5,1.5,0,0,1,0-3h8.765a1.5,1.5,0,0,1,0,3Z" fill="#444e59"/><path d="M730.577,543.918h-8.765a1.5,1.5,0,0,1,0-3h8.765a1.5,1.5,0,0,1,0,3Z" fill="#444e59"/><path d="M730.577,527.849h-8.765a1.5,1.5,0,0,1,0-3h8.765a1.5,1.5,0,0,1,0,3Z" fill="#444e59"/><path d="M730.577,511.778h-8.765a1.5,1.5,0,0,1,0-3h8.765a1.5,1.5,0,0,1,0,3Z" fill="#444e59"/><rect x="673.257" y="412.891" width="33.082" height="241.643" fill="#f09f54"/><rect x="673.257" y="412.891" width="33.082" height="241.643" fill="#f09f54"/><rect x="691.956" y="412.891" width="14.384" height="241.643" fill="#f09f54" opacity="0.29" style="mix-blend-mode:multiply"/><path d="M706.34,656.534H673.258a2,2,0,0,1-2-2V412.891a2,2,0,0,1,2-2H706.34a2,2,0,0,1,2,2V654.534A2,2,0,0,1,706.34,656.534Zm-31.082-4H704.34V414.891H675.258Z" fill="#444e59"/><path d="M684.765,631.582H673.258a1.5,1.5,0,0,1,0-3h11.507a1.5,1.5,0,0,1,0,3Z" fill="#444e59"/><path d="M680.449,643.089h-7.191a1.5,1.5,0,0,1,0-3h7.191a1.5,1.5,0,0,1,0,3Z" fill="#444e59"/><path d="M684.765,608.568H673.258a1.5,1.5,0,0,1,0-3h11.507a1.5,1.5,0,1,1,0,3Z" fill="#444e59"/><path d="M680.449,620.075h-7.191a1.5,1.5,0,0,1,0-3h7.191a1.5,1.5,0,0,1,0,3Z" fill="#444e59"/><path d="M684.765,585.555H673.258a1.5,1.5,0,0,1,0-3h11.507a1.5,1.5,0,0,1,0,3Z" fill="#444e59"/><path d="M680.449,597.062h-7.191a1.5,1.5,0,0,1,0-3h7.191a1.5,1.5,0,0,1,0,3Z" fill="#444e59"/><path d="M684.765,562.541H673.258a1.5,1.5,0,0,1,0-3h11.507a1.5,1.5,0,0,1,0,3Z" fill="#444e59"/><path d="M680.449,574.048h-7.191a1.5,1.5,0,0,1,0-3h7.191a1.5,1.5,0,0,1,0,3Z" fill="#444e59"/><path d="M684.765,539.528H673.258a1.5,1.5,0,0,1,0-3h11.507a1.5,1.5,0,1,1,0,3Z" fill="#444e59"/><path d="M680.449,551.034h-7.191a1.5,1.5,0,0,1,0-3h7.191a1.5,1.5,0,0,1,0,3Z" fill="#444e59"/><path d="M684.765,516.515H673.258a1.5,1.5,0,0,1,0-3h11.507a1.5,1.5,0,0,1,0,3Z" fill="#444e59"/><path d="M680.449,528.021h-7.191a1.5,1.5,0,0,1,0-3h7.191a1.5,1.5,0,0,1,0,3Z" fill="#444e59"/><path d="M684.765,493.5H673.258a1.5,1.5,0,0,1,0-3h11.507a1.5,1.5,0,0,1,0,3Z" fill="#444e59"/><path d="M680.449,505.008h-7.191a1.5,1.5,0,0,1,0-3h7.191a1.5,1.5,0,0,1,0,3Z" fill="#444e59"/><path d="M684.765,470.487H673.258a1.5,1.5,0,0,1,0-3h11.507a1.5,1.5,0,0,1,0,3Z" fill="#444e59"/><path d="M680.449,481.994h-7.191a1.5,1.5,0,0,1,0-3h7.191a1.5,1.5,0,0,1,0,3Z" fill="#444e59"/><path d="M684.765,447.473H673.258a1.5,1.5,0,0,1,0-3h11.507a1.5,1.5,0,0,1,0,3Z" fill="#444e59"/><path d="M680.449,458.98h-7.191a1.5,1.5,0,0,1,0-3h7.191a1.5,1.5,0,1,1,0,3Z" fill="#444e59"/><path d="M684.765,424.46H673.258a1.5,1.5,0,0,1,0-3h11.507a1.5,1.5,0,0,1,0,3Z" fill="#444e59"/><path d="M680.449,435.966h-7.191a1.5,1.5,0,0,1,0-3h7.191a1.5,1.5,0,0,1,0,3Z" fill="#444e59"/><rect x="612.11" y="471.347" width="12.942" height="34.12" fill="#848484"/><rect x="612.11" y="471.347" width="4.78" height="34.12" fill="#848484" opacity="0.25" style="mix-blend-mode:multiply"/><path d="M625.052,507.467H612.11a2,2,0,0,1-2-2v-34.12a2,2,0,0,1,2-2h12.942a2,2,0,0,1,2,2v34.12A2,2,0,0,1,625.052,507.467Zm-10.942-4h8.942v-30.12H614.11Z" fill="#444e59"/><rect x="615.64" y="505.467" width="5.883" height="16.472" fill="#fff"/><path d="M621.522,523.938H615.64a2,2,0,0,1-2-2V505.467a2,2,0,0,1,2-2h5.882a2,2,0,0,1,2,2v16.471A2,2,0,0,1,621.522,523.938Zm-3.882-4h1.882V507.467H617.64Z" fill="#444e59"/><polygon points="608.637 536.732 578.643 654.417 624.219 538.273 608.637 536.732" fill="#fff"/><path d="M578.643,656.417a2,2,0,0,1-1.939-2.494L606.7,536.237a2,2,0,0,1,2.136-1.5l15.583,1.542A2,2,0,0,1,626.081,539L580.5,655.147A2,2,0,0,1,578.643,656.417ZM610.15,538.891l-21.638,84.9L621.393,540Z" fill="#444e59"/><polygon points="628.633 536.732 658.627 654.417 613.05 538.273 628.633 536.732" fill="#fff"/><path d="M658.627,656.417a2,2,0,0,1-1.861-1.27L611.188,539a2,2,0,0,1,1.665-2.721l15.583-1.542a2.007,2.007,0,0,1,2.135,1.5l29.994,117.686a2,2,0,0,1-1.938,2.494ZM615.877,540l32.881,83.789-21.639-84.9Z" fill="#444e59"/><circle cx="618.64" cy="539.765" r="20.001" fill="#71a850"/><path d="M604.218,539.765a19.989,19.989,0,0,1,17.212-19.784,20,20,0,1,0,0,39.568A19.989,19.989,0,0,1,604.218,539.765Z" fill="#71a850" opacity="0.4" style="mix-blend-mode:multiply"/><path d="M618.64,561.766a22,22,0,1,1,22-22A22.026,22.026,0,0,1,618.64,561.766Zm0-40a18,18,0,1,0,18,18A18.021,18.021,0,0,0,618.64,521.764Z" fill="#444e59"/><circle cx="618.64" cy="539.765" r="6.776" fill="#444e59"/><path d="M618.64,548.541a8.777,8.777,0,1,1,8.776-8.776A8.787,8.787,0,0,1,618.64,548.541Zm0-13.553a4.777,4.777,0,1,0,4.776,4.777A4.782,4.782,0,0,0,618.64,534.988Z" fill="#444e59"/><rect x="400.416" y="354.168" width="160" height="300" rx="14" fill="#848484"/><path d="M546.416,354.168h-8.457a14,14,0,0,1,14,14v272a14,14,0,0,1-14,14h8.457a14,14,0,0,0,14-14v-272A14,14,0,0,0,546.416,354.168Z" fill="#848484" opacity="0.28" style="mix-blend-mode:multiply"/><path d="M408.749,640.168v-272a14,14,0,0,1,14-14h-8.333a14,14,0,0,0-14,14v272a14,14,0,0,0,14,14h8.333A14,14,0,0,1,408.749,640.168Z" fill="#848484" opacity="0.48" style="mix-blend-mode:screen"/><path d="M546.416,656.168h-132a16.018,16.018,0,0,1-16-16v-272a16.018,16.018,0,0,1,16-16h132a16.019,16.019,0,0,1,16,16v272A16.019,16.019,0,0,1,546.416,656.168Zm-132-300a12.013,12.013,0,0,0-12,12v272a12.013,12.013,0,0,0,12,12h132a12.013,12.013,0,0,0,12-12v-272a12.013,12.013,0,0,0-12-12Z" fill="#444e59"/><rect x="368.416" y="423.704" width="224" height="160" transform="translate(984.119 23.288) rotate(90)" fill="#e9fbff"/><path d="M547.111,408.781h12.481a0,0,0,0,1,0,0v55.08a0,0,0,0,1,0,0H547.111a12.289,12.289,0,0,1-12.289-12.289v-30.5A12.289,12.289,0,0,1,547.111,408.781Z" fill="#c9c9c9"/><path d="M400.416,490.255h9.15a12.472,12.472,0,0,1,12.472,12.472v72.329a12.472,12.472,0,0,1-12.472,12.472h-9.15a0,0,0,0,1,0,0V490.255A0,0,0,0,1,400.416,490.255Z" fill="#c9c9c9"/><path d="M560.416,617.7h-160a2,2,0,0,1-2-2v-224a2,2,0,0,1,2-2h160a2,2,0,0,1,2,2v224A2,2,0,0,1,560.416,617.7Zm-158-4h156v-220h-156Z" fill="#444e59"/><path d="M509.416,376.7h-7a2.5,2.5,0,0,1,0-5h7a2.5,2.5,0,0,1,0,5Z" fill="#444e59"/><path d="M491.416,376.7h-40a2.5,2.5,0,0,1,0-5h40a2.5,2.5,0,0,1,0,5Z" fill="#444e59"/><circle cx="480.416" cy="632.59" r="10.953" fill="#848484" opacity="0.29" style="mix-blend-mode:screen"/><circle cx="480.416" cy="632.59" r="8.402" fill="#444e59"/><g opacity="0.3"><path d="M443.918,589.892h-4.142a1,1,0,0,1,0-2h4.08a1.027,1.027,0,0,1,1.031,1A.974.974,0,0,1,443.918,589.892Zm-8.221,0h-4.079a1,1,0,1,1,0-2H435.7a1,1,0,0,1,0,2Zm-8.158-.006H427.5a9,9,0,0,1-4.345-1.317,1,1,0,0,1,1.046-1.7,7,7,0,0,0,3.376,1.024,1,1,0,0,1-.038,2Zm20.276-1.04a1,1,0,0,1-.5-1.868,7.078,7.078,0,0,0,2.531-2.466,1,1,0,0,1,1.711,1.035,9.071,9.071,0,0,1-3.249,3.167A.994.994,0,0,1,447.815,588.846Zm-26.935-3.037a1,1,0,0,1-.872-.51,8.988,8.988,0,0,1-1.152-4.39,1,1,0,0,1,1-1h0a1,1,0,0,1,1,1,6.986,6.986,0,0,0,.895,3.413,1,1,0,0,1-.381,1.362A.99.99,0,0,1,420.88,585.809Zm30.972-3.647h-.033a1,1,0,0,1-.967-1.031l0-.238v-3.809a1,1,0,1,1,2,0l0,4.111A1,1,0,0,1,451.852,582.162Zm-32-4.334a1,1,0,0,1-1-1v-4.08a1,1,0,0,1,2,0v4.08A1,1,0,0,1,419.856,577.828Zm32-3.825a1,1,0,0,1-1-1v-4.079a1,1,0,0,1,2,0V573A1,1,0,0,1,451.856,574Zm-32-4.334a1,1,0,0,1-1-1v-3.777c0-.115,0-.229.007-.342a1,1,0,0,1,2,.078c0,.088,0,.175,0,.264v3.777A1,1,0,0,1,419.856,569.669Zm32-3.824a1,1,0,0,1-1-.994,6.982,6.982,0,0,0-.908-3.41,1,1,0,0,1,1.74-.988,9,9,0,0,1,1.168,4.386,1,1,0,0,1-.994,1.006Zm-30.833-4.117a.989.989,0,0,1-.52-.147,1,1,0,0,1-.333-1.375,9.061,9.061,0,0,1,3.262-3.153,1,1,0,1,1,.985,1.74,7.051,7.051,0,0,0-2.54,2.456A1,1,0,0,1,421.023,561.728Zm26.984-2.676a1,1,0,0,1-.519-.146,6.993,6.993,0,0,0-3.381-1.01,1,1,0,1,1,.071-2,8.992,8.992,0,0,1,4.349,1.3,1,1,0,0,1-.52,1.855Zm-7.944-1.16h-4.08a1,1,0,1,1,0-2h4.08a1,1,0,0,1,0,2Zm-8.159,0h-4.048a1.014,1.014,0,0,1-1.016-1,.986.986,0,0,1,.985-1H431.9a1,1,0,0,1,0,2Z" fill="#444e59"/><path d="M528.337,589.892a1,1,0,0,1,0-2h4.079a1.027,1.027,0,0,1,1.032,1,.974.974,0,0,1-.969,1v-1l-.022,1Zm-4.08,0h-4.079a1,1,0,0,1,0-2h4.079a1,1,0,0,1,0,2Zm-8.158-.006h-.04a8.99,8.99,0,0,1-4.344-1.317,1,1,0,1,1,1.045-1.7,7,7,0,0,0,3.377,1.024,1,1,0,0,1-.038,2Zm20.276-1.04a1,1,0,0,1-.5-1.868,7.053,7.053,0,0,0,2.53-2.467,1,1,0,1,1,1.711,1.037,9.076,9.076,0,0,1-3.249,3.166A.988.988,0,0,1,536.375,588.846ZM509.44,585.81a1,1,0,0,1-.872-.51,8.988,8.988,0,0,1-1.151-4.391,1,1,0,0,1,1-1h0a1,1,0,0,1,1,1,6.992,6.992,0,0,0,.894,3.412,1,1,0,0,1-.381,1.362A.99.99,0,0,1,509.44,585.81Zm30.972-3.648h-.033a1,1,0,0,1-.967-1.031l0-.238v-3.81a1,1,0,0,1,2,0l-.006,4.112A1,1,0,0,1,540.412,582.162Zm-32-4.334a1,1,0,0,1-1-1v-4.08a1,1,0,0,1,2,0v4.08A1,1,0,0,1,508.416,577.828Zm32-3.825a1,1,0,0,1-1-1v-4.079a1,1,0,0,1,2,0V573A1,1,0,0,1,540.416,574Zm-32-4.334a1,1,0,0,1-1-1v-3.777c0-.114,0-.227.007-.341a1,1,0,1,1,2,.078c0,.087,0,.175,0,.263v3.777A1,1,0,0,1,508.416,569.669Zm32-3.825a1,1,0,0,1-1-.994,7,7,0,0,0-.908-3.41,1,1,0,0,1,1.738-.988,9,9,0,0,1,1.17,4.386,1,1,0,0,1-.994,1.006Zm-30.835-4.116a.989.989,0,0,1-.52-.147,1,1,0,0,1-.333-1.375,9.053,9.053,0,0,1,3.262-3.153,1,1,0,1,1,.985,1.74,7.048,7.048,0,0,0-2.539,2.456A1,1,0,0,1,509.582,561.728Zm26.984-2.677a.989.989,0,0,1-.517-.146,7.013,7.013,0,0,0-3.382-1.009,1,1,0,0,1,.07-2,9,9,0,0,1,4.349,1.3,1,1,0,0,1-.52,1.855Zm-7.944-1.159h-4.079a1,1,0,1,1,0-2h4.079a1,1,0,1,1,0,2Zm-8.158,0h-4.048a1.013,1.013,0,0,1-1.016-1,.986.986,0,0,1,.984-1v1l0-1h4.077a1,1,0,1,1,0,2Z" fill="#444e59"/><path d="M484.336,589.892a1,1,0,0,1,0-2h4.08a1.026,1.026,0,0,1,1.031,1,.974.974,0,0,1-.968,1v-1l-.022,1Zm-4.079,0h-4.08a1,1,0,1,1,0-2h4.08a1,1,0,1,1,0,2Zm-8.158-.006h-.039a8.991,8.991,0,0,1-4.345-1.317,1,1,0,0,1,1.046-1.7,6.991,6.991,0,0,0,3.376,1.024,1,1,0,0,1-.038,2Zm20.276-1.04a1,1,0,0,1-.5-1.868,7.067,7.067,0,0,0,2.53-2.466,1,1,0,1,1,1.711,1.035,9.063,9.063,0,0,1-3.249,3.167A.991.991,0,0,1,492.375,588.846ZM465.44,585.81a1,1,0,0,1-.873-.51,9,9,0,0,1-1.151-4.39,1,1,0,0,1,1-1h0a1,1,0,0,1,1,1,6.991,6.991,0,0,0,.895,3.413,1,1,0,0,1-.871,1.491Zm30.972-3.648h-.034a1,1,0,0,1-.966-1.031l0-.238v-3.81a1,1,0,0,1,2,0l0,4.112A1,1,0,0,1,496.412,582.162Zm-32-4.334a1,1,0,0,1-1-1v-4.08a1,1,0,0,1,2,0v4.08A1,1,0,0,1,464.416,577.828Zm32-3.825a1,1,0,0,1-1-1v-4.079a1,1,0,0,1,2,0V573A1,1,0,0,1,496.416,574Zm-32-4.334a1,1,0,0,1-1-1v-3.777c0-.114,0-.227.006-.341a.982.982,0,0,1,1.038-.96,1,1,0,0,1,.96,1.038c0,.087,0,.175,0,.263v3.777A1,1,0,0,1,464.416,569.669Zm32-3.825a1,1,0,0,1-1-.994,6.993,6.993,0,0,0-.909-3.41,1,1,0,0,1,1.74-.988,9.017,9.017,0,0,1,1.169,4.386,1,1,0,0,1-1,1.006Zm-30.833-4.116a1,1,0,0,1-.853-1.522,9.045,9.045,0,0,1,3.262-3.153,1,1,0,1,1,.985,1.74,7.051,7.051,0,0,0-2.54,2.456A1,1,0,0,1,465.583,561.728Zm26.983-2.677a.99.99,0,0,1-.518-.146,7.009,7.009,0,0,0-3.381-1.009,1,1,0,1,1,.07-2,9.008,9.008,0,0,1,4.349,1.3,1,1,0,0,1-.52,1.855Zm-7.944-1.159h-4.079a1,1,0,1,1,0-2h4.079a1,1,0,1,1,0,2Zm-8.159,0h-4.047a1.014,1.014,0,0,1-1.017-1,.987.987,0,0,1,.985-1h4.079a1,1,0,0,1,0,2Z" fill="#444e59"/><path d="M443.918,541.892h-4.142a1,1,0,0,1,0-2h4.08a1.027,1.027,0,0,1,1.031,1A.974.974,0,0,1,443.918,541.892Zm-8.221,0h-4.079a1,1,0,1,1,0-2H435.7a1,1,0,0,1,0,2Zm-8.158-.006H427.5a9,9,0,0,1-4.345-1.317,1,1,0,0,1,1.046-1.7,7,7,0,0,0,3.376,1.024,1,1,0,0,1-.038,2Zm20.276-1.04a1,1,0,0,1-.5-1.868,7.078,7.078,0,0,0,2.531-2.466,1,1,0,0,1,1.711,1.035,9.071,9.071,0,0,1-3.249,3.167A.994.994,0,0,1,447.815,540.846Zm-26.935-3.037a1,1,0,0,1-.872-.51,8.988,8.988,0,0,1-1.152-4.39,1,1,0,0,1,1-1h0a1,1,0,0,1,1,1,6.986,6.986,0,0,0,.895,3.413,1,1,0,0,1-.381,1.362A.99.99,0,0,1,420.88,537.809Zm30.972-3.647h-.033a1,1,0,0,1-.967-1.031l0-.238v-3.809a1,1,0,0,1,2,0l0,4.111A1,1,0,0,1,451.852,534.162Zm-32-4.334a1,1,0,0,1-1-1v-4.08a1,1,0,0,1,2,0v4.08A1,1,0,0,1,419.856,529.828Zm32-3.825a1,1,0,0,1-1-1v-4.079a1,1,0,0,1,2,0V525A1,1,0,0,1,451.856,526Zm-32-4.334a1,1,0,0,1-1-1v-3.777c0-.115,0-.229.007-.342a1,1,0,0,1,2,.078c0,.088,0,.175,0,.264v3.777A1,1,0,0,1,419.856,521.669Zm32-3.824a1,1,0,0,1-1-.994,6.982,6.982,0,0,0-.908-3.41,1,1,0,0,1,1.74-.988,9,9,0,0,1,1.168,4.386,1,1,0,0,1-.994,1.006Zm-30.833-4.117a.989.989,0,0,1-.52-.147,1,1,0,0,1-.333-1.375,9.061,9.061,0,0,1,3.262-3.153,1,1,0,1,1,.985,1.74,7.051,7.051,0,0,0-2.54,2.456A1,1,0,0,1,421.023,513.728Zm26.984-2.676a1,1,0,0,1-.519-.146,6.993,6.993,0,0,0-3.381-1.01,1,1,0,0,1,.071-2,8.992,8.992,0,0,1,4.349,1.3,1,1,0,0,1-.52,1.855Zm-7.944-1.16h-4.08a1,1,0,0,1,0-2h4.08a1,1,0,0,1,0,2Zm-8.159,0h-4.048a1.014,1.014,0,0,1-1.016-1,.986.986,0,0,1,.985-1H431.9a1,1,0,0,1,0,2Z" fill="#444e59"/><path d="M528.337,541.892a1,1,0,0,1,0-2h4.079a1.027,1.027,0,0,1,1.032,1,.974.974,0,0,1-.969,1v-1l-.022,1Zm-4.08,0h-4.079a1,1,0,0,1,0-2h4.079a1,1,0,0,1,0,2Zm-8.158-.006h-.04a8.99,8.99,0,0,1-4.344-1.317,1,1,0,1,1,1.045-1.7,7,7,0,0,0,3.377,1.024,1,1,0,0,1-.038,2Zm20.276-1.04a1,1,0,0,1-.5-1.868,7.053,7.053,0,0,0,2.53-2.467,1,1,0,1,1,1.711,1.037,9.076,9.076,0,0,1-3.249,3.166A.988.988,0,0,1,536.375,540.846ZM509.44,537.81a1,1,0,0,1-.872-.51,8.988,8.988,0,0,1-1.151-4.391,1,1,0,0,1,1-1h0a1,1,0,0,1,1,1,6.992,6.992,0,0,0,.894,3.412,1,1,0,0,1-.381,1.362A.99.99,0,0,1,509.44,537.81Zm30.972-3.648h-.033a1,1,0,0,1-.967-1.031l0-.238v-3.81a1,1,0,0,1,2,0l-.006,4.112A1,1,0,0,1,540.412,534.162Zm-32-4.334a1,1,0,0,1-1-1v-4.08a1,1,0,0,1,2,0v4.08A1,1,0,0,1,508.416,529.828Zm32-3.825a1,1,0,0,1-1-1v-4.079a1,1,0,0,1,2,0V525A1,1,0,0,1,540.416,526Zm-32-4.334a1,1,0,0,1-1-1v-3.777c0-.114,0-.227.007-.341a1,1,0,1,1,2,.078c0,.087,0,.175,0,.263v3.777A1,1,0,0,1,508.416,521.669Zm32-3.825a1,1,0,0,1-1-.994,7,7,0,0,0-.908-3.41,1,1,0,0,1,1.738-.988,9,9,0,0,1,1.17,4.386,1,1,0,0,1-.994,1.006Zm-30.835-4.116a.989.989,0,0,1-.52-.147,1,1,0,0,1-.333-1.375,9.053,9.053,0,0,1,3.262-3.153,1,1,0,1,1,.985,1.74,7.048,7.048,0,0,0-2.539,2.456A1,1,0,0,1,509.582,513.728Zm26.984-2.677a.989.989,0,0,1-.517-.146,7.013,7.013,0,0,0-3.382-1.009,1,1,0,0,1,.07-2,9,9,0,0,1,4.349,1.3,1,1,0,0,1-.52,1.855Zm-7.944-1.159h-4.079a1,1,0,0,1,0-2h4.079a1,1,0,0,1,0,2Zm-8.158,0h-4.048a1.013,1.013,0,0,1-1.016-1,.986.986,0,0,1,.984-1v1l0-1h4.077a1,1,0,0,1,0,2Z" fill="#444e59"/><path d="M484.336,541.892a1,1,0,0,1,0-2h4.08a1.026,1.026,0,0,1,1.031,1,.974.974,0,0,1-.968,1v-1l-.022,1Zm-4.079,0h-4.08a1,1,0,0,1,0-2h4.08a1,1,0,1,1,0,2Zm-8.158-.006h-.039a8.991,8.991,0,0,1-4.345-1.317,1,1,0,0,1,1.046-1.7,6.991,6.991,0,0,0,3.376,1.024,1,1,0,0,1-.038,2Zm20.276-1.04a1,1,0,0,1-.5-1.868,7.067,7.067,0,0,0,2.53-2.466,1,1,0,1,1,1.711,1.035,9.063,9.063,0,0,1-3.249,3.167A.991.991,0,0,1,492.375,540.846ZM465.44,537.81a1,1,0,0,1-.873-.51,9,9,0,0,1-1.151-4.39,1,1,0,0,1,1-1h0a1,1,0,0,1,1,1,6.991,6.991,0,0,0,.895,3.413,1,1,0,0,1-.871,1.491Zm30.972-3.648h-.034a1,1,0,0,1-.966-1.031l0-.238v-3.81a1,1,0,0,1,2,0l0,4.112A1,1,0,0,1,496.412,534.162Zm-32-4.334a1,1,0,0,1-1-1v-4.08a1,1,0,0,1,2,0v4.08A1,1,0,0,1,464.416,529.828Zm32-3.825a1,1,0,0,1-1-1v-4.079a1,1,0,0,1,2,0V525A1,1,0,0,1,496.416,526Zm-32-4.334a1,1,0,0,1-1-1v-3.777c0-.114,0-.227.006-.341a.982.982,0,0,1,1.038-.96,1,1,0,0,1,.96,1.038c0,.087,0,.175,0,.263v3.777A1,1,0,0,1,464.416,521.669Zm32-3.825a1,1,0,0,1-1-.994,6.993,6.993,0,0,0-.909-3.41,1,1,0,0,1,1.74-.988,9.017,9.017,0,0,1,1.169,4.386,1,1,0,0,1-1,1.006Zm-30.833-4.116a1,1,0,0,1-.853-1.522,9.045,9.045,0,0,1,3.262-3.153,1,1,0,1,1,.985,1.74,7.051,7.051,0,0,0-2.54,2.456A1,1,0,0,1,465.583,513.728Zm26.983-2.677a.99.99,0,0,1-.518-.146,7.009,7.009,0,0,0-3.381-1.009,1,1,0,1,1,.07-2,9.008,9.008,0,0,1,4.349,1.3,1,1,0,0,1-.52,1.855Zm-7.944-1.159h-4.079a1,1,0,0,1,0-2h4.079a1,1,0,0,1,0,2Zm-8.159,0h-4.047a1.014,1.014,0,0,1-1.017-1,.987.987,0,0,1,.985-1h4.079a1,1,0,0,1,0,2Z" fill="#444e59"/><path d="M443.919,493.891h-4.143a1,1,0,0,1,0-2h4.08a1.027,1.027,0,0,1,1.031,1A.974.974,0,0,1,443.919,493.891Zm-8.222,0h-4.079a1,1,0,0,1,0-2H435.7a1,1,0,0,1,0,2Zm-8.158-.006H427.5a8.994,8.994,0,0,1-4.344-1.317,1,1,0,1,1,1.045-1.7,7,7,0,0,0,3.377,1.024,1,1,0,0,1-.039,2Zm20.276-1.04a1,1,0,0,1-.5-1.868,7.062,7.062,0,0,0,2.531-2.466,1,1,0,0,1,1.711,1.036,9.05,9.05,0,0,1-3.25,3.167A1,1,0,0,1,447.815,492.845Zm-26.935-3.036a1,1,0,0,1-.873-.51,9.012,9.012,0,0,1-1.151-4.39,1,1,0,0,1,1-1h0a1,1,0,0,1,1,1,7.007,7.007,0,0,0,.894,3.413,1,1,0,0,1-.381,1.362A.986.986,0,0,1,420.88,489.809Zm30.972-3.647h-.033a1,1,0,0,1-.967-1.033l0-.238v-3.808a1,1,0,0,1,2,0l0,4.112A1,1,0,0,1,451.852,486.162Zm-32-4.335a1,1,0,0,1-1-1v-4.079a1,1,0,0,1,2,0v4.079A1,1,0,0,1,419.856,481.827Zm32-3.824a1,1,0,0,1-1-1v-4.079a1,1,0,0,1,2,0V477A1,1,0,0,1,451.856,478Zm-32-4.335a1,1,0,0,1-1-1v-3.777c0-.114,0-.227.007-.341a.989.989,0,0,1,1.038-.96,1,1,0,0,1,.96,1.038c0,.087,0,.175,0,.263v3.777A1,1,0,0,1,419.856,473.668Zm32-3.824a1,1,0,0,1-1-.994,6.985,6.985,0,0,0-.908-3.41,1,1,0,0,1,1.74-.987,9,9,0,0,1,1.168,4.386,1,1,0,0,1-1,1Zm-30.833-4.117a1,1,0,0,1-.853-1.521,9.034,9.034,0,0,1,3.263-3.154,1,1,0,0,1,.983,1.741,7.045,7.045,0,0,0-2.539,2.455A1,1,0,0,1,421.023,465.727Zm26.984-2.676a1,1,0,0,1-.519-.145,6.987,6.987,0,0,0-3.381-1.01,1,1,0,0,1,.071-2,9,9,0,0,1,4.349,1.3,1,1,0,0,1-.52,1.854Zm-7.944-1.16h-4.08a1,1,0,0,1,0-2h4.08a1,1,0,0,1,0,2Zm-8.159,0h-4.048a1.013,1.013,0,0,1-1.015-1,.987.987,0,0,1,.984-1H431.9a1,1,0,0,1,0,2Z" fill="#444e59"/><path d="M532.479,493.891h-4.142a1,1,0,0,1,0-2h4.079a1.027,1.027,0,0,1,1.031,1A.974.974,0,0,1,532.479,493.891Zm-8.222,0h-4.079a1,1,0,0,1,0-2h4.079a1,1,0,0,1,0,2Zm-8.158-.006h-.04a9,9,0,0,1-4.344-1.316,1,1,0,1,1,1.045-1.7,7.008,7.008,0,0,0,3.377,1.023,1,1,0,0,1-.038,2Zm20.275-1.04a1,1,0,0,1-.5-1.869,7.056,7.056,0,0,0,2.53-2.465,1,1,0,1,1,1.711,1.036,9.049,9.049,0,0,1-3.251,3.166A.984.984,0,0,1,536.374,492.845Zm-26.934-3.036a1,1,0,0,1-.872-.509,9,9,0,0,1-1.151-4.391,1,1,0,0,1,1-1h0a1,1,0,0,1,1,1,6.989,6.989,0,0,0,.894,3.412,1,1,0,0,1-.871,1.491Zm30.972-3.647h-.033a1,1,0,0,1-.967-1.032l0-.238v-3.809a1,1,0,0,1,2,0l-.006,4.112A1,1,0,0,1,540.412,486.162Zm-32-4.334a1,1,0,0,1-1-1v-4.08a1,1,0,0,1,2,0v4.08A1,1,0,0,1,508.416,481.828Zm32-3.825a1,1,0,0,1-1-1v-4.08a1,1,0,0,1,2,0V477A1,1,0,0,1,540.416,478Zm-32-4.334a1,1,0,0,1-1-1v-3.778c0-.114,0-.227.007-.341a.987.987,0,0,1,1.038-.96,1,1,0,0,1,.96,1.038c0,.087,0,.175,0,.263v3.778A1,1,0,0,1,508.416,473.669Zm32-3.825a1,1,0,0,1-1-1,6.994,6.994,0,0,0-.908-3.409,1,1,0,0,1,1.738-.988,9,9,0,0,1,1.17,4.386,1,1,0,0,1-.994,1.006Zm-30.833-4.117a1,1,0,0,1-.853-1.521,9.058,9.058,0,0,1,3.262-3.155,1,1,0,0,1,.985,1.741,7.04,7.04,0,0,0-2.539,2.456A1,1,0,0,1,509.583,465.727Zm26.983-2.676a1,1,0,0,1-.518-.145,6.99,6.99,0,0,0-3.381-1.01,1,1,0,0,1-.964-1.035,1.02,1.02,0,0,1,1.034-.965,9,9,0,0,1,4.35,1.3,1,1,0,0,1-.521,1.854Zm-7.943-1.16h-4.08a1,1,0,0,1,0-2h4.08a1,1,0,0,1,0,2Zm-8.159,0h-4.048a1.013,1.013,0,0,1-1.016-1,.986.986,0,0,1,.985-1v1l.006-1h4.073a1,1,0,0,1,0,2Z" fill="#444e59"/><path d="M488.478,493.891h-4.142a1,1,0,0,1,0-2h4.08a1.027,1.027,0,0,1,1.031,1A.974.974,0,0,1,488.478,493.891Zm-8.221,0h-4.08a1,1,0,0,1,0-2h4.08a1,1,0,0,1,0,2Zm-8.158-.006h-.04a9,9,0,0,1-4.344-1.316,1,1,0,1,1,1.045-1.7,7.011,7.011,0,0,0,3.377,1.023,1,1,0,0,1-.038,2Zm20.276-1.04a1,1,0,0,1-.5-1.868,7.051,7.051,0,0,0,2.53-2.466,1,1,0,0,1,1.711,1.036,9.055,9.055,0,0,1-3.249,3.167A1,1,0,0,1,492.375,492.845Zm-26.935-3.036a1,1,0,0,1-.873-.51,9.012,9.012,0,0,1-1.151-4.39,1,1,0,0,1,1-1h0a1,1,0,0,1,1,1,7,7,0,0,0,.895,3.413,1,1,0,0,1-.382,1.362A.986.986,0,0,1,465.44,489.809Zm30.972-3.647h-.034a1,1,0,0,1-.966-1.032l0-.238v-3.808a1,1,0,0,1,2,0l0,4.111A1,1,0,0,1,496.412,486.162Zm-32-4.334a1,1,0,0,1-1-1v-4.08a1,1,0,0,1,2,0v4.08A1,1,0,0,1,464.416,481.828Zm32-3.825a1,1,0,0,1-1-1v-4.08a1,1,0,0,1,2,0V477A1,1,0,0,1,496.416,478Zm-32-4.335a1,1,0,0,1-1-1v-3.777c0-.114,0-.227.006-.341a.989.989,0,0,1,1.038-.96,1,1,0,0,1,.96,1.038c0,.087,0,.175,0,.263v3.777A1,1,0,0,1,464.416,473.668Zm32-3.824a1,1,0,0,1-1-.994,6.993,6.993,0,0,0-.909-3.41,1,1,0,0,1,1.74-.987,9.01,9.01,0,0,1,1.169,4.385,1,1,0,0,1-1,1.006Zm-30.833-4.117a1,1,0,0,1-.853-1.521,9.042,9.042,0,0,1,3.263-3.154,1,1,0,0,1,.984,1.741,7.029,7.029,0,0,0-2.539,2.455A1,1,0,0,1,465.583,465.727Zm26.983-2.676a1,1,0,0,1-.519-.145,6.986,6.986,0,0,0-3.38-1.01,1,1,0,1,1,.07-2,9,9,0,0,1,4.349,1.3,1,1,0,0,1-.52,1.854Zm-7.943-1.16h-4.08a1,1,0,0,1,0-2h4.08a1,1,0,0,1,0,2Zm-8.16,0h-4.047a1.014,1.014,0,0,1-1.016-1,.987.987,0,0,1,.984-1h4.079a1,1,0,0,1,0,2Z" fill="#444e59"/><path d="M443.919,445.891h-4.143a1,1,0,0,1,0-2h4.08a1.027,1.027,0,0,1,1.031,1A.974.974,0,0,1,443.919,445.891Zm-8.222,0h-4.079a1,1,0,0,1,0-2H435.7a1,1,0,0,1,0,2Zm-8.158-.006H427.5a8.994,8.994,0,0,1-4.344-1.317,1,1,0,1,1,1.045-1.7,7,7,0,0,0,3.377,1.024,1,1,0,0,1-.039,2Zm20.276-1.04a1,1,0,0,1-.5-1.868,7.062,7.062,0,0,0,2.531-2.466,1,1,0,0,1,1.711,1.036,9.05,9.05,0,0,1-3.25,3.167A1,1,0,0,1,447.815,444.845Zm-26.935-3.036a1,1,0,0,1-.873-.51,9.012,9.012,0,0,1-1.151-4.39,1,1,0,0,1,1-1h0a1,1,0,0,1,1,1,7.007,7.007,0,0,0,.894,3.413,1,1,0,0,1-.381,1.362A.986.986,0,0,1,420.88,441.809Zm30.972-3.647h-.033a1,1,0,0,1-.967-1.033l0-.238v-3.808a1,1,0,0,1,2,0l0,4.112A1,1,0,0,1,451.852,438.162Zm-32-4.335a1,1,0,0,1-1-1v-4.079a1,1,0,0,1,2,0v4.079A1,1,0,0,1,419.856,433.827Zm32-3.824a1,1,0,0,1-1-1v-4.079a1,1,0,0,1,2,0V429A1,1,0,0,1,451.856,430Zm-32-4.335a1,1,0,0,1-1-1v-3.777c0-.114,0-.227.007-.341a1,1,0,1,1,2,.078c0,.087,0,.175,0,.263v3.777A1,1,0,0,1,419.856,425.668Zm32-3.824a1,1,0,0,1-1-.994,6.985,6.985,0,0,0-.908-3.41,1,1,0,0,1,1.74-.987,9,9,0,0,1,1.168,4.386,1,1,0,0,1-1,1Zm-30.833-4.117a1,1,0,0,1-.853-1.521,9.034,9.034,0,0,1,3.263-3.154,1,1,0,0,1,.983,1.741,7.045,7.045,0,0,0-2.539,2.455A1,1,0,0,1,421.023,417.727Zm26.984-2.676a1,1,0,0,1-.519-.145,6.987,6.987,0,0,0-3.381-1.01,1,1,0,0,1-.964-1.035,1.021,1.021,0,0,1,1.035-.965,9,9,0,0,1,4.349,1.3,1,1,0,0,1-.52,1.854Zm-7.944-1.16h-4.08a1,1,0,0,1,0-2h4.08a1,1,0,0,1,0,2Zm-8.159,0h-4.048a1.013,1.013,0,0,1-1.015-1,.987.987,0,0,1,.984-1H431.9a1,1,0,0,1,0,2Z" fill="#444e59"/><path d="M532.479,445.891h-4.142a1,1,0,0,1,0-2h4.079a1.027,1.027,0,0,1,1.031,1A.974.974,0,0,1,532.479,445.891Zm-8.222,0h-4.079a1,1,0,0,1,0-2h4.079a1,1,0,0,1,0,2Zm-8.158-.006h-.04a9,9,0,0,1-4.344-1.316,1,1,0,1,1,1.045-1.7,7.008,7.008,0,0,0,3.377,1.023,1,1,0,0,1-.038,2Zm20.275-1.04a1,1,0,0,1-.5-1.869,7.056,7.056,0,0,0,2.53-2.465,1,1,0,1,1,1.711,1.036,9.049,9.049,0,0,1-3.251,3.166A.984.984,0,0,1,536.374,444.845Zm-26.934-3.036a1,1,0,0,1-.872-.509,9,9,0,0,1-1.151-4.391,1,1,0,0,1,1-1h0a1,1,0,0,1,1,1,6.989,6.989,0,0,0,.894,3.412,1,1,0,0,1-.871,1.491Zm30.972-3.647h-.033a1,1,0,0,1-.967-1.032l0-.238v-3.809a1,1,0,0,1,2,0l-.006,4.112A1,1,0,0,1,540.412,438.162Zm-32-4.334a1,1,0,0,1-1-1v-4.08a1,1,0,0,1,2,0v4.08A1,1,0,0,1,508.416,433.828Zm32-3.825a1,1,0,0,1-1-1v-4.08a1,1,0,0,1,2,0V429A1,1,0,0,1,540.416,430Zm-32-4.334a1,1,0,0,1-1-1v-3.778c0-.114,0-.227.007-.341a.99.99,0,0,1,1.038-.96,1,1,0,0,1,.96,1.038c0,.087,0,.175,0,.263v3.778A1,1,0,0,1,508.416,425.669Zm32-3.825a1,1,0,0,1-1-1,6.994,6.994,0,0,0-.908-3.409,1,1,0,0,1,1.738-.988,9,9,0,0,1,1.17,4.386,1,1,0,0,1-.994,1.006Zm-30.833-4.117a1,1,0,0,1-.853-1.521,9.058,9.058,0,0,1,3.262-3.155,1,1,0,0,1,.985,1.741,7.04,7.04,0,0,0-2.539,2.456A1,1,0,0,1,509.583,417.727Zm26.983-2.676a1,1,0,0,1-.518-.145,6.99,6.99,0,0,0-3.381-1.01,1,1,0,0,1-.964-1.035,1.02,1.02,0,0,1,1.034-.965,9,9,0,0,1,4.35,1.3,1,1,0,0,1-.521,1.854Zm-7.943-1.16h-4.08a1,1,0,0,1,0-2h4.08a1,1,0,0,1,0,2Zm-8.159,0h-4.048a1.013,1.013,0,0,1-1.016-1,.986.986,0,0,1,.985-1v1l.006-1h4.073a1,1,0,0,1,0,2Z" fill="#444e59"/><path d="M488.478,445.891h-4.142a1,1,0,0,1,0-2h4.08a1.027,1.027,0,0,1,1.031,1A.974.974,0,0,1,488.478,445.891Zm-8.221,0h-4.08a1,1,0,0,1,0-2h4.08a1,1,0,0,1,0,2Zm-8.158-.006h-.04a9,9,0,0,1-4.344-1.316,1,1,0,1,1,1.045-1.7,7.011,7.011,0,0,0,3.377,1.023,1,1,0,0,1-.038,2Zm20.276-1.04a1,1,0,0,1-.5-1.868,7.051,7.051,0,0,0,2.53-2.466,1,1,0,0,1,1.711,1.036,9.055,9.055,0,0,1-3.249,3.167A1,1,0,0,1,492.375,444.845Zm-26.935-3.036a1,1,0,0,1-.873-.51,9.012,9.012,0,0,1-1.151-4.39,1,1,0,0,1,1-1h0a1,1,0,0,1,1,1,7,7,0,0,0,.895,3.413,1,1,0,0,1-.382,1.362A.986.986,0,0,1,465.44,441.809Zm30.972-3.647h-.034a1,1,0,0,1-.966-1.032l0-.238v-3.808a1,1,0,0,1,2,0l0,4.111A1,1,0,0,1,496.412,438.162Zm-32-4.334a1,1,0,0,1-1-1v-4.08a1,1,0,0,1,2,0v4.08A1,1,0,0,1,464.416,433.828Zm32-3.825a1,1,0,0,1-1-1v-4.08a1,1,0,0,1,2,0V429A1,1,0,0,1,496.416,430Zm-32-4.335a1,1,0,0,1-1-1v-3.777c0-.114,0-.227.006-.341a1,1,0,0,1,2,.078c0,.087,0,.175,0,.263v3.777A1,1,0,0,1,464.416,425.668Zm32-3.824a1,1,0,0,1-1-.994,6.993,6.993,0,0,0-.909-3.41,1,1,0,0,1,1.74-.987,9.01,9.01,0,0,1,1.169,4.385,1,1,0,0,1-1,1.006Zm-30.833-4.117a1,1,0,0,1-.853-1.521,9.042,9.042,0,0,1,3.263-3.154,1,1,0,0,1,.984,1.741,7.029,7.029,0,0,0-2.539,2.455A1,1,0,0,1,465.583,417.727Zm26.983-2.676a1,1,0,0,1-.519-.145,6.986,6.986,0,0,0-3.38-1.01,1,1,0,0,1-.965-1.035,1.021,1.021,0,0,1,1.035-.965,9,9,0,0,1,4.349,1.3,1,1,0,0,1-.52,1.854Zm-7.943-1.16h-4.08a1,1,0,0,1,0-2h4.08a1,1,0,0,1,0,2Zm-8.16,0h-4.047a1.014,1.014,0,0,1-1.016-1,.987.987,0,0,1,.984-1h4.079a1,1,0,0,1,0,2Z" fill="#444e59"/></g><rect x="419.856" y="556.891" width="32" height="32" rx="8" fill="#71a850"/><path d="M443.851,556.891h-16a7.994,7.994,0,0,0-7.238,4.61l31.238,5.625v-2.235A8,8,0,0,0,443.851,556.891Z" fill="#5f8c42" opacity="0.52"/><path d="M443.856,590.892h-16a10.012,10.012,0,0,1-10-10v-16a10.011,10.011,0,0,1,10-10h16a10.011,10.011,0,0,1,10,10v16A10.012,10.012,0,0,1,443.856,590.892Zm-16-32a6.006,6.006,0,0,0-6,6v16a6.007,6.007,0,0,0,6,6h16a6.007,6.007,0,0,0,6-6v-16a6.006,6.006,0,0,0-6-6Z" fill="#444e59"/><rect x="464.416" y="556.891" width="32" height="32" rx="8" fill="#f09f54"/><path d="M488.416,556.891h-16a7.993,7.993,0,0,0-7.238,4.61l31.238,5.625v-2.235A8,8,0,0,0,488.416,556.891Z" fill="#d38444" opacity="0.52"/><path d="M488.416,590.892h-16a10.011,10.011,0,0,1-10-10v-16a10.011,10.011,0,0,1,10-10h16a10.011,10.011,0,0,1,10,10v16A10.012,10.012,0,0,1,488.416,590.892Zm-16-32a6.006,6.006,0,0,0-6,6v16a6.007,6.007,0,0,0,6,6h16a6.007,6.007,0,0,0,6-6v-16a6.007,6.007,0,0,0-6-6Z" fill="#444e59"/><rect x="508.416" y="508.891" width="32" height="32" rx="8" fill="#2fa9ed"/><path d="M532.416,508.891h-16a7.993,7.993,0,0,0-7.238,4.61l31.238,5.625v-2.235A8,8,0,0,0,532.416,508.891Z" fill="#288fbc" opacity="0.52"/><path d="M532.416,542.892h-16a10.012,10.012,0,0,1-10-10v-16a10.011,10.011,0,0,1,10-10h16a10.011,10.011,0,0,1,10,10v16A10.012,10.012,0,0,1,532.416,542.892Zm-16-32a6.006,6.006,0,0,0-6,6v16a6.007,6.007,0,0,0,6,6h16a6.007,6.007,0,0,0,6-6v-16a6.006,6.006,0,0,0-6-6Z" fill="#444e59"/><rect x="464.416" y="460.891" width="32" height="32" rx="8" fill="#e7534e"/><path d="M488.416,460.891h-16a7.993,7.993,0,0,0-7.238,4.61l31.238,5.625v-2.235A8,8,0,0,0,488.416,460.891Z" fill="#bf4040" opacity="0.52"/><path d="M488.416,494.891h-16a10.011,10.011,0,0,1-10-10v-16a10.011,10.011,0,0,1,10-10h16a10.011,10.011,0,0,1,10,10v16A10.011,10.011,0,0,1,488.416,494.891Zm-16-32a6.007,6.007,0,0,0-6,6v16a6.006,6.006,0,0,0,6,6h16a6.007,6.007,0,0,0,6-6v-16a6.007,6.007,0,0,0-6-6Z" fill="#444e59"/><path d="M521.811,517.865l9.194,5.308a1.984,1.984,0,0,1,0,3.436l-9.194,5.309a1.984,1.984,0,0,1-2.976-1.719V519.583A1.984,1.984,0,0,1,521.811,517.865Z" fill="#fff"/><path d="M484.63,566.683H476.2a3.242,3.242,0,0,0-3.242,3.242v6.186a3.243,3.243,0,0,0,3.242,3.242h.256l-.7,2.8a.226.226,0,0,0,.351.24l4.262-3.037h4.257a3.243,3.243,0,0,0,3.242-3.242v-6.186A3.242,3.242,0,0,0,484.63,566.683Z" fill="#fff"/><path d="M434.323,578.923a3.277,3.277,0,0,1-2.325-.962l-3.674-3.674a2,2,0,0,1,2.828-2.828l3.171,3.171,7.756-7.756a2,2,0,0,1,2.828,2.828l-8.259,8.259A3.278,3.278,0,0,1,434.323,578.923Z" fill="#fff"/><path d="M480.416,486.348a9.457,9.457,0,1,1,9.456-9.457A9.468,9.468,0,0,1,480.416,486.348Zm0-14.913a5.457,5.457,0,1,0,5.456,5.456A5.463,5.463,0,0,0,480.416,471.435Z" fill="#fff"/><path d="M420.032,437.93l-.158-14.963-10.02.106a26.445,26.445,0,0,0-2.262-5.31l7.008-7.157-10.692-10.469-7.008,7.157a26.532,26.532,0,0,0-5.356-2.15l-.106-10.019-14.963.157.1,10.02a26.61,26.61,0,0,0-5.31,2.262l-7.157-7.008-10.469,10.693,7.157,7.008a26.505,26.505,0,0,0-2.149,5.356l-10.02.106.158,14.963,10.02-.106a26.469,26.469,0,0,0,2.262,5.31l-7.008,7.157,10.692,10.469,7.008-7.157a26.491,26.491,0,0,0,5.357,2.149l.105,10.02,14.963-.158-.105-10.019a26.576,26.576,0,0,0,5.309-2.262l7.158,7.007L415.02,450.4l-7.157-7.008a26.505,26.505,0,0,0,2.149-5.356ZM384.455,442.5a11.68,11.68,0,1,1,11.557-11.8A11.681,11.681,0,0,1,384.455,442.5Z" fill="#fff"/><path d="M420.032,437.93l-.158-14.963-10.02.106a26.445,26.445,0,0,0-2.262-5.31l7.008-7.157-10.692-10.469-7.008,7.157a26.532,26.532,0,0,0-5.356-2.15l-.106-10.019-14.963.157.1,10.02a26.61,26.61,0,0,0-5.31,2.262l-7.157-7.008-10.469,10.693,7.157,7.008a26.505,26.505,0,0,0-2.149,5.356l-10.02.106.158,14.963,10.02-.106a26.469,26.469,0,0,0,2.262,5.31l-7.008,7.157,10.692,10.469,7.008-7.157a26.491,26.491,0,0,0,5.357,2.149l.105,10.02,14.963-.158-.105-10.019a26.576,26.576,0,0,0,5.309-2.262l7.158,7.007L415.02,450.4l-7.157-7.008a26.505,26.505,0,0,0,2.149-5.356ZM384.455,442.5a11.68,11.68,0,1,1,11.557-11.8A11.681,11.681,0,0,1,384.455,442.5Z" fill="#f09f54"/><path d="M420.032,437.93l-.158-14.963-10.02.106a26.445,26.445,0,0,0-2.262-5.31l7.008-7.157-10.692-10.469-7.008,7.157a26.532,26.532,0,0,0-5.356-2.15l-.106-10.019-14.963.157.1,10.02a26.61,26.61,0,0,0-5.31,2.262l-7.157-7.008-10.469,10.693,7.157,7.008a26.505,26.505,0,0,0-2.149,5.356l-10.02.106.158,14.963,10.02-.106a26.469,26.469,0,0,0,2.262,5.31l-7.008,7.157,10.692,10.469,7.008-7.157a26.491,26.491,0,0,0,5.357,2.149l.105,10.02,14.963-.158-.105-10.019a26.576,26.576,0,0,0,5.309-2.262l7.158,7.007L415.02,450.4l-7.157-7.008a26.505,26.505,0,0,0,2.149-5.356ZM384.455,442.5a11.68,11.68,0,1,1,11.557-11.8A11.681,11.681,0,0,1,384.455,442.5Z" fill="#f09f54"/><g opacity="0.29" style="mix-blend-mode:multiply"><path d="M416.157,423.006c.007.023.015.044.022.067l3.7-.039v-.067Z" fill="#f09f54"/><path d="M403.224,407.294l3.913-4-3.229-3.162-5.168,5.278A26.406,26.406,0,0,1,403.224,407.294Z" fill="#f09f54"/><path d="M390.533,419.145a11.678,11.678,0,0,0-3.028.443,11.669,11.669,0,0,1-.022,22.472,11.678,11.678,0,1,0,3.05-22.915Z" fill="#f09f54"/><path d="M375.613,405.624l1.982,1.94a26.5,26.5,0,0,1,5.31-2.262l-.106-10.02,8.64-.091v-.066l-14.963.157.1,10.02C376.254,405.4,375.934,405.513,375.613,405.624Z" fill="#f09f54"/><path d="M383.445,456.5a26.538,26.538,0,0,1-5.357-2.149l-1.84,1.879c.29.092.578.188.873.27l.105,10.02,6.324-.067Z" fill="#f09f54"/><path d="M354.957,423.719l10.019-.106a26.508,26.508,0,0,1,2.15-5.356l-7.157-7.008,7.373-7.531-3.229-3.162-10.469,10.693,7.157,7.008a26.505,26.505,0,0,0-2.149,5.356l-10.02.106.158,14.963,6.324-.067Z" fill="#f09f54"/><path d="M403.718,454.084a26.393,26.393,0,0,1-4.343,1.941l5.176,5.067,3.1-3.161Z" fill="#f09f54"/><path d="M360.389,451.043l7.007-7.157a26.585,26.585,0,0,1-2.262-5.31l-6.3.066a26.486,26.486,0,0,0,2.24,5.244l-7.008,7.157,10.692,10.469,3.1-3.162Z" fill="#f09f54"/></g><path d="M377.226,468.524a2,2,0,0,1-2-1.979l-.09-8.561a28.389,28.389,0,0,1-2.963-1.189l-5.988,6.116a2,2,0,0,1-1.408.6,2.094,2.094,0,0,1-1.421-.571l-10.691-10.469a2,2,0,0,1-.03-2.828l5.988-6.116a28.424,28.424,0,0,1-1.251-2.937l-8.561.091a2.032,2.032,0,0,1-2.021-1.979l-.158-14.963a2,2,0,0,1,1.979-2.021l8.561-.091a28.811,28.811,0,0,1,1.188-2.962l-6.115-5.988a2,2,0,0,1-.03-2.828l10.469-10.693a2,2,0,0,1,1.408-.6,2.041,2.041,0,0,1,1.42.571l6.116,5.988a28.638,28.638,0,0,1,2.937-1.25l-.09-8.561a2,2,0,0,1,1.979-2.021l14.963-.158a1.965,1.965,0,0,1,1.42.57,2,2,0,0,1,.6,1.409l.09,8.561a28.382,28.382,0,0,1,2.963,1.188l5.988-6.116a2,2,0,0,1,2.828-.029L416,409.177a2,2,0,0,1,.029,2.828l-5.987,6.115a28.749,28.749,0,0,1,1.25,2.938l8.561-.091a1.97,1.97,0,0,1,1.42.571,2,2,0,0,1,.6,1.408l.158,14.963a2,2,0,0,1-1.979,2.021l-8.561.09a28.828,28.828,0,0,1-1.188,2.963l6.115,5.988a2,2,0,0,1,.03,2.828L405.98,462.492a2,2,0,0,1-2.829.029l-6.115-5.987a28.828,28.828,0,0,1-2.937,1.25l.09,8.561a2,2,0,0,1-1.979,2.021l-14.963.158Zm-5.462-16.17a2,2,0,0,1,.944.237,24.562,24.562,0,0,0,4.952,1.988,2,2,0,0,1,1.461,1.9l.084,8.02,10.963-.116-.085-8.019a2,2,0,0,1,1.42-1.935,24.521,24.521,0,0,0,4.91-2.092,2,2,0,0,1,2.38.314l5.728,5.609,7.671-7.834-5.729-5.609a2,2,0,0,1-.364-2.372,24.532,24.532,0,0,0,1.987-4.953,2,2,0,0,1,1.9-1.46l8.02-.085-.116-10.963-8.02.085a1.993,1.993,0,0,1-1.935-1.42,24.518,24.518,0,0,0-2.091-4.91,2,2,0,0,1,.314-2.38l5.609-5.727-7.834-7.671-5.609,5.728a2,2,0,0,1-2.372.364A24.611,24.611,0,0,0,391,407.07a2,2,0,0,1-1.46-1.9l-.084-8.019-10.963.115.085,8.02a2,2,0,0,1-1.42,1.935,24.568,24.568,0,0,0-4.91,2.091,2,2,0,0,1-2.38-.313l-5.728-5.61-7.671,7.835,5.729,5.609a2,2,0,0,1,.363,2.373,24.544,24.544,0,0,0-1.986,4.952,2,2,0,0,1-1.9,1.46l-8.02.084.116,10.964,8.02-.085a1.988,1.988,0,0,1,1.935,1.42,24.543,24.543,0,0,0,2.091,4.909,2,2,0,0,1-.314,2.38l-5.609,5.728,7.834,7.671,5.608-5.729A2,2,0,0,1,371.764,452.354Zm12.566-7.85a13.513,13.513,0,1,1,.146,0l-.021-2,.021,2Zm0-23.36h-.1a9.637,9.637,0,1,0,.1,0Z" fill="#444e59"/><rect x="226.416" y="554.81" width="138.475" height="99.358" rx="7.359" fill="#444e59"/><path d="M233.775,554.81H357.531a7.36,7.36,0,0,1,7.36,7.36v8.72a0,0,0,0,1,0,0H226.416a0,0,0,0,1,0,0v-8.721A7.359,7.359,0,0,1,233.775,554.81Z" fill="#bcbcbc"/><path d="M357.532,656.168H233.775a9.369,9.369,0,0,1-9.359-9.359v-84.64a9.369,9.369,0,0,1,9.359-9.358H357.532a9.369,9.369,0,0,1,9.359,9.358v84.64A9.37,9.37,0,0,1,357.532,656.168ZM233.775,556.811a5.364,5.364,0,0,0-5.359,5.358v84.64a5.365,5.365,0,0,0,5.359,5.359H357.532a5.365,5.365,0,0,0,5.359-5.359v-84.64a5.364,5.364,0,0,0-5.359-5.358Z" fill="#444e59"/><path d="M357.532,656.168H233.775a9.369,9.369,0,0,1-9.359-9.359v-84.64a9.369,9.369,0,0,1,9.359-9.358H357.532a9.369,9.369,0,0,1,9.359,9.358v84.64A9.37,9.37,0,0,1,357.532,656.168ZM233.775,556.811a5.364,5.364,0,0,0-5.359,5.358v84.64a5.365,5.365,0,0,0,5.359,5.359H357.532a5.365,5.365,0,0,0,5.359-5.359v-84.64a5.364,5.364,0,0,0-5.359-5.358Z" fill="#444e59"/><path d="M364.891,572.891H226.416a2,2,0,0,1-2-2v-8.722a9.369,9.369,0,0,1,9.359-9.358H357.531a9.37,9.37,0,0,1,9.36,9.359v8.721A2,2,0,0,1,364.891,572.891Zm-136.475-4H362.891V562.17a5.366,5.366,0,0,0-5.36-5.359H233.775a5.364,5.364,0,0,0-5.359,5.358Z" fill="#444e59"/><path d="M261.12,643.494H245.54a2,2,0,1,1,0-4h15.58a2,2,0,0,1,0,4Z" fill="#fff"/><path d="M235.594,643.494h-1.087a2,2,0,1,1,0-4h1.087a2,2,0,0,1,0,4Z" fill="#fff"/><path d="M285.024,634.869H245.54a2,2,0,1,1,0-4h39.484a2,2,0,0,1,0,4Z" fill="#fff"/><path d="M235.594,634.869h-1.087a2,2,0,1,1,0-4h1.087a2,2,0,0,1,0,4Z" fill="#fff"/><path d="M314.57,626.245H303.827a2,2,0,0,1,0-4H314.57a2,2,0,1,1,0,4Z" fill="#64bdff"/><path d="M294.425,626.245h-20.01a2,2,0,0,1,0-4h20.01a2,2,0,1,1,0,4Z" fill="#fff"/><path d="M265.282,626.245H245.54a2,2,0,1,1,0-4h19.742a2,2,0,1,1,0,4Z" fill="#ff5f5f"/><path d="M235.594,626.245h-1.087a2,2,0,1,1,0-4h1.087a2,2,0,0,1,0,4Z" fill="#fff"/><path d="M327.009,617.62H278.846a2,2,0,0,1,0-4h48.163a2,2,0,0,1,0,4Z" fill="#fff"/><path d="M270.654,617.62H245.54a2,2,0,1,1,0-4h25.114a2,2,0,0,1,0,4Z" fill="#64bdff"/><path d="M235.594,617.62h-1.087a2,2,0,1,1,0-4h1.087a2,2,0,0,1,0,4Z" fill="#fff"/><path d="M296.842,609h-18a2,2,0,0,1,0-4h18a2,2,0,0,1,0,4Z" fill="#ff5f5f"/><path d="M270.654,609H245.54a2,2,0,1,1,0-4h25.114a2,2,0,0,1,0,4Z" fill="#ffbe78"/><path d="M235.594,609h-1.087a2,2,0,1,1,0-4h1.087a2,2,0,0,1,0,4Z" fill="#fff"/><path d="M287.173,600.37h-4.835a2,2,0,0,1,0-4h4.835a2,2,0,0,1,0,4Z" fill="#64bdff"/><path d="M274.415,600.37H263.268a2,2,0,1,1,0-4h11.147a2,2,0,1,1,0,4Z" fill="#ff5f5f"/><path d="M254.672,600.37H245.54a2,2,0,1,1,0-4h9.132a2,2,0,1,1,0,4Z" fill="#c383f2"/><path d="M235.594,600.37h-1.087a2,2,0,1,1,0-4h1.087a2,2,0,0,1,0,4Z" fill="#fff"/><path d="M327.009,591.745h-8.677a2,2,0,0,1,0-4h8.677a2,2,0,0,1,0,4Z" fill="#64bdff"/><path d="M307.318,591.745H273.206a2,2,0,0,1,0-4h34.112a2,2,0,0,1,0,4Z" fill="#ff5f5f"/><path d="M265.82,591.745H245.54a2,2,0,1,1,0-4h20.28a2,2,0,1,1,0,4Z" fill="#ffbe78"/><path d="M235.594,591.745h-1.087a2,2,0,1,1,0-4h1.087a2,2,0,0,1,0,4Z" fill="#fff"/><path d="M314.57,583.12H296.842a2,2,0,0,1,0-4H314.57a2,2,0,1,1,0,4Z" fill="#ffbe78"/><path d="M288.248,583.12H274.415a2,2,0,0,1,0-4h13.833a2,2,0,0,1,0,4Z" fill="#6dbf7b"/><path d="M267.163,583.12h-7.79a2,2,0,1,1,0-4h7.79a2,2,0,0,1,0,4Z" fill="#ffbe78"/><path d="M251.852,583.12H245.54a2,2,0,1,1,0-4h6.312a2,2,0,0,1,0,4Z" fill="#6dbf7b"/><path d="M235.594,583.12h-1.087a2,2,0,1,1,0-4h1.087a2,2,0,0,1,0,4Z" fill="#fff"/><circle cx="240.068" cy="562.85" r="2.534" fill="#e7534e"/><circle cx="249.141" cy="562.85" r="2.534" fill="#444e59"/><circle cx="258.214" cy="562.85" r="2.534" fill="#444e59"/><rect x="309.199" y="482.85" width="105.587" height="96.853" rx="8" fill="#fff"/><rect x="309.199" y="482.85" width="105.587" height="96.853" rx="8" fill="#fff"/><path d="M406.786,581.7H317.2a10.011,10.011,0,0,1-10-10V490.85a10.011,10.011,0,0,1,10-10h89.587a10.011,10.011,0,0,1,10,10V571.7A10.011,10.011,0,0,1,406.786,581.7ZM317.2,484.85a6.007,6.007,0,0,0-6,6V571.7a6.006,6.006,0,0,0,6,6h89.587a6.007,6.007,0,0,0,6-6V490.85a6.007,6.007,0,0,0-6-6Z" fill="#444e59"/><rect x="318.331" y="491.037" width="86.751" height="57.667" fill="#9483c4"/><path d="M405.082,550.7h-86.75a2,2,0,0,1-2-2V491.037a2,2,0,0,1,2-2h86.75a2,2,0,0,1,2,2V548.7A2,2,0,0,1,405.082,550.7Zm-84.75-4h82.75V493.037h-82.75Z" fill="#444e59"/><path d="M373.082,559.892h-54.75a2,2,0,0,1,0-4h54.75a2,2,0,0,1,0,4Z" fill="#444e59"/><path d="M350.749,569.126H318.332a2,2,0,0,1,0-4h32.417a2,2,0,0,1,0,4Z" fill="#444e59"/><path d="M327.009,540.37a2,2,0,0,1-1.406-3.422l18.7-18.5a2,2,0,0,1,2.821.008l17.393,17.393a2,2,0,1,1-2.828,2.828L345.7,522.691l-17.284,17.1A1.992,1.992,0,0,1,327.009,540.37Z" fill="#444e59"/><path d="M395.75,540.37a1.993,1.993,0,0,1-1.586-.781l-21.2-27.569-16.517,18.435a2,2,0,0,1-2.98-2.67l18.125-20.228a2,2,0,0,1,3.075.116l22.667,29.478a2,2,0,0,1-1.584,3.219Z" fill="#444e59"/><path d="M395.508,568.992a6.907,6.907,0,1,1,6.908-6.907A6.915,6.915,0,0,1,395.508,568.992Zm0-9.814a2.907,2.907,0,1,0,2.908,2.907A2.91,2.91,0,0,0,395.508,559.178Z" fill="#444e59"/><circle cx="351.21" cy="508.923" r="6.156" fill="#f09f54"/><path d="M351.21,517.079a8.156,8.156,0,1,1,8.156-8.156A8.165,8.165,0,0,1,351.21,517.079Zm0-12.312a4.156,4.156,0,1,0,4.156,4.156A4.16,4.16,0,0,0,351.21,504.767Z" fill="#444e59"/><path d="M334.29,456.316H307.513a2,2,0,0,1,0-4H334.29a2,2,0,0,1,0,4Z" fill="#444e59"/><path d="M300.3,456.316h-7.073a2,2,0,0,1,0-4H300.3a2,2,0,0,1,0,4Z" fill="#444e59"/><path d="M334.29,443.891H320.9a2,2,0,0,1,0-4H334.29a2,2,0,0,1,0,4Z" fill="#444e59"/><path d="M314.124,443.891h-4a2,2,0,0,1,0-4h4a2,2,0,0,1,0,4Z" fill="#444e59"/><path d="M299.377,534.733H278.513a2,2,0,1,1,0-4h20.864a2,2,0,0,1,0,4Z" fill="#444e59"/><path d="M272.893,534.733h-5.512a2,2,0,0,1,0-4h5.512a2,2,0,1,1,0,4Z" fill="#444e59"/><path d="M299.377,522.309h-8.509a2,2,0,1,1,0-4h8.509a2,2,0,0,1,0,4Z" fill="#444e59"/><path d="M283.664,522.309h-3.117a2,2,0,0,1,0-4h3.117a2,2,0,0,1,0,4Z" fill="#444e59"/><path d="M631.638,389.629H611.772a2,2,0,0,1,0-4h19.866a2,2,0,0,1,0,4Z" fill="#444e59"/><path d="M605.153,389.629h-5.512a2,2,0,0,1,0-4h5.512a2,2,0,0,1,0,4Z" fill="#444e59"/><path d="M631.638,377.2h-8.509a2,2,0,0,1,0-4h8.509a2,2,0,0,1,0,4Z" fill="#444e59"/><path d="M615.924,377.2h-3.117a2,2,0,0,1,0-4h3.117a2,2,0,0,1,0,4Z" fill="#444e59"/><rect x="540.416" y="402.401" width="95.423" height="55.08" rx="8.62" fill="#2fa9ed"/><path d="M627.219,458.98H549.035a10.131,10.131,0,0,1-10.119-10.12V411.02a10.131,10.131,0,0,1,10.119-10.12h78.184a10.132,10.132,0,0,1,10.12,10.12v37.84A10.132,10.132,0,0,1,627.219,458.98ZM549.035,403.9a7.127,7.127,0,0,0-7.119,7.12v37.84a7.127,7.127,0,0,0,7.119,7.12h78.184a7.128,7.128,0,0,0,7.12-7.12V411.02a7.128,7.128,0,0,0-7.12-7.12Z" fill="#444e59"/><g opacity="0.56"><path d="M621.913,418.7H588.127a1.5,1.5,0,0,1,0-3h33.786a1.5,1.5,0,0,1,0,3Z" fill="#fff"/></g><g opacity="0.56"><path d="M610.483,429.579H588.127a1.5,1.5,0,0,1,0-3h22.356a1.5,1.5,0,0,1,0,3Z" fill="#fff"/></g><g opacity="0.56"><rect x="588.127" y="437.732" width="20.317" height="6.667" rx="3.334" fill="#fff"/><path d="M605.11,445.9H591.461a4.834,4.834,0,0,1,0-9.668H605.11a4.834,4.834,0,0,1,0,9.668Zm-13.649-6.668a1.834,1.834,0,0,0,0,3.668H605.11a1.834,1.834,0,0,0,0-3.668Z" fill="#fff"/></g><path d="M574.007,446.391H556.1a6.143,6.143,0,0,1-6.136-6.136V419.341a6.143,6.143,0,0,1,6.136-6.135h17.907a6.143,6.143,0,0,1,6.136,6.135v20.914A6.143,6.143,0,0,1,574.007,446.391ZM556.1,416.206a3.138,3.138,0,0,0-3.136,3.135v20.914a3.139,3.139,0,0,0,3.136,3.136h17.907a3.14,3.14,0,0,0,3.136-3.136V419.341a3.139,3.139,0,0,0-3.136-3.135Z" fill="#fff"/><path d="M565.054,432.673a6.291,6.291,0,1,1,6.29-6.291A6.3,6.3,0,0,1,565.054,432.673Zm0-9.581a3.291,3.291,0,1,0,3.29,3.29A3.293,3.293,0,0,0,565.054,423.092Z" fill="#fff"/><path d="M574.133,445.9a1.5,1.5,0,0,1-1.5-1.5,7.579,7.579,0,0,0-15.158,0,1.5,1.5,0,0,1-3,0,10.579,10.579,0,0,1,21.158,0A1.5,1.5,0,0,1,574.133,445.9Z" fill="#fff"/></g></g></svg>