<svg xmlns="http://www.w3.org/2000/svg" xmlns:xlink="http://www.w3.org/1999/xlink" width="1000" height="1000" xmlns:v="https://vecta.io/nano"><style><![CDATA[.B{fill:#444e59}.C{fill:#fff}.D{fill:#f09f54}.E{fill:#848484}.F{opacity:.29}.G{opacity:.52}.H{fill:#64bdff}.I{fill:#ff5f5f}.J{fill:#ffbe78}]]></style><rect width="693.696" height="18" x="153.152" y="648.303" opacity=".28" rx="9" style="mix-blend-mode:multiply" class="E"/><g class="D"><path d="M808.451 573.892a71.45 71.45 0 0 0-64.726-71.272v-8.411h-21.913v160.7h21.913v-9.743a71.449 71.449 0 0 0 64.726-71.274zm-64.726 48.173v-96.344a48.66 48.66 0 0 1 0 96.344z"/><path d="M743.725,502.62v-8.411H721.812v160.7h21.913v-9.743a71.6,71.6,0,0,0,0-142.544Zm0,135.185v8.337H723.273V501.513h20.452v8.467c32.14,3.107,58.042,30.53,58.042,63.912S775.865,634.7,743.725,637.8Z" style="mix-blend-mode:multiply" class="F"/></g><g class="B"><path d="M743.725 656.907h-21.913a2 2 0 0 1-2-2v-160.7a2 2 0 0 1 2-2h21.913a2 2 0 0 1 2 2v6.614a73.607 73.607 0 0 1 0 146.138v7.946a2 2 0 0 1-2 2.002zm-19.913-4h17.913v-7.743a2 2 0 0 1 1.811-1.991 69.6 69.6 0 0 0 0-138.562 2 2 0 0 1-1.811-1.991v-6.411h-17.913zm19.913-28.843a2 2 0 0 1-2-2v-96.343a2 2 0 0 1 2.284-1.98 50.66 50.66 0 0 1 0 100.3 1.947 1.947 0 0 1-.284.023zm2-95.977V619.7a46.657 46.657 0 0 0 0-91.611z"/><path d="M730.577 640.337h-8.765a1.5 1.5 0 1 1 0-3h8.765a1.5 1.5 0 0 1 0 3zm0-16.069h-8.765a1.5 1.5 0 1 1 0-3h8.765a1.5 1.5 0 0 1 0 3zm0-16.068h-8.765a1.5 1.5 0 0 1 0-3h8.765a1.5 1.5 0 0 1 0 3zm0-16.072h-8.765a1.5 1.5 0 0 1 0-3h8.765a1.5 1.5 0 0 1 0 3zm0-16.07h-8.765a1.5 1.5 0 1 1 0-3h8.765a1.5 1.5 0 0 1 0 3zm0-16.07h-8.765a1.5 1.5 0 0 1 0-3h8.765a1.5 1.5 0 0 1 0 3zm0-16.07h-8.765a1.5 1.5 0 0 1 0-3h8.765a1.5 1.5 0 0 1 0 3zm0-16.069h-8.765a1.5 1.5 0 0 1 0-3h8.765a1.5 1.5 0 0 1 0 3zm0-16.071h-8.765a1.5 1.5 0 0 1 0-3h8.765a1.5 1.5 0 0 1 0 3z"/></g><g class="D"><path d="M673.257 412.891h33.082v241.643h-33.082z"/><path d="M673.257 412.891h33.082v241.643h-33.082z"/><path style="mix-blend-mode:multiply" d="M691.956 412.891h14.384v241.643h-14.384z" class="F"/></g><g class="B"><path d="M706.34 656.534h-33.082a2 2 0 0 1-2-2V412.891a2 2 0 0 1 2-2h33.082a2 2 0 0 1 2 2v241.643a2 2 0 0 1-2 2zm-31.082-4h29.082V414.891h-29.082z"/><path d="M684.765 631.582h-11.507a1.5 1.5 0 0 1 0-3h11.507a1.5 1.5 0 0 1 0 3zm-4.316 11.507h-7.191a1.5 1.5 0 0 1 0-3h7.191a1.5 1.5 0 0 1 0 3zm4.316-34.521h-11.507a1.5 1.5 0 0 1 0-3h11.507a1.5 1.5 0 1 1 0 3zm-4.316 11.507h-7.191a1.5 1.5 0 0 1 0-3h7.191a1.5 1.5 0 0 1 0 3zm4.316-34.52h-11.507a1.5 1.5 0 0 1 0-3h11.507a1.5 1.5 0 0 1 0 3zm-4.316 11.507h-7.191a1.5 1.5 0 0 1 0-3h7.191a1.5 1.5 0 0 1 0 3zm4.316-34.521h-11.507a1.5 1.5 0 0 1 0-3h11.507a1.5 1.5 0 0 1 0 3zm-4.316 11.507h-7.191a1.5 1.5 0 0 1 0-3h7.191a1.5 1.5 0 0 1 0 3zm4.316-34.52h-11.507a1.5 1.5 0 0 1 0-3h11.507a1.5 1.5 0 1 1 0 3zm-4.316 11.506h-7.191a1.5 1.5 0 0 1 0-3h7.191a1.5 1.5 0 0 1 0 3zm4.316-34.519h-11.507a1.5 1.5 0 0 1 0-3h11.507a1.5 1.5 0 0 1 0 3zm-4.316 11.506h-7.191a1.5 1.5 0 0 1 0-3h7.191a1.5 1.5 0 0 1 0 3zm4.316-34.521h-11.507a1.5 1.5 0 0 1 0-3h11.507a1.5 1.5 0 0 1 0 3zm-4.316 11.508h-7.191a1.5 1.5 0 0 1 0-3h7.191a1.5 1.5 0 0 1 0 3zm4.316-34.521h-11.507a1.5 1.5 0 0 1 0-3h11.507a1.5 1.5 0 0 1 0 3zm-4.316 11.507h-7.191a1.5 1.5 0 0 1 0-3h7.191a1.5 1.5 0 0 1 0 3zm4.316-34.521h-11.507a1.5 1.5 0 0 1 0-3h11.507a1.5 1.5 0 0 1 0 3zm-4.316 11.507h-7.191a1.5 1.5 0 0 1 0-3h7.191a1.5 1.5 0 1 1 0 3zm4.316-34.52h-11.507a1.5 1.5 0 0 1 0-3h11.507a1.5 1.5 0 0 1 0 3zm-4.316 11.506h-7.191a1.5 1.5 0 0 1 0-3h7.191a1.5 1.5 0 0 1 0 3z"/></g><g class="E"><path d="M612.11 471.347h12.942v34.12H612.11z"/><path opacity=".25" style="mix-blend-mode:multiply" d="M612.11 471.347h4.78v34.12h-4.78z"/></g><path d="M625.052 507.467H612.11a2 2 0 0 1-2-2v-34.12a2 2 0 0 1 2-2h12.942a2 2 0 0 1 2 2v34.12a2 2 0 0 1-2 2zm-10.942-4h8.942v-30.12h-8.942z" class="B"/><path d="M615.64 505.467h5.883v16.472h-5.883z" class="C"/><path d="M621.522 523.938h-5.882a2 2 0 0 1-2-2v-16.471a2 2 0 0 1 2-2h5.882a2 2 0 0 1 2 2v16.471a2 2 0 0 1-2 2zm-3.882-4h1.882v-12.471h-1.882z" class="B"/><path d="M608.637 536.732l-29.994 117.685 45.576-116.144-15.582-1.541z" class="C"/><path d="M578.643 656.417a2 2 0 0 1-1.939-2.494L606.7 536.237a2 2 0 0 1 2.136-1.5l15.583 1.542a2 2 0 0 1 1.662 2.721L580.5 655.147a2 2 0 0 1-1.857 1.27zm31.507-117.526l-21.638 84.9L621.393 540z" class="B"/><path d="M628.633 536.732l29.994 117.685-45.577-116.144 15.583-1.541z" class="C"/><path d="M658.627,656.417a2,2,0,0,1-1.861-1.27L611.188,539a2,2,0,0,1,1.665-2.721l15.583-1.542a2.007,2.007,0,0,1,2.135,1.5l29.994,117.686a2,2,0,0,1-1.938,2.494ZM615.877,540l32.881,83.789-21.639-84.9Z" class="B"/><g fill="#71a850"><circle cx="618.64" cy="539.765" r="20.001"/><path d="M604.218 539.765a19.989 19.989 0 0 1 17.212-19.784 20 20 0 1 0 0 39.568 19.989 19.989 0 0 1-17.212-19.784z" opacity=".4" style="mix-blend-mode:multiply"/></g><g class="B"><path d="M618.64 561.766a22 22 0 1 1 22-22 22.026 22.026 0 0 1-22 22zm0-40a18 18 0 1 0 18 18 18.021 18.021 0 0 0-18-18.002z"/><circle cx="618.64" cy="539.765" r="6.776"/><path d="M618.64 548.541a8.777 8.777 0 1 1 8.776-8.776 8.787 8.787 0 0 1-8.776 8.776zm0-13.553a4.777 4.777 0 1 0 4.776 4.777 4.782 4.782 0 0 0-4.776-4.777z"/></g><g class="E"><rect width="160" height="300" x="400.416" y="354.168" rx="14"/><path d="M546.416 354.168h-8.457a14 14 0 0 1 14 14v272a14 14 0 0 1-14 14h8.457a14 14 0 0 0 14-14v-272a14 14 0 0 0-14-14z" opacity=".28" style="mix-blend-mode:multiply"/><path d="M408.749 640.168v-272a14 14 0 0 1 14-14h-8.333a14 14 0 0 0-14 14v272a14 14 0 0 0 14 14h8.333a14 14 0 0 1-14-14z" opacity=".48" style="mix-blend-mode:screen"/></g><path d="M546.416 656.168h-132a16.018 16.018 0 0 1-16-16v-272a16.018 16.018 0 0 1 16-16h132a16.019 16.019 0 0 1 16 16v272a16.019 16.019 0 0 1-16 16zm-132-300a12.013 12.013 0 0 0-12 12v272a12.013 12.013 0 0 0 12 12h132a12.013 12.013 0 0 0 12-12v-272a12.013 12.013 0 0 0-12-12z" class="B"/><path fill="#e9fbff" d="M560.415 391.704v224h-160v-224z"/><path d="M547.111 408.781h12.481a0 0 0 0 1 0 0v55.08a0 0 0 0 1 0 0h-12.481a12.289 12.289 0 0 1-12.289-12.289v-30.5a12.289 12.289 0 0 1 12.289-12.291zm-146.695 81.474h9.15a12.472 12.472 0 0 1 12.472 12.472v72.329a12.472 12.472 0 0 1-12.472 12.472h-9.15a0 0 0 0 1 0 0v-97.273a0 0 0 0 1 0 0z" fill="#c9c9c9"/><path d="M560.416 617.7h-160a2 2 0 0 1-2-2v-224a2 2 0 0 1 2-2h160a2 2 0 0 1 2 2v224a2 2 0 0 1-2 2zm-158-4h156v-220h-156zm107-237h-7a2.5 2.5 0 0 1 0-5h7a2.5 2.5 0 0 1 0 5zm-18 0h-40a2.5 2.5 0 0 1 0-5h40a2.5 2.5 0 0 1 0 5z" class="B"/><circle cx="480.416" cy="632.59" r="10.953" style="mix-blend-mode:screen" class="E F"/><circle cx="480.416" cy="632.59" r="8.402" class="B"/><g opacity=".3" class="B"><path d="M443.918 589.892h-4.142a1 1 0 0 1 0-2h4.08a1.027 1.027 0 0 1 1.031 1 .974.974 0 0 1-.969 1zm-8.221 0h-4.079a1 1 0 1 1 0-2h4.082a1 1 0 0 1 0 2zm-8.158-.006h-.039a9 9 0 0 1-4.345-1.317 1 1 0 0 1 1.046-1.7 7 7 0 0 0 3.376 1.024 1 1 0 0 1-.038 2zm20.276-1.04a1 1 0 0 1-.5-1.868 7.078 7.078 0 0 0 2.531-2.466 1 1 0 0 1 1.711 1.035 9.071 9.071 0 0 1-3.249 3.167.994.994 0 0 1-.493.132zm-26.935-3.037a1 1 0 0 1-.872-.51 8.988 8.988 0 0 1-1.152-4.39 1 1 0 0 1 1-1h0a1 1 0 0 1 1 1 6.986 6.986 0 0 0 .895 3.413 1 1 0 0 1-.381 1.362.99.99 0 0 1-.49.125zm30.972-3.647h-.033a1 1 0 0 1-.967-1.031v-.238-3.809a1 1 0 1 1 2 0v4.111a1 1 0 0 1-1 .967zm-32-4.334a1 1 0 0 1-1-1v-4.08a1 1 0 0 1 2 0v4.08a1 1 0 0 1-.996 1zm32-3.825a1 1 0 0 1-1-1v-4.079a1 1 0 0 1 2 0V573a1 1 0 0 1-.996 1zm-32-4.334a1 1 0 0 1-1-1v-3.777l.007-.342a1.001 1.001 0 0 1 2 .078v.264 3.777a1 1 0 0 1-1.003 1zm32-3.824a1 1 0 0 1-1-.994 6.982 6.982 0 0 0-.908-3.41 1 1 0 0 1 1.74-.988 9 9 0 0 1 1.168 4.386 1 1 0 0 1-.994 1.006zm-30.833-4.117a.989.989 0 0 1-.52-.147 1 1 0 0 1-.333-1.375 9.061 9.061 0 0 1 3.262-3.153 1 1 0 1 1 .985 1.74 7.051 7.051 0 0 0-2.54 2.456 1 1 0 0 1-.85.479zm26.984-2.676a1 1 0 0 1-.519-.146 6.993 6.993 0 0 0-3.381-1.01 1.001 1.001 0 1 1 .071-2 8.992 8.992 0 0 1 4.349 1.3 1 1 0 0 1-.52 1.855zm-7.944-1.16h-4.08a1 1 0 1 1 0-2h4.08a1 1 0 0 1 0 2zm-8.159 0h-4.048a1.014 1.014 0 0 1-1.016-1 .986.986 0 0 1 .985-1h4.079a1 1 0 0 1 0 2zm96.437 32a1 1 0 0 1 0-2h4.079a1.027 1.027 0 0 1 1.032 1 .974.974 0 0 1-.969 1v-1l-.022 1zm-4.08 0h-4.079a1 1 0 0 1 0-2h4.079a1 1 0 0 1 0 2zm-8.158-.006h-.04a8.99 8.99 0 0 1-4.344-1.317 1 1 0 1 1 1.045-1.7 7 7 0 0 0 3.377 1.024 1 1 0 0 1-.038 2zm20.276-1.04a1 1 0 0 1-.5-1.868 7.053 7.053 0 0 0 2.53-2.467 1 1 0 1 1 1.711 1.037 9.076 9.076 0 0 1-3.249 3.166.988.988 0 0 1-.492.132zm-26.935-3.036a1 1 0 0 1-.872-.51 8.988 8.988 0 0 1-1.151-4.391 1 1 0 0 1 1-1h0a1 1 0 0 1 1 1 6.992 6.992 0 0 0 .894 3.412 1 1 0 0 1-.381 1.362.99.99 0 0 1-.49.127zm30.972-3.648h-.033a1 1 0 0 1-.967-1.031v-.238-3.81a1 1 0 0 1 2 0l-.006 4.112a1 1 0 0 1-.994.967zm-32-4.334a1 1 0 0 1-1-1v-4.08a1 1 0 0 1 2 0v4.08a1 1 0 0 1-.996 1zm32-3.825a1 1 0 0 1-1-1v-4.079a1 1 0 0 1 2 0V573a1 1 0 0 1-.996 1zm-32-4.334a1 1 0 0 1-1-1v-3.777l.007-.341a1.001 1.001 0 1 1 2 .078v.263 3.777a1 1 0 0 1-1.003 1zm32-3.825a1 1 0 0 1-1-.994 7 7 0 0 0-.908-3.41 1 1 0 0 1 1.738-.988 9 9 0 0 1 1.17 4.386 1 1 0 0 1-.994 1.006zm-30.835-4.116a.989.989 0 0 1-.52-.147 1 1 0 0 1-.333-1.375 9.053 9.053 0 0 1 3.262-3.153 1 1 0 1 1 .985 1.74 7.048 7.048 0 0 0-2.539 2.456 1 1 0 0 1-.85.479zm26.984-2.677a.989.989 0 0 1-.517-.146 7.013 7.013 0 0 0-3.382-1.009 1.001 1.001 0 0 1 .07-2 9 9 0 0 1 4.349 1.3 1 1 0 0 1-.52 1.855zm-7.944-1.159h-4.079a1 1 0 1 1 0-2h4.079a1 1 0 1 1 0 2zm-8.158 0h-4.048a1.013 1.013 0 0 1-1.016-1 .986.986 0 0 1 .984-1v1-1h4.077a1 1 0 1 1 0 2zm-36.123 32a1 1 0 0 1 0-2h4.08a1.026 1.026 0 0 1 1.031 1 .974.974 0 0 1-.968 1v-1l-.022 1zm-4.079 0h-4.08a1 1 0 1 1 0-2h4.08a1 1 0 1 1 0 2zm-8.158-.006h-.039a8.991 8.991 0 0 1-4.345-1.317 1 1 0 0 1 1.046-1.7 6.991 6.991 0 0 0 3.376 1.024 1 1 0 0 1-.038 2zm20.276-1.04a1 1 0 0 1-.5-1.868 7.067 7.067 0 0 0 2.53-2.466 1 1 0 1 1 1.711 1.035 9.063 9.063 0 0 1-3.249 3.167.991.991 0 0 1-.492.132zm-26.935-3.036a1 1 0 0 1-.873-.51 9 9 0 0 1-1.151-4.39 1 1 0 0 1 1-1h0a1 1 0 0 1 1 1 6.991 6.991 0 0 0 .895 3.413 1 1 0 0 1-.871 1.491zm30.972-3.648h-.034a1 1 0 0 1-.966-1.031v-.238-3.81a1 1 0 0 1 2 0v4.112a1 1 0 0 1-1 .967zm-32-4.334a1 1 0 0 1-1-1v-4.08a1 1 0 0 1 2 0v4.08a1 1 0 0 1-.996 1zm32-3.825a1 1 0 0 1-1-1v-4.079a1 1 0 0 1 2 0V573a1 1 0 0 1-.996 1zm-32-4.334a1 1 0 0 1-1-1v-3.777l.006-.341a.982.982 0 0 1 1.038-.96 1 1 0 0 1 .96 1.038v.263 3.777a1 1 0 0 1-1 1zm32-3.825a1 1 0 0 1-1-.994 6.993 6.993 0 0 0-.909-3.41 1 1 0 0 1 1.74-.988 9.017 9.017 0 0 1 1.169 4.386 1 1 0 0 1-1 1.006zm-30.833-4.116a1 1 0 0 1-.853-1.522 9.045 9.045 0 0 1 3.262-3.153 1 1 0 1 1 .985 1.74 7.051 7.051 0 0 0-2.54 2.456 1 1 0 0 1-.85.479zm26.983-2.677a.99.99 0 0 1-.518-.146 7.009 7.009 0 0 0-3.381-1.009 1.001 1.001 0 1 1 .07-2 9.008 9.008 0 0 1 4.349 1.3 1 1 0 0 1-.52 1.855zm-7.944-1.159h-4.079a1 1 0 1 1 0-2h4.079a1 1 0 1 1 0 2zm-8.159 0h-4.047a1.014 1.014 0 0 1-1.017-1 .987.987 0 0 1 .985-1h4.079a1 1 0 0 1 0 2zm-32.541-16h-4.142a1 1 0 0 1 0-2h4.08a1.027 1.027 0 0 1 1.031 1 .974.974 0 0 1-.969 1zm-8.221 0h-4.079a1 1 0 1 1 0-2h4.082a1 1 0 0 1 0 2zm-8.158-.006h-.039a9 9 0 0 1-4.345-1.317 1 1 0 0 1 1.046-1.7 7 7 0 0 0 3.376 1.024 1 1 0 0 1-.038 2zm20.276-1.04a1 1 0 0 1-.5-1.868 7.078 7.078 0 0 0 2.531-2.466 1 1 0 0 1 1.711 1.035 9.071 9.071 0 0 1-3.249 3.167.994.994 0 0 1-.493.132zm-26.935-3.037a1 1 0 0 1-.872-.51 8.988 8.988 0 0 1-1.152-4.39 1 1 0 0 1 1-1h0a1 1 0 0 1 1 1 6.986 6.986 0 0 0 .895 3.413 1 1 0 0 1-.381 1.362.99.99 0 0 1-.49.125zm30.972-3.647h-.033a1 1 0 0 1-.967-1.031v-.238-3.809a1 1 0 0 1 2 0v4.111a1 1 0 0 1-1 .967zm-32-4.334a1 1 0 0 1-1-1v-4.08a1 1 0 0 1 2 0v4.08a1 1 0 0 1-.996 1zm32-3.825a1 1 0 0 1-1-1v-4.079a1 1 0 0 1 2 0V525a1 1 0 0 1-.996 1zm-32-4.334a1 1 0 0 1-1-1v-3.777l.007-.342a1.001 1.001 0 0 1 2 .078v.264 3.777a1 1 0 0 1-1.003 1zm32-3.824a1 1 0 0 1-1-.994 6.982 6.982 0 0 0-.908-3.41 1 1 0 0 1 1.74-.988 9 9 0 0 1 1.168 4.386 1 1 0 0 1-.994 1.006zm-30.833-4.117a.989.989 0 0 1-.52-.147 1 1 0 0 1-.333-1.375 9.061 9.061 0 0 1 3.262-3.153 1 1 0 1 1 .985 1.74 7.051 7.051 0 0 0-2.54 2.456 1 1 0 0 1-.85.479zm26.984-2.676a1 1 0 0 1-.519-.146 6.993 6.993 0 0 0-3.381-1.01 1.001 1.001 0 0 1 .071-2 8.992 8.992 0 0 1 4.349 1.3 1 1 0 0 1-.52 1.855zm-7.944-1.16h-4.08a1 1 0 0 1 0-2h4.08a1 1 0 0 1 0 2zm-8.159 0h-4.048a1.014 1.014 0 0 1-1.016-1 .986.986 0 0 1 .985-1h4.079a1 1 0 0 1 0 2z"/><path d="M528.337 541.892a1 1 0 0 1 0-2h4.079a1.027 1.027 0 0 1 1.032 1 .974.974 0 0 1-.969 1v-1l-.022 1zm-4.08 0h-4.079a1 1 0 0 1 0-2h4.079a1 1 0 0 1 0 2zm-8.158-.006h-.04a8.99 8.99 0 0 1-4.344-1.317 1 1 0 1 1 1.045-1.7 7 7 0 0 0 3.377 1.024 1 1 0 0 1-.038 2zm20.276-1.04a1 1 0 0 1-.5-1.868 7.053 7.053 0 0 0 2.53-2.467 1 1 0 1 1 1.711 1.037 9.076 9.076 0 0 1-3.249 3.166.988.988 0 0 1-.492.132zm-26.935-3.036a1 1 0 0 1-.872-.51 8.988 8.988 0 0 1-1.151-4.391 1 1 0 0 1 1-1h0a1 1 0 0 1 1 1 6.992 6.992 0 0 0 .894 3.412 1 1 0 0 1-.381 1.362.99.99 0 0 1-.49.127zm30.972-3.648h-.033a1 1 0 0 1-.967-1.031v-.238-3.81a1 1 0 0 1 2 0l-.006 4.112a1 1 0 0 1-.994.967zm-32-4.334a1 1 0 0 1-1-1v-4.08a1 1 0 0 1 2 0v4.08a1 1 0 0 1-.996 1zm32-3.825a1 1 0 0 1-1-1v-4.079a1 1 0 0 1 2 0V525a1 1 0 0 1-.996 1zm-32-4.334a1 1 0 0 1-1-1v-3.777l.007-.341a1.001 1.001 0 1 1 2 .078v.263 3.777a1 1 0 0 1-1.003 1zm32-3.825a1 1 0 0 1-1-.994 7 7 0 0 0-.908-3.41 1 1 0 0 1 1.738-.988 9 9 0 0 1 1.17 4.386 1 1 0 0 1-.994 1.006zm-30.835-4.116a.989.989 0 0 1-.52-.147 1 1 0 0 1-.333-1.375 9.053 9.053 0 0 1 3.262-3.153 1 1 0 1 1 .985 1.74 7.048 7.048 0 0 0-2.539 2.456 1 1 0 0 1-.85.479zm26.984-2.677a.989.989 0 0 1-.517-.146 7.013 7.013 0 0 0-3.382-1.009 1.001 1.001 0 0 1 .07-2 9 9 0 0 1 4.349 1.3 1 1 0 0 1-.52 1.855zm-7.944-1.159h-4.079a1 1 0 0 1 0-2h4.079a1 1 0 0 1 0 2zm-8.158 0h-4.048a1.013 1.013 0 0 1-1.016-1 .986.986 0 0 1 .984-1v1-1h4.077a1 1 0 0 1 0 2zm-36.123 32a1 1 0 0 1 0-2h4.08a1.026 1.026 0 0 1 1.031 1 .974.974 0 0 1-.968 1v-1l-.022 1zm-4.079 0h-4.08a1 1 0 0 1 0-2h4.08a1 1 0 1 1 0 2zm-8.158-.006h-.039a8.991 8.991 0 0 1-4.345-1.317 1 1 0 0 1 1.046-1.7 6.991 6.991 0 0 0 3.376 1.024 1 1 0 0 1-.038 2zm20.276-1.04a1 1 0 0 1-.5-1.868 7.067 7.067 0 0 0 2.53-2.466 1 1 0 1 1 1.711 1.035 9.063 9.063 0 0 1-3.249 3.167.991.991 0 0 1-.492.132zm-26.935-3.036a1 1 0 0 1-.873-.51 9 9 0 0 1-1.151-4.39 1 1 0 0 1 1-1h0a1 1 0 0 1 1 1 6.991 6.991 0 0 0 .895 3.413 1 1 0 0 1-.871 1.491zm30.972-3.648h-.034a1 1 0 0 1-.966-1.031v-.238-3.81a1 1 0 0 1 2 0v4.112a1 1 0 0 1-1 .967zm-32-4.334a1 1 0 0 1-1-1v-4.08a1 1 0 0 1 2 0v4.08a1 1 0 0 1-.996 1zm32-3.825a1 1 0 0 1-1-1v-4.079a1 1 0 0 1 2 0V525a1 1 0 0 1-.996 1zm-32-4.334a1 1 0 0 1-1-1v-3.777l.006-.341a.982.982 0 0 1 1.038-.96 1 1 0 0 1 .96 1.038v.263 3.777a1 1 0 0 1-1 1zm32-3.825a1 1 0 0 1-1-.994 6.993 6.993 0 0 0-.909-3.41 1 1 0 0 1 1.74-.988 9.017 9.017 0 0 1 1.169 4.386 1 1 0 0 1-1 1.006zm-30.833-4.116a1 1 0 0 1-.853-1.522 9.045 9.045 0 0 1 3.262-3.153 1 1 0 1 1 .985 1.74 7.051 7.051 0 0 0-2.54 2.456 1 1 0 0 1-.85.479zm26.983-2.677a.99.99 0 0 1-.518-.146 7.009 7.009 0 0 0-3.381-1.009 1.001 1.001 0 1 1 .07-2 9.008 9.008 0 0 1 4.349 1.3 1 1 0 0 1-.52 1.855zm-7.944-1.159h-4.079a1 1 0 0 1 0-2h4.079a1 1 0 0 1 0 2zm-8.159 0h-4.047a1.014 1.014 0 0 1-1.017-1 .987.987 0 0 1 .985-1h4.079a1 1 0 0 1 0 2zm-32.54-16.001h-4.143a1 1 0 0 1 0-2h4.08a1.027 1.027 0 0 1 1.031 1 .974.974 0 0 1-.968 1zm-8.222 0h-4.079a1 1 0 0 1 0-2h4.082a1 1 0 0 1 0 2zm-8.158-.006h-.039a8.994 8.994 0 0 1-4.344-1.317 1 1 0 1 1 1.045-1.7 7 7 0 0 0 3.377 1.024 1 1 0 0 1-.039 2zm20.276-1.04a1 1 0 0 1-.5-1.868 7.062 7.062 0 0 0 2.531-2.466 1 1 0 0 1 1.711 1.036 9.05 9.05 0 0 1-3.25 3.167 1 1 0 0 1-.492.131zm-26.935-3.036a1 1 0 0 1-.873-.51 9.012 9.012 0 0 1-1.151-4.39 1 1 0 0 1 1-1h0a1 1 0 0 1 1 1 7.007 7.007 0 0 0 .894 3.413 1 1 0 0 1-.381 1.362.986.986 0 0 1-.489.125zm30.972-3.647h-.033a1 1 0 0 1-.967-1.033v-.238-3.808a1 1 0 0 1 2 0v4.112a1 1 0 0 1-1 .967zm-32-4.335a1 1 0 0 1-1-1v-4.079a1 1 0 0 1 2 0v4.079a1 1 0 0 1-.996 1zm32-3.824a1 1 0 0 1-1-1v-4.079a1 1 0 0 1 2 0V477a1 1 0 0 1-.996 1zm-32-4.335a1 1 0 0 1-1-1v-3.777l.007-.341a.989.989 0 0 1 1.038-.96 1 1 0 0 1 .96 1.038v.263 3.777a1 1 0 0 1-1.001 1zm32-3.824a1 1 0 0 1-1-.994 6.985 6.985 0 0 0-.908-3.41 1 1 0 0 1 1.74-.987 9 9 0 0 1 1.168 4.386 1 1 0 0 1-1 1zm-30.833-4.117a1 1 0 0 1-.853-1.521 9.034 9.034 0 0 1 3.263-3.154 1 1 0 0 1 .983 1.741 7.045 7.045 0 0 0-2.539 2.455 1 1 0 0 1-.85.479zm26.984-2.676a1 1 0 0 1-.519-.145 6.987 6.987 0 0 0-3.381-1.01 1.001 1.001 0 0 1 .071-2 9 9 0 0 1 4.349 1.3 1 1 0 0 1-.52 1.854zm-7.944-1.16h-4.08a1 1 0 0 1 0-2h4.08a1 1 0 0 1 0 2zm-8.159 0h-4.048a1.013 1.013 0 0 1-1.015-1 .987.987 0 0 1 .984-1h4.079a1 1 0 0 1 0 2z"/><path d="M532.479 493.891h-4.142a1 1 0 0 1 0-2h4.079a1.027 1.027 0 0 1 1.031 1 .974.974 0 0 1-.968 1zm-8.222 0h-4.079a1 1 0 0 1 0-2h4.079a1 1 0 0 1 0 2zm-8.158-.006h-.04a9 9 0 0 1-4.344-1.316 1 1 0 1 1 1.045-1.7 7.008 7.008 0 0 0 3.377 1.023 1 1 0 0 1-.038 2zm20.275-1.04a1 1 0 0 1-.5-1.869 7.056 7.056 0 0 0 2.53-2.465 1 1 0 1 1 1.711 1.036 9.049 9.049 0 0 1-3.251 3.166.984.984 0 0 1-.49.132zm-26.934-3.036a1 1 0 0 1-.872-.509 9 9 0 0 1-1.151-4.391 1 1 0 0 1 1-1h0a1 1 0 0 1 1 1 6.989 6.989 0 0 0 .894 3.412 1 1 0 0 1-.871 1.491zm30.972-3.647h-.033a1 1 0 0 1-.967-1.032v-.238-3.809a1 1 0 0 1 2 0l-.006 4.112a1 1 0 0 1-.994.967zm-32-4.334a1 1 0 0 1-1-1v-4.08a1 1 0 0 1 2 0v4.08a1 1 0 0 1-.996 1zm32-3.825a1 1 0 0 1-1-1v-4.08a1 1 0 0 1 2 0V477a1 1 0 0 1-.996 1zm-32-4.334a1 1 0 0 1-1-1v-3.778l.007-.341a.987.987 0 0 1 1.038-.96 1 1 0 0 1 .96 1.038v.263 3.778a1 1 0 0 1-1.001 1zm32-3.825a1 1 0 0 1-1-1 6.994 6.994 0 0 0-.908-3.409 1 1 0 0 1 1.738-.988 9 9 0 0 1 1.17 4.386 1 1 0 0 1-.994 1.006zm-30.833-4.117a1 1 0 0 1-.853-1.521 9.058 9.058 0 0 1 3.262-3.155 1 1 0 0 1 .985 1.741 7.04 7.04 0 0 0-2.539 2.456 1 1 0 0 1-.851.479zm26.983-2.676a1 1 0 0 1-.518-.145 6.99 6.99 0 0 0-3.381-1.01 1 1 0 0 1-.964-1.035 1.02 1.02 0 0 1 1.034-.965 9 9 0 0 1 4.35 1.3 1 1 0 0 1-.521 1.854zm-7.943-1.16h-4.08a1 1 0 0 1 0-2h4.08a1 1 0 0 1 0 2zm-8.159 0h-4.048a1.013 1.013 0 0 1-1.016-1 .986.986 0 0 1 .985-1v1l.006-1h4.073a1 1 0 0 1 0 2zm-31.982 32h-4.142a1 1 0 0 1 0-2h4.08a1.027 1.027 0 0 1 1.031 1 .974.974 0 0 1-.969 1zm-8.221 0h-4.08a1 1 0 0 1 0-2h4.08a1 1 0 0 1 0 2zm-8.158-.006h-.04a9 9 0 0 1-4.344-1.316 1 1 0 1 1 1.045-1.7 7.011 7.011 0 0 0 3.377 1.023 1 1 0 0 1-.038 2zm20.276-1.04a1 1 0 0 1-.5-1.868 7.051 7.051 0 0 0 2.53-2.466 1 1 0 0 1 1.711 1.036 9.055 9.055 0 0 1-3.249 3.167 1 1 0 0 1-.492.131zm-26.935-3.036a1 1 0 0 1-.873-.51 9.012 9.012 0 0 1-1.151-4.39 1 1 0 0 1 1-1h0a1 1 0 0 1 1 1 7 7 0 0 0 .895 3.413 1 1 0 0 1-.382 1.362.986.986 0 0 1-.489.125zm30.972-3.647h-.034a1 1 0 0 1-.966-1.032v-.238-3.808a1 1 0 0 1 2 0v4.111a1 1 0 0 1-1 .967zm-32-4.334a1 1 0 0 1-1-1v-4.08a1 1 0 0 1 2 0v4.08a1 1 0 0 1-.996 1zm32-3.825a1 1 0 0 1-1-1v-4.08a1 1 0 0 1 2 0V477a1 1 0 0 1-.996 1zm-32-4.335a1 1 0 0 1-1-1v-3.777l.006-.341a.989.989 0 0 1 1.038-.96 1 1 0 0 1 .96 1.038v.263 3.777a1 1 0 0 1-1 1zm32-3.824a1 1 0 0 1-1-.994 6.993 6.993 0 0 0-.909-3.41 1 1 0 0 1 1.74-.987 9.01 9.01 0 0 1 1.169 4.385 1 1 0 0 1-1 1.006zm-30.833-4.117a1 1 0 0 1-.853-1.521 9.042 9.042 0 0 1 3.263-3.154 1 1 0 0 1 .984 1.741 7.029 7.029 0 0 0-2.539 2.455 1 1 0 0 1-.851.479zm26.983-2.676a1 1 0 0 1-.519-.145 6.986 6.986 0 0 0-3.38-1.01 1.001 1.001 0 1 1 .07-2 9 9 0 0 1 4.349 1.3 1 1 0 0 1-.52 1.854zm-7.943-1.16h-4.08a1 1 0 0 1 0-2h4.08a1 1 0 0 1 0 2zm-8.16 0h-4.047a1.014 1.014 0 0 1-1.016-1 .987.987 0 0 1 .984-1h4.079a1 1 0 0 1 0 2zm-32.54-16h-4.143a1 1 0 0 1 0-2h4.08a1.027 1.027 0 0 1 1.031 1 .974.974 0 0 1-.968 1zm-8.222 0h-4.079a1 1 0 0 1 0-2h4.082a1 1 0 0 1 0 2zm-8.158-.006h-.039a8.994 8.994 0 0 1-4.344-1.317 1 1 0 1 1 1.045-1.7 7 7 0 0 0 3.377 1.024 1 1 0 0 1-.039 2zm20.276-1.04a1 1 0 0 1-.5-1.868 7.062 7.062 0 0 0 2.531-2.466 1 1 0 0 1 1.711 1.036 9.05 9.05 0 0 1-3.25 3.167 1 1 0 0 1-.492.131zm-26.935-3.036a1 1 0 0 1-.873-.51 9.012 9.012 0 0 1-1.151-4.39 1 1 0 0 1 1-1h0a1 1 0 0 1 1 1 7.007 7.007 0 0 0 .894 3.413 1 1 0 0 1-.381 1.362.986.986 0 0 1-.489.125zm30.972-3.647h-.033a1 1 0 0 1-.967-1.033v-.238-3.808a1 1 0 0 1 2 0v4.112a1 1 0 0 1-1 .967zm-32-4.335a1 1 0 0 1-1-1v-4.079a1 1 0 0 1 2 0v4.079a1 1 0 0 1-.996 1zm32-3.824a1 1 0 0 1-1-1v-4.079a1 1 0 0 1 2 0V429a1 1 0 0 1-.996 1zm-32-4.335a1 1 0 0 1-1-1v-3.777l.007-.341a1.001 1.001 0 1 1 2 .078v.263 3.777a1 1 0 0 1-1.003 1zm32-3.824a1 1 0 0 1-1-.994 6.985 6.985 0 0 0-.908-3.41 1 1 0 0 1 1.74-.987 9 9 0 0 1 1.168 4.386 1 1 0 0 1-1 1zm-30.833-4.117a1 1 0 0 1-.853-1.521 9.034 9.034 0 0 1 3.263-3.154 1 1 0 0 1 .983 1.741 7.045 7.045 0 0 0-2.539 2.455 1 1 0 0 1-.85.479zm26.984-2.676a1 1 0 0 1-.519-.145 6.987 6.987 0 0 0-3.381-1.01 1 1 0 0 1-.964-1.035 1.021 1.021 0 0 1 1.035-.965 9 9 0 0 1 4.349 1.3 1 1 0 0 1-.52 1.854zm-7.944-1.16h-4.08a1 1 0 0 1 0-2h4.08a1 1 0 0 1 0 2zm-8.159 0h-4.048a1.013 1.013 0 0 1-1.015-1 .987.987 0 0 1 .984-1h4.079a1 1 0 0 1 0 2z"/><path d="M532.479 445.891h-4.142a1 1 0 0 1 0-2h4.079a1.027 1.027 0 0 1 1.031 1 .974.974 0 0 1-.968 1zm-8.222 0h-4.079a1 1 0 0 1 0-2h4.079a1 1 0 0 1 0 2zm-8.158-.006h-.04a9 9 0 0 1-4.344-1.316 1 1 0 1 1 1.045-1.7 7.008 7.008 0 0 0 3.377 1.023 1 1 0 0 1-.038 2zm20.275-1.04a1 1 0 0 1-.5-1.869 7.056 7.056 0 0 0 2.53-2.465 1 1 0 1 1 1.711 1.036 9.049 9.049 0 0 1-3.251 3.166.984.984 0 0 1-.49.132zm-26.934-3.036a1 1 0 0 1-.872-.509 9 9 0 0 1-1.151-4.391 1 1 0 0 1 1-1h0a1 1 0 0 1 1 1 6.989 6.989 0 0 0 .894 3.412 1 1 0 0 1-.871 1.491zm30.972-3.647h-.033a1 1 0 0 1-.967-1.032v-.238-3.809a1 1 0 0 1 2 0l-.006 4.112a1 1 0 0 1-.994.967zm-32-4.334a1 1 0 0 1-1-1v-4.08a1 1 0 0 1 2 0v4.08a1 1 0 0 1-.996 1zm32-3.825a1 1 0 0 1-1-1v-4.08a1 1 0 0 1 2 0V429a1 1 0 0 1-.996 1zm-32-4.334a1 1 0 0 1-1-1v-3.778l.007-.341a.99.99 0 0 1 1.038-.96 1 1 0 0 1 .96 1.038v.263 3.778a1 1 0 0 1-1.001 1zm32-3.825a1 1 0 0 1-1-1 6.994 6.994 0 0 0-.908-3.409 1 1 0 0 1 1.738-.988 9 9 0 0 1 1.17 4.386 1 1 0 0 1-.994 1.006zm-30.833-4.117a1 1 0 0 1-.853-1.521 9.058 9.058 0 0 1 3.262-3.155 1 1 0 0 1 .985 1.741 7.04 7.04 0 0 0-2.539 2.456 1 1 0 0 1-.851.479zm26.983-2.676a1 1 0 0 1-.518-.145 6.99 6.99 0 0 0-3.381-1.01 1 1 0 0 1-.964-1.035 1.02 1.02 0 0 1 1.034-.965 9 9 0 0 1 4.35 1.3 1 1 0 0 1-.521 1.854zm-7.943-1.16h-4.08a1 1 0 0 1 0-2h4.08a1 1 0 0 1 0 2zm-8.159 0h-4.048a1.013 1.013 0 0 1-1.016-1 .986.986 0 0 1 .985-1v1l.006-1h4.073a1 1 0 0 1 0 2zm-31.982 32h-4.142a1 1 0 0 1 0-2h4.08a1.027 1.027 0 0 1 1.031 1 .974.974 0 0 1-.969 1zm-8.221 0h-4.08a1 1 0 0 1 0-2h4.08a1 1 0 0 1 0 2zm-8.158-.006h-.04a9 9 0 0 1-4.344-1.316 1 1 0 1 1 1.045-1.7 7.011 7.011 0 0 0 3.377 1.023 1 1 0 0 1-.038 2zm20.276-1.04a1 1 0 0 1-.5-1.868 7.051 7.051 0 0 0 2.53-2.466 1 1 0 0 1 1.711 1.036 9.055 9.055 0 0 1-3.249 3.167 1 1 0 0 1-.492.131zm-26.935-3.036a1 1 0 0 1-.873-.51 9.012 9.012 0 0 1-1.151-4.39 1 1 0 0 1 1-1h0a1 1 0 0 1 1 1 7 7 0 0 0 .895 3.413 1 1 0 0 1-.382 1.362.986.986 0 0 1-.489.125zm30.972-3.647h-.034a1 1 0 0 1-.966-1.032v-.238-3.808a1 1 0 0 1 2 0v4.111a1 1 0 0 1-1 .967zm-32-4.334a1 1 0 0 1-1-1v-4.08a1 1 0 0 1 2 0v4.08a1 1 0 0 1-.996 1zm32-3.825a1 1 0 0 1-1-1v-4.08a1 1 0 0 1 2 0V429a1 1 0 0 1-.996 1zm-32-4.335a1 1 0 0 1-1-1v-3.777l.006-.341a1.001 1.001 0 0 1 2 .078v.263 3.777a1 1 0 0 1-1.002 1zm32-3.824a1 1 0 0 1-1-.994 6.993 6.993 0 0 0-.909-3.41 1 1 0 0 1 1.74-.987 9.01 9.01 0 0 1 1.169 4.385 1 1 0 0 1-1 1.006zm-30.833-4.117a1 1 0 0 1-.853-1.521 9.042 9.042 0 0 1 3.263-3.154 1 1 0 0 1 .984 1.741 7.029 7.029 0 0 0-2.539 2.455 1 1 0 0 1-.851.479zm26.983-2.676a1 1 0 0 1-.519-.145 6.986 6.986 0 0 0-3.38-1.01 1 1 0 0 1-.965-1.035 1.021 1.021 0 0 1 1.035-.965 9 9 0 0 1 4.349 1.3 1 1 0 0 1-.52 1.854zm-7.943-1.16h-4.08a1 1 0 0 1 0-2h4.08a1 1 0 0 1 0 2zm-8.16 0h-4.047a1.014 1.014 0 0 1-1.016-1 .987.987 0 0 1 .984-1h4.079a1 1 0 0 1 0 2z"/></g><rect width="32" height="32" x="419.856" y="556.891" fill="#71a850" rx="8"/><path fill="#5f8c42" d="M443.851 556.891h-16a7.994 7.994 0 0 0-7.238 4.61l31.238 5.625v-2.235a8 8 0 0 0-8-8z" class="G"/><use xlink:href="#B" class="B"/><rect width="32" height="32" x="464.416" y="556.891" rx="8" class="D"/><use xlink:href="#C" fill="#d38444" class="G"/><path d="M488.416 590.892h-16a10.011 10.011 0 0 1-10-10v-16a10.011 10.011 0 0 1 10-10h16a10.011 10.011 0 0 1 10 10v16a10.012 10.012 0 0 1-10 10zm-16-32a6.006 6.006 0 0 0-6 6v16a6.007 6.007 0 0 0 6 6h16a6.007 6.007 0 0 0 6-6v-16a6.007 6.007 0 0 0-6-6z" class="B"/><rect width="32" height="32" x="508.416" y="508.891" fill="#2fa9ed" rx="8"/><use xlink:href="#C" x="44" y="-48" fill="#288fbc" class="G"/><use xlink:href="#B" x="88.56" y="-48" class="B"/><rect width="32" height="32" x="464.416" y="460.891" fill="#e7534e" rx="8"/><use xlink:href="#C" y="-96" fill="#bf4040" class="G"/><path d="M488.416 494.891h-16a10.011 10.011 0 0 1-10-10v-16a10.011 10.011 0 0 1 10-10h16a10.011 10.011 0 0 1 10 10v16a10.011 10.011 0 0 1-10 10zm-16-32a6.007 6.007 0 0 0-6 6v16a6.006 6.006 0 0 0 6 6h16a6.007 6.007 0 0 0 6-6v-16a6.007 6.007 0 0 0-6-6z" class="B"/><g class="C"><path d="M521.811 517.865l9.194 5.308a1.984 1.984 0 0 1 0 3.436l-9.194 5.309a1.984 1.984 0 0 1-2.976-1.719v-10.616a1.984 1.984 0 0 1 2.976-1.718zm-37.181 48.818h-8.43a3.242 3.242 0 0 0-3.242 3.242v6.186a3.243 3.243 0 0 0 3.242 3.242h.256l-.7 2.8a.226.226 0 0 0 .351.24l4.262-3.037h4.257a3.243 3.243 0 0 0 3.242-3.242v-6.186a3.242 3.242 0 0 0-3.238-3.245zm-50.307 12.24a3.277 3.277 0 0 1-2.325-.962l-3.674-3.674a2 2 0 0 1 2.828-2.828l3.171 3.171 7.756-7.756a2 2 0 0 1 2.828 2.828l-8.259 8.259a3.278 3.278 0 0 1-2.325.962zm46.093-92.575a9.457 9.457 0 1 1 9.456-9.457 9.468 9.468 0 0 1-9.456 9.457zm0-14.913a5.457 5.457 0 1 0 5.456 5.456 5.463 5.463 0 0 0-5.456-5.456z"/><use xlink:href="#D"/></g><g class="D"><use xlink:href="#D"/><use xlink:href="#D"/></g><g style="mix-blend-mode:multiply" class="D F"><path d="M416.157 423.006l.022.067 3.7-.039v-.067zm-12.933-15.712l3.913-4-3.229-3.162-5.168 5.278a26.406 26.406 0 0 1 4.484 1.884zm-12.691 11.851a11.678 11.678 0 0 0-3.028.443 11.669 11.669 0 0 1-.022 22.472 11.678 11.678 0 1 0 3.05-22.915zm-14.92-13.521l1.982 1.94a26.5 26.5 0 0 1 5.31-2.262l-.106-10.02 8.64-.091v-.066l-14.963.157.1 10.02-.963.322zm7.832 50.876a26.538 26.538 0 0 1-5.357-2.149l-1.84 1.879.873.27.105 10.02 6.324-.067zm-28.488-32.781l10.019-.106a26.508 26.508 0 0 1 2.15-5.356l-7.157-7.008 7.373-7.531-3.229-3.162-10.469 10.693 7.157 7.008a26.505 26.505 0 0 0-2.149 5.356l-10.02.106.158 14.963 6.324-.067zm48.761 30.365a26.393 26.393 0 0 1-4.343 1.941l5.176 5.067 3.1-3.161zm-43.329-3.041l7.007-7.157a26.585 26.585 0 0 1-2.262-5.31l-6.3.066a26.486 26.486 0 0 0 2.24 5.244l-7.008 7.157 10.692 10.469 3.1-3.162z"/></g><g class="B"><path d="M377.226 468.524a2 2 0 0 1-2-1.979l-.09-8.561a28.389 28.389 0 0 1-2.963-1.189l-5.988 6.116a2 2 0 0 1-1.408.6 2.094 2.094 0 0 1-1.421-.571l-10.691-10.469a2 2 0 0 1-.03-2.828l5.988-6.116a28.424 28.424 0 0 1-1.251-2.937l-8.561.091a2.032 2.032 0 0 1-2.021-1.979l-.158-14.963a2 2 0 0 1 1.979-2.021l8.561-.091a28.811 28.811 0 0 1 1.188-2.962l-6.115-5.988a2 2 0 0 1-.03-2.828l10.469-10.693a2 2 0 0 1 1.408-.6 2.041 2.041 0 0 1 1.42.571l6.116 5.988a28.638 28.638 0 0 1 2.937-1.25l-.09-8.561a2 2 0 0 1 1.979-2.021l14.963-.158a1.965 1.965 0 0 1 1.42.57 2 2 0 0 1 .6 1.409l.09 8.561a28.382 28.382 0 0 1 2.963 1.188l5.988-6.116a2 2 0 0 1 2.828-.029L416 409.177a2 2 0 0 1 .029 2.828l-5.987 6.115a28.749 28.749 0 0 1 1.25 2.938l8.561-.091a1.97 1.97 0 0 1 1.42.571 2 2 0 0 1 .6 1.408l.158 14.963a2 2 0 0 1-1.979 2.021l-8.561.09a28.828 28.828 0 0 1-1.188 2.963l6.115 5.988a2 2 0 0 1 .03 2.828l-10.468 10.693a2 2 0 0 1-2.829.029l-6.115-5.987a28.828 28.828 0 0 1-2.937 1.25l.09 8.561a2 2 0 0 1-1.979 2.021l-14.963.158zm-5.462-16.17a2 2 0 0 1 .944.237 24.562 24.562 0 0 0 4.952 1.988 2 2 0 0 1 1.461 1.9l.084 8.02 10.963-.116-.085-8.019a2 2 0 0 1 1.42-1.935 24.521 24.521 0 0 0 4.91-2.092 2 2 0 0 1 2.38.314l5.728 5.609 7.671-7.834-5.729-5.609a2 2 0 0 1-.364-2.372 24.532 24.532 0 0 0 1.987-4.953 2 2 0 0 1 1.9-1.46l8.02-.085-.116-10.963-8.02.085a1.993 1.993 0 0 1-1.935-1.42 24.518 24.518 0 0 0-2.091-4.91 2 2 0 0 1 .314-2.38l5.609-5.727-7.834-7.671-5.609 5.728a2 2 0 0 1-2.372.364A24.611 24.611 0 0 0 391 407.07a2 2 0 0 1-1.46-1.9l-.084-8.019-10.963.115.085 8.02a2 2 0 0 1-1.42 1.935 24.568 24.568 0 0 0-4.91 2.091 2 2 0 0 1-2.38-.313l-5.728-5.61-7.671 7.835 5.729 5.609a2 2 0 0 1 .363 2.373 24.544 24.544 0 0 0-1.986 4.952 2 2 0 0 1-1.9 1.46l-8.02.084.116 10.964 8.02-.085a1.988 1.988 0 0 1 1.935 1.42 24.543 24.543 0 0 0 2.091 4.909 2 2 0 0 1-.314 2.38l-5.609 5.728 7.834 7.671 5.608-5.729a2 2 0 0 1 1.428-.606zm12.566-7.85a13.513 13.513 0 1 1 .146 0l-.021-2 .021 2zm0-23.36h-.1a9.637 9.637 0 1 0 .1 0z"/><rect width="138.475" height="99.358" x="226.416" y="554.81" rx="7.359"/></g><path fill="#bcbcbc" d="M233.775 554.81h123.756a7.36 7.36 0 0 1 7.36 7.36v8.72a0 0 0 0 1 0 0H226.416a0 0 0 0 1 0 0v-8.721a7.359 7.359 0 0 1 7.359-7.359z"/><g class="B"><use xlink:href="#E"/><use xlink:href="#E"/><path d="M364.891 572.891H226.416a2 2 0 0 1-2-2v-8.722a9.369 9.369 0 0 1 9.359-9.358h123.756a9.37 9.37 0 0 1 9.36 9.359v8.721a2 2 0 0 1-2 2zm-136.475-4h134.475v-6.721a5.366 5.366 0 0 0-5.36-5.359H233.775a5.364 5.364 0 0 0-5.359 5.358z"/></g><path d="M261.12 643.494h-15.58a2 2 0 1 1 0-4h15.58a2 2 0 0 1 0 4zm-25.526 0h-1.087a2 2 0 1 1 0-4h1.087a2 2 0 0 1 0 4zm49.43-8.625H245.54a2 2 0 1 1 0-4h39.484a2 2 0 0 1 0 4zm-49.43 0h-1.087a2 2 0 1 1 0-4h1.087a2 2 0 0 1 0 4z" class="C"/><path d="M314.57,626.245H303.827a2,2,0,0,1,0-4H314.57a2,2,0,1,1,0,4Z" class="H"/><path d="M294.425,626.245h-20.01a2,2,0,0,1,0-4h20.01a2,2,0,1,1,0,4Z" class="C"/><path d="M265.282,626.245H245.54a2,2,0,1,1,0-4h19.742a2,2,0,1,1,0,4Z" class="I"/><path d="M235.594 626.245h-1.087a2 2 0 1 1 0-4h1.087a2 2 0 0 1 0 4zm91.415-8.625h-48.163a2 2 0 0 1 0-4h48.163a2 2 0 0 1 0 4z" class="C"/><path d="M270.654,617.62H245.54a2,2,0,1,1,0-4h25.114a2,2,0,0,1,0,4Z" class="H"/><path d="M235.594,617.62h-1.087a2,2,0,1,1,0-4h1.087a2,2,0,0,1,0,4Z" class="C"/><path d="M296.842,609h-18a2,2,0,0,1,0-4h18a2,2,0,0,1,0,4Z" class="I"/><path d="M270.654,609H245.54a2,2,0,1,1,0-4h25.114a2,2,0,0,1,0,4Z" class="J"/><path d="M235.594,609h-1.087a2,2,0,1,1,0-4h1.087a2,2,0,0,1,0,4Z" class="C"/><path d="M287.173,600.37h-4.835a2,2,0,0,1,0-4h4.835a2,2,0,0,1,0,4Z" class="H"/><path d="M274.415,600.37H263.268a2,2,0,1,1,0-4h11.147a2,2,0,1,1,0,4Z" class="I"/><path fill="#c383f2" d="M254.672,600.37H245.54a2,2,0,1,1,0-4h9.132a2,2,0,1,1,0,4Z"/><path d="M235.594,600.37h-1.087a2,2,0,1,1,0-4h1.087a2,2,0,0,1,0,4Z" class="C"/><path d="M327.009,591.745h-8.677a2,2,0,0,1,0-4h8.677a2,2,0,0,1,0,4Z" class="H"/><path d="M307.318,591.745H273.206a2,2,0,0,1,0-4h34.112a2,2,0,0,1,0,4Z" class="I"/><path d="M265.82,591.745H245.54a2,2,0,1,1,0-4h20.28a2,2,0,1,1,0,4Z" class="J"/><path d="M235.594,591.745h-1.087a2,2,0,1,1,0-4h1.087a2,2,0,0,1,0,4Z" class="C"/><path d="M314.57,583.12H296.842a2,2,0,0,1,0-4H314.57a2,2,0,1,1,0,4Z" class="J"/><path fill="#6dbf7b" d="M288.248,583.12H274.415a2,2,0,0,1,0-4h13.833a2,2,0,0,1,0,4Z"/><path d="M267.163,583.12h-7.79a2,2,0,1,1,0-4h7.79a2,2,0,0,1,0,4Z" class="J"/><path fill="#6dbf7b" d="M251.852,583.12H245.54a2,2,0,1,1,0-4h6.312a2,2,0,0,1,0,4Z"/><path d="M235.594,583.12h-1.087a2,2,0,1,1,0-4h1.087a2,2,0,0,1,0,4Z" class="C"/><circle cx="240.068" cy="562.85" r="2.534" fill="#e7534e"/><g class="B"><circle cx="249.141" cy="562.85" r="2.534"/><circle cx="258.214" cy="562.85" r="2.534"/></g><g class="C"><rect width="105.587" height="96.853" x="309.199" y="482.85" rx="8"/><rect width="105.587" height="96.853" x="309.199" y="482.85" rx="8"/></g><path d="M406.786 581.7H317.2a10.011 10.011 0 0 1-10-10v-80.85a10.011 10.011 0 0 1 10-10h89.587a10.011 10.011 0 0 1 10 10v80.85a10.011 10.011 0 0 1-10.001 10zM317.2 484.85a6.007 6.007 0 0 0-6 6v80.85a6.006 6.006 0 0 0 6 6h89.587a6.007 6.007 0 0 0 6-6v-80.85a6.007 6.007 0 0 0-6-6z" class="B"/><path fill="#9483c4" d="M318.331 491.037h86.751v57.667h-86.751z"/><g class="B"><path d="M405.082 550.7h-86.75a2 2 0 0 1-2-2v-57.663a2 2 0 0 1 2-2h86.75a2 2 0 0 1 2 2V548.7a2 2 0 0 1-2 2zm-84.75-4h82.75v-53.663h-82.75zm52.75 13.192h-54.75a2 2 0 0 1 0-4h54.75a2 2 0 0 1 0 4zm-22.333 9.234h-32.417a2 2 0 0 1 0-4h32.417a2 2 0 0 1 0 4zm-23.74-28.756a2 2 0 0 1-1.406-3.422l18.7-18.5a2 2 0 0 1 2.821.008l17.393 17.393a2 2 0 1 1-2.828 2.828L345.7 522.691l-17.284 17.1a1.992 1.992 0 0 1-1.407.579z"/><path d="M395.75 540.37a1.993 1.993 0 0 1-1.586-.781l-21.2-27.569-16.517 18.435a2.001 2.001 0 0 1-2.98-2.67l18.125-20.228a2 2 0 0 1 3.075.116l22.667 29.478a2 2 0 0 1-1.584 3.219zm-.242 28.622a6.907 6.907 0 1 1 6.908-6.907 6.915 6.915 0 0 1-6.908 6.907zm0-9.814a2.907 2.907 0 1 0 2.908 2.907 2.91 2.91 0 0 0-2.908-2.907z"/></g><circle cx="351.21" cy="508.923" r="6.156" class="D"/><path d="M351.21 517.079a8.156 8.156 0 1 1 8.156-8.156 8.165 8.165 0 0 1-8.156 8.156zm0-12.312a4.156 4.156 0 1 0 4.156 4.156 4.16 4.16 0 0 0-4.156-4.156zm-16.92-48.451h-26.777a2 2 0 0 1 0-4h26.777a2 2 0 0 1 0 4zm-33.99 0h-7.073a2 2 0 0 1 0-4h7.073a2 2 0 0 1 0 4zm33.99-12.425H320.9a2 2 0 0 1 0-4h13.39a2 2 0 0 1 0 4zm-20.166 0h-4a2 2 0 0 1 0-4h4a2 2 0 0 1 0 4zm-14.747 90.842h-20.864a2 2 0 1 1 0-4h20.864a2 2 0 0 1 0 4zm-26.484 0h-5.512a2 2 0 0 1 0-4h5.512a2 2 0 1 1 0 4zm26.484-12.424h-8.509a2 2 0 1 1 0-4h8.509a2 2 0 0 1 0 4zm-15.713 0h-3.117a2 2 0 0 1 0-4h3.117a2 2 0 0 1 0 4zm347.974-132.68h-19.866a2 2 0 0 1 0-4h19.866a2 2 0 0 1 0 4zm-26.485 0h-5.512a2 2 0 0 1 0-4h5.512a2 2 0 0 1 0 4zm26.485-12.429h-8.509a2 2 0 0 1 0-4h8.509a2 2 0 0 1 0 4zm-15.714 0h-3.117a2 2 0 0 1 0-4h3.117a2 2 0 0 1 0 4z" class="B"/><rect width="95.423" height="55.08" x="540.416" y="402.401" fill="#2fa9ed" rx="8.62"/><path d="M627.219 458.98h-78.184a10.131 10.131 0 0 1-10.119-10.12v-37.84a10.131 10.131 0 0 1 10.119-10.12h78.184a10.132 10.132 0 0 1 10.12 10.12v37.84a10.132 10.132 0 0 1-10.12 10.12zm-78.184-55.08a7.127 7.127 0 0 0-7.119 7.12v37.84a7.127 7.127 0 0 0 7.119 7.12h78.184a7.128 7.128 0 0 0 7.12-7.12v-37.84a7.128 7.128 0 0 0-7.12-7.12z" class="B"/><g opacity=".56" class="C"><path d="M621.913,418.7H588.127a1.5,1.5,0,0,1,0-3h33.786a1.5,1.5,0,0,1,0,3Z"/></g><g opacity=".56" class="C"><path d="M610.483,429.579H588.127a1.5,1.5,0,0,1,0-3h22.356a1.5,1.5,0,0,1,0,3Z"/></g><g opacity=".56" class="C"><rect width="20.317" height="6.667" x="588.127" y="437.732" rx="3.334"/><path d="M605.11,445.9H591.461a4.834,4.834,0,0,1,0-9.668H605.11a4.834,4.834,0,0,1,0,9.668Zm-13.649-6.668a1.834,1.834,0,0,0,0,3.668H605.11a1.834,1.834,0,0,0,0-3.668Z"/></g><g class="C"><path d="M574.007 446.391H556.1a6.143 6.143 0 0 1-6.136-6.136v-20.914a6.143 6.143 0 0 1 6.136-6.135h17.907a6.143 6.143 0 0 1 6.136 6.135v20.914a6.143 6.143 0 0 1-6.136 6.136zM556.1 416.206a3.138 3.138 0 0 0-3.136 3.135v20.914a3.139 3.139 0 0 0 3.136 3.136h17.907a3.14 3.14 0 0 0 3.136-3.136v-20.914a3.139 3.139 0 0 0-3.136-3.135zm8.954 16.467a6.291 6.291 0 1 1 6.29-6.291 6.3 6.3 0 0 1-6.29 6.291zm0-9.581a3.291 3.291 0 1 0 3.29 3.29 3.293 3.293 0 0 0-3.29-3.29z"/><path d="M574.133 445.9a1.5 1.5 0 0 1-1.5-1.5 7.579 7.579 0 0 0-15.158 0 1.5 1.5 0 0 1-3 0 10.579 10.579 0 0 1 21.158 0 1.5 1.5 0 0 1-1.5 1.5z"/></g><defs ><path id="B" d="M443.856 590.892h-16a10.012 10.012 0 0 1-10-10v-16a10.011 10.011 0 0 1 10-10h16a10.011 10.011 0 0 1 10 10v16a10.012 10.012 0 0 1-10 10zm-16-32a6.006 6.006 0 0 0-6 6v16a6.007 6.007 0 0 0 6 6h16a6.007 6.007 0 0 0 6-6v-16a6.006 6.006 0 0 0-6-6z"/><path id="C" d="M488.416 556.891h-16a7.993 7.993 0 0 0-7.238 4.61l31.238 5.625v-2.235a8 8 0 0 0-8-8z"/><path id="D" d="M420.032 437.93l-.158-14.963-10.02.106a26.445 26.445 0 0 0-2.262-5.31l7.008-7.157-10.692-10.469-7.008 7.157a26.532 26.532 0 0 0-5.356-2.15l-.106-10.019-14.963.157.1 10.02a26.61 26.61 0 0 0-5.31 2.262l-7.157-7.008-10.469 10.693 7.157 7.008a26.505 26.505 0 0 0-2.149 5.356l-10.02.106.158 14.963 10.02-.106a26.469 26.469 0 0 0 2.262 5.31l-7.008 7.157 10.692 10.469 7.008-7.157a26.491 26.491 0 0 0 5.357 2.149l.105 10.02 14.963-.158-.105-10.019a26.576 26.576 0 0 0 5.309-2.262l7.158 7.007L415.02 450.4l-7.157-7.008a26.505 26.505 0 0 0 2.149-5.356zm-35.577 4.57a11.68 11.68 0 1 1 11.557-11.8 11.681 11.681 0 0 1-11.557 11.8z"/><path id="E" d="M357.532 656.168H233.775a9.369 9.369 0 0 1-9.359-9.359v-84.64a9.369 9.369 0 0 1 9.359-9.358h123.757a9.369 9.369 0 0 1 9.359 9.358v84.64a9.37 9.37 0 0 1-9.359 9.359zm-123.757-99.357a5.364 5.364 0 0 0-5.359 5.358v84.64a5.365 5.365 0 0 0 5.359 5.359h123.757a5.365 5.365 0 0 0 5.359-5.359v-84.64a5.364 5.364 0 0 0-5.359-5.358z"/></defs></svg>