<?xml version="1.0" encoding="UTF-8"?><svg xmlns="http://www.w3.org/2000/svg" viewBox="0 0 1000 1000" x="0px" y="0px" width="1000px" height="1000px" version="1.1" xmlns:xlink="http://www.w3.org/1999/xlink"><g style="isolation:isolate"><g id="Layer_1" data-name="Layer 1"><rect x="86.678" y="648.303" width="832.162" height="18" rx="9" fill="#444e59"/><rect x="407.375" y="647.784" width="140.824" height="8.449" fill="#444e59"/><rect x="301.757" y="346.42" width="356.285" height="246.443" rx="12" fill="#bbbfc2"/><rect x="389.772" y="303.468" width="181.663" height="312.63" transform="translate(940.387 -20.821) rotate(90)" fill="#28a8e0"/><path d="M608.347,484.428h38.43a0,0,0,0,1,0,0V592.862a0,0,0,0,1,0,0h-52.1a0,0,0,0,1,0,0V498.1A13.675,13.675,0,0,1,608.347,484.428Z" fill="#848484" opacity="0.4" style="mix-blend-mode:multiply"/><path d="M327.072,501.326H301.757v74.637c0,9.333,8.035,16.9,17.368,16.9h29.1V522.824C348.229,511.186,338.71,501.326,327.072,501.326Z" fill="#848484" opacity="0.4" style="mix-blend-mode:multiply"/><path d="M646.981,594.862H314.227a14.015,14.015,0,0,1-14-14V358.42a14.015,14.015,0,0,1,14-14H646.981a14.015,14.015,0,0,1,14,14V580.862A14.015,14.015,0,0,1,646.981,594.862ZM314.227,348.42a10.011,10.011,0,0,0-10,10V580.862a10.011,10.011,0,0,0,10,10H646.981a10.011,10.011,0,0,0,10-10V358.42a10.011,10.011,0,0,0-10-10Z" fill="#444e59"/><path d="M636.449,552.609H324.758a2,2,0,0,1-2-2V368.952a2,2,0,0,1,2-2H636.449a2,2,0,0,1,2,2V550.609A2,2,0,0,1,636.449,552.609Zm-309.691-4H634.449V370.952H326.758Z" fill="#444e59"/><rect x="397.016" y="405.27" width="185.888" height="136.6" rx="7.045" fill="#848484" opacity="0.32" style="mix-blend-mode:multiply"/><rect x="389.068" y="398.525" width="185.888" height="136.6" rx="7.045" fill="#afb1b2"/><path d="M567.911,537.124h-171.8a9.056,9.056,0,0,1-9.045-9.045V405.57a9.056,9.056,0,0,1,9.045-9.045h171.8a9.056,9.056,0,0,1,9.045,9.045V528.079A9.056,9.056,0,0,1,567.911,537.124Zm-171.8-136.6a5.051,5.051,0,0,0-5.045,5.045V528.079a5.051,5.051,0,0,0,5.045,5.045h171.8a5.05,5.05,0,0,0,5.045-5.045V405.57a5.05,5.05,0,0,0-5.045-5.045Z" fill="#444e59"/><polygon points="522.464 647.784 438.744 647.784 449.111 592.862 512.097 592.862 522.464 647.784" fill="#aeaeaf"/><polygon points="514.924 608.353 512.097 592.862 449.111 592.862 446.284 608.353 514.924 608.353" fill="#848484" opacity="0.32" style="mix-blend-mode:multiply"/><path d="M522.464,649.784h-83.72a2,2,0,0,1-1.965-2.371l10.366-54.922a2,2,0,0,1,1.965-1.629H512.1a2,2,0,0,1,1.964,1.629l10.367,54.922a2,2,0,0,1-1.965,2.371Zm-81.307-4h78.894l-9.612-50.922H450.768Z" fill="#444e59"/><path d="M548.2,658.233H407.375a2,2,0,0,1-2-2v-8.449a2,2,0,0,1,2-2H548.2a2,2,0,0,1,2,2v8.449A2,2,0,0,1,548.2,658.233Zm-138.824-4H546.2v-4.449H409.375Z" fill="#444e59"/><circle cx="480.085" cy="567.72" r="6.24" fill="#444e59"/><rect x="374.986" y="385.851" width="185.888" height="136.6" rx="7.045" fill="#fff"/><path d="M553.829,524.45h-171.8a9.055,9.055,0,0,1-9.045-9.045V392.9a9.055,9.055,0,0,1,9.045-9.045h171.8a9.055,9.055,0,0,1,9.045,9.045V515.405A9.055,9.055,0,0,1,553.829,524.45Zm-171.8-136.6a5.05,5.05,0,0,0-5.045,5.045V515.405a5.05,5.05,0,0,0,5.045,5.045h171.8a5.05,5.05,0,0,0,5.045-5.045V392.9a5.05,5.05,0,0,0-5.045-5.045Z" fill="#444e59"/><path d="M382.336,385.851H554a6.872,6.872,0,0,1,6.872,6.872v14.252a0,0,0,0,1,0,0H374.986a0,0,0,0,1,0,0V393.2A7.35,7.35,0,0,1,382.336,385.851Z" fill="#bbbfc2"/><path d="M560.874,408.974H374.986a2,2,0,0,1-2-2V393.2a9.36,9.36,0,0,1,9.35-9.35H554a8.882,8.882,0,0,1,8.872,8.871v14.252A2,2,0,0,1,560.874,408.974Zm-183.888-4H558.874V392.722A4.877,4.877,0,0,0,554,387.851H382.336a5.356,5.356,0,0,0-5.35,5.35Z" fill="#444e59"/><circle cx="392.949" cy="396.528" r="3.282" fill="#444e59"/><circle cx="403.793" cy="396.528" r="3.282" fill="#444e59"/><circle cx="414.637" cy="396.528" r="3.282" fill="#444e59"/><rect x="389.068" y="418.24" width="156.315" height="25.348" rx="2" fill="#6567c3"/><rect x="389.068" y="454.854" width="47.88" height="15.491" rx="2" fill="#444e59" opacity="0.2"/><g opacity="0.2"><path d="M431.315,483.611H396.109a2,2,0,0,1,0-4h35.206a2,2,0,0,1,0,4Z" fill="#444e59"/></g><g opacity="0.2"><path d="M431.315,494.877H396.109a2,2,0,0,1,0-4h35.206a2,2,0,0,1,0,4Z" fill="#444e59"/></g><rect x="443.99" y="454.854" width="47.88" height="15.491" rx="2" fill="#444e59" opacity="0.2"/><g opacity="0.2"><path d="M484.829,483.611h-33.8a2,2,0,0,1,0-4h33.8a2,2,0,1,1,0,4Z" fill="#444e59"/></g><g opacity="0.2"><path d="M484.829,494.877h-33.8a2,2,0,0,1,0-4h33.8a2,2,0,0,1,0,4Z" fill="#444e59"/></g><g opacity="0.2"><rect x="498.911" y="454.854" width="47.88" height="39.431" rx="2" fill="#444e59"/></g><g opacity="0.09"><path d="M543.385,505.551H501.543a2.817,2.817,0,1,1,0-5.633h41.842a2.817,2.817,0,0,1,0,5.633Z" fill="#444e59"/></g><path d="M229.193,613.414h-80.63a3.936,3.936,0,0,0-2.611.962L126.5,631.423a3.953,3.953,0,0,0,0,5.95l19.457,17.309a4.246,4.246,0,0,0,2.611,1.233h80.63c4.565,0,8.351-4.208,8.351-8.773v-25.5A8.3,8.3,0,0,0,229.193,613.414ZM146.45,639.349a4.959,4.959,0,1,1,4.959-4.959A4.96,4.96,0,0,1,146.45,639.349Z" fill="#fff"/><rect x="167.082" y="613.414" width="23.487" height="42.501" fill="#f09f54"/><rect x="190.569" y="613.414" width="23.487" height="42.501" fill="#ed8b3b"/><path d="M214.057,613.414h13.411a10.077,10.077,0,0,1,10.077,10.077v21.971a10.454,10.454,0,0,1-10.454,10.454H214.057a0,0,0,0,1,0,0v-42.5A0,0,0,0,1,214.057,613.414Z" fill="#ff6c37"/><path d="M231.41,615.493a8.286,8.286,0,0,0-1.217-.079h-80.63a3.936,3.936,0,0,0-2.611.962L127.5,633.423a3.953,3.953,0,0,0,0,5.95l12.152,10.651,13.21,3.344a8.1,8.1,0,0,0,5.664-.637L230.344,616.1C230.713,615.908,231.068,615.712,231.41,615.493Zm-83.96,25.856a4.959,4.959,0,1,1,4.959-4.959A4.96,4.96,0,0,1,147.45,641.349Z" fill="#848484" opacity="0.4" style="mix-blend-mode:multiply"/><path d="M229.193,657.915H148.562a6.027,6.027,0,0,1-3.929-1.73l-19.467-17.318a5.953,5.953,0,0,1,.01-8.948l19.458-17.047a5.943,5.943,0,0,1,3.928-1.458h80.631a10.3,10.3,0,0,1,10.351,10.224v25.5C239.544,652.881,234.707,657.915,229.193,657.915Zm-80.631-42.5a1.95,1.95,0,0,0-1.291.465l-19.459,17.048a1.955,1.955,0,0,0,0,2.942l19.468,17.319a2.514,2.514,0,0,0,1.281.727h80.631c3.324,0,6.351-3.227,6.351-6.772v-25.5a6.3,6.3,0,0,0-6.351-6.224ZM146.45,641.35a6.96,6.96,0,1,1,6.959-6.96A6.968,6.968,0,0,1,146.45,641.35Zm0-9.919a2.96,2.96,0,1,0,2.959,2.959A2.963,2.963,0,0,0,146.45,631.431Z" fill="#444e59"/><path d="M190.569,657.915H167.082a2,2,0,0,1-2-2v-42.5a2,2,0,0,1,2-2h23.487a2,2,0,0,1,2,2v42.5A2,2,0,0,1,190.569,657.915Zm-21.487-4h19.487v-38.5H169.082Z" fill="#444e59"/><path d="M214.057,657.915H190.569a2,2,0,0,1-2-2v-42.5a2,2,0,0,1,2-2h23.488a2,2,0,0,1,2,2v42.5A2,2,0,0,1,214.057,657.915Zm-21.488-4h19.488v-38.5H192.569Z" fill="#444e59"/><path d="M227.09,657.915H214.057a2,2,0,0,1-2-2v-42.5a2,2,0,0,1,2-2h13.41a12.091,12.091,0,0,1,12.077,12.077v21.971A12.468,12.468,0,0,1,227.09,657.915Zm-11.033-4H227.09a8.463,8.463,0,0,0,8.454-8.453V623.491a8.086,8.086,0,0,0-8.077-8.077h-11.41Z" fill="#444e59"/><path d="M208.361,572.961l-71.822,36.644a3.958,3.958,0,0,0-1.879,2.061L125.08,635.7a3.959,3.959,0,0,0,2.706,5.3l25.085,6.352a3.959,3.959,0,0,0,2.771-.311l71.823-36.644a8.265,8.265,0,0,0,3.606-11.119L219.48,576.567A8.266,8.266,0,0,0,208.361,572.961Z" fill="#fff"/><rect x="182.156" y="582.918" width="23.484" height="42.035" transform="translate(-253.29 154.093) rotate(-27.031)" fill="#8d91db"/><path d="M153.843,649.481a6,6,0,0,1-1.462-.181L127.3,642.947a5.96,5.96,0,0,1-4.074-7.983l9.58-24.038a5.956,5.956,0,0,1,2.827-3.1l71.823-36.644h0a10.265,10.265,0,0,1,13.809,4.478l11.591,22.718a10.267,10.267,0,0,1-4.479,13.81L156.552,648.83A5.949,5.949,0,0,1,153.843,649.481Zm55.428-74.739-71.823,36.645a1.965,1.965,0,0,0-.931,1.02l-9.579,24.037a1.96,1.96,0,0,0,1.34,2.626l25.084,6.352a1.972,1.972,0,0,0,1.371-.154l71.823-36.645a6.267,6.267,0,0,0,2.734-8.429L217.7,577.477a6.265,6.265,0,0,0-8.428-2.735Z" fill="#444e59"/><circle cx="144.208" cy="629.287" r="5.792" fill="#444e59"/><rect x="161.237" y="593.591" width="23.484" height="42.035" transform="translate(-260.425 145.752) rotate(-27.031)" stroke-width="4" stroke="#444e59" stroke-linecap="round" stroke-linejoin="round" fill="#beccd5"/><path d="M172.073,640.666a2,2,0,0,1-1.783-1.091l-19.1-37.443a2,2,0,0,1,.873-2.691l20.919-10.672a2,2,0,0,1,2.69.872l19.1,37.444a2,2,0,0,1-.873,2.69L172.98,640.447A1.983,1.983,0,0,1,172.073,640.666ZM155.658,602.1l17.286,33.88,17.356-8.855L173.014,593.24Z" fill="#444e59"/><path d="M192.99,629.994a1.98,1.98,0,0,1-.617-.1,2,2,0,0,1-1.165-.993l-19.1-37.444a2,2,0,0,1,.873-2.69L193.9,578.1a2,2,0,0,1,2.691.872l19.1,37.443a2,2,0,0,1-.872,2.691L193.9,629.775A1.987,1.987,0,0,1,192.99,629.994Zm-16.413-38.571L193.863,625.3l17.355-8.856-17.285-33.88Z" fill="#444e59"/><path d="M203.074,572.245h13.484a10,10,0,0,1,10,10v22.035a10,10,0,0,1-10,10H203.074a0,0,0,0,1,0,0V572.245A0,0,0,0,1,203.074,572.245Z" transform="translate(-246.154 162.434) rotate(-27.031)" fill="#6567c3"/><path d="M213.91,619.321a2,2,0,0,1-1.783-1.091l-19.1-37.443a2,2,0,0,1,.873-2.69l12.011-6.129A12.013,12.013,0,0,1,222.05,577.2l10.014,19.628a12.015,12.015,0,0,1-5.235,16.144h0L214.817,619.1A2,2,0,0,1,213.91,619.321ZM197.5,580.75l17.285,33.881,10.23-5.219a8.011,8.011,0,0,0,3.49-10.763l-10.014-19.628a8.012,8.012,0,0,0-10.762-3.491Zm28.424,30.443h0Z" fill="#444e59"/><rect x="249.652" y="501.326" width="87.311" height="154.907" rx="10" fill="#fff"/><path d="M259.432,501.326h68.6a10.337,10.337,0,0,1,10.337,10.337V547.8a0,0,0,0,1,0,0H249.652a0,0,0,0,1,0,0V511.107A9.78,9.78,0,0,1,259.432,501.326Z" fill="#6567c3"/><path d="M326.963,658.233H259.652a12.013,12.013,0,0,1-12-12V511.326a12.014,12.014,0,0,1,12-12h67.311a12.013,12.013,0,0,1,12,12V646.233A12.013,12.013,0,0,1,326.963,658.233ZM259.652,503.326a8.009,8.009,0,0,0-8,8V646.233a8.009,8.009,0,0,0,8,8h67.311a8.008,8.008,0,0,0,8-8V511.326a8.009,8.009,0,0,0-8-8Z" fill="#444e59"/><path d="M249.652,626.66h87.311a0,0,0,0,1,0,0v19.682a9.891,9.891,0,0,1-9.891,9.891H260a10.352,10.352,0,0,1-10.352-10.352V626.66A0,0,0,0,1,249.652,626.66Z" fill="#bbbfc2"/><path d="M327.271,658.233H260a12.366,12.366,0,0,1-12.352-12.352V626.66a2,2,0,0,1,2-2h87.311a2,2,0,0,1,2,2v19.882A11.705,11.705,0,0,1,327.271,658.233ZM251.652,628.66v17.221A8.362,8.362,0,0,0,260,654.233h67.267a7.7,7.7,0,0,0,7.692-7.691V628.66Z" fill="#444e59"/><circle cx="294.022" cy="640.783" r="4.976" fill="#444e59"/><g opacity="0.3"><path d="M318.656,565.289H269.368a2,2,0,1,1,0-4h49.288a2,2,0,0,1,0,4Z" fill="#444e59"/></g><g opacity="0.3"><path d="M310.207,580.78H279.225a2,2,0,0,1,0-4h30.982a2,2,0,0,1,0,4Z" fill="#444e59"/></g><g opacity="0.3"><path d="M318.656,594.862H269.368a2,2,0,0,1,0-4h49.288a2,2,0,1,1,0,4Z" fill="#444e59"/></g><circle cx="294.022" cy="528.109" r="11.203" fill="#fff" opacity="0.62"/><path d="M310.207,608.353a5.633,5.633,0,0,1-5.633,5.633H283.45a5.633,5.633,0,0,1-5.633-5.633h0a5.633,5.633,0,0,1,5.633-5.633h21.124a5.633,5.633,0,0,1,5.633,5.633Z" fill="#ed8b3b"/><path d="M613.76,484.428H840.59a7.566,7.566,0,0,1,7.566,7.566V637.926a0,0,0,0,1,0,0H605.938a0,0,0,0,1,0,0V492.25A7.823,7.823,0,0,1,613.76,484.428Z" fill="#bbbfc2"/><path d="M848.768,640.18H606.55a2,2,0,0,1-2-2v-146a10.011,10.011,0,0,1,10-10H840.768a10.012,10.012,0,0,1,10,10v146A2,2,0,0,1,848.768,640.18Zm-240.218-4H846.768v-144a6.007,6.007,0,0,0-6-6H614.55a6.006,6.006,0,0,0-6,6Z" fill="#444e59"/><rect x="663.676" y="453.446" width="128.15" height="215.461" transform="translate(1288.927 -166.574) rotate(90)" fill="#5d5d5d" opacity="0.71"/><rect x="652.159" y="533.323" width="22.532" height="67.596" rx="1.963" fill="#848484" opacity="0.32" style="mix-blend-mode:multiply"/><rect x="695.573" y="523.656" width="115.476" height="90.128" rx="4" fill="#848484" opacity="0.32" style="mix-blend-mode:multiply"/><path d="M835.311,626.723h-215.3a2,2,0,0,1-2-2V497.635a2,2,0,0,1,2-2h215.3a2,2,0,0,1,2,2V624.723A2,2,0,0,1,835.311,626.723Zm-213.3-4h211.3V499.635h-211.3Z" fill="#444e59"/><path d="M580.114,638.18H875.2a0,0,0,0,1,0,0v9.414a8,8,0,0,1-8,8H588.114a8,8,0,0,1-8-8V638.18A0,0,0,0,1,580.114,638.18Z" fill="#fff"/><path d="M591.38,656.233H863.937c5.473,0,10.032-4.225,11.05-9.857H580.33C581.349,652.008,585.907,656.233,591.38,656.233Z" fill="#bbbfc2" opacity="0.8"/><path d="M867.2,657.594H588.114a10.013,10.013,0,0,1-10-10V638.18a2,2,0,0,1,2-2H875.2a2,2,0,0,1,2,2v9.414A10.012,10.012,0,0,1,867.2,657.594ZM582.114,640.18v7.414a6.007,6.007,0,0,0,6,6H867.2a6.007,6.007,0,0,0,6-6V640.18Z" fill="#444e59"/><rect x="646.777" y="528.083" width="22.532" height="22.532" fill="#f09f54"/><path d="M669.691,552.855H647.159a2,2,0,0,1-2-2V528.323a2,2,0,0,1,2-2h22.532a2,2,0,0,1,2,2v22.532A2,2,0,0,1,669.691,552.855Zm-20.532-4h18.532V530.323H649.159Z" fill="#444e59"/><path d="M669.691,552.855H647.159a2,2,0,0,1-2-2V528.323a2,2,0,0,1,2-2h22.532a2,2,0,0,1,2,2v22.532A2,2,0,0,1,669.691,552.855Zm-20.532-4h18.532V530.323H649.159Z" fill="#444e59"/><rect x="646.777" y="550.615" width="22.532" height="22.532" fill="#8d91db"/><path d="M669.691,575.387H647.159a2,2,0,0,1-2-2V550.855a2,2,0,0,1,2-2h22.532a2,2,0,0,1,2,2v22.532A2,2,0,0,1,669.691,575.387Zm-20.532-4h18.532V552.855H649.159Z" fill="#444e59"/><rect x="646.777" y="573.147" width="22.532" height="22.532" fill="#6567c3"/><path d="M669.691,597.919H647.159a2,2,0,0,1-2-2V573.387a2,2,0,0,1,2-2h22.532a2,2,0,0,1,2,2v22.532A2,2,0,0,1,669.691,597.919Zm-20.532-4h18.532V575.387H649.159Z" fill="#444e59"/><rect x="689.024" y="516.817" width="115.476" height="90.128" rx="4" fill="#fff"/><path d="M800.5,608.944H693.023a6.007,6.007,0,0,1-6-6V520.817a6.007,6.007,0,0,1,6-6H800.5a6.007,6.007,0,0,1,6,6v82.127A6.006,6.006,0,0,1,800.5,608.944ZM693.023,518.817a2,2,0,0,0-2,2v82.127a2,2,0,0,0,2,2H800.5a2,2,0,0,0,2-2V520.817a2,2,0,0,0-2-2Z" fill="#444e59"/><g opacity="0.3"><path d="M770.7,585.652h-1.5v-2h.5v-.5h2v1.5A1,1,0,0,1,770.7,585.652Z" fill="#444e59"/><path d="M767.3,585.652h-2.858v-2H767.3Zm-4.764,0h-2.857v-2h2.857Zm-4.762,0h-2.859v-2h2.859Zm-4.764,0h-2.858v-2h2.858Zm-4.764,0h-2.857v-2h2.857Zm-4.763,0h-2.858v-2h2.858Zm-4.763,0h-2.858v-2h2.858Zm-4.763,0H731.1v-2h2.858Zm-4.764,0h-2.858v-2h2.858Z" fill="#444e59"/><path d="M724.426,585.652h-1.5a1,1,0,0,1-1-1v-1.5h2v.5h.5Z" fill="#444e59"/><path d="M723.926,581.149h-2v-3h2Zm0-5.007h-2v-3h2Zm0-5.008h-2v-3h2Zm0-5.007h-2v-3h2Zm0-5.008h-2v-3h2Zm0-5.008h-2v-3h2Zm0-5.007h-2v-3h2Zm0-5.007h-2v-3h2Z" fill="#444e59"/><path d="M723.926,541.089h-2v-1.5a1,1,0,0,1,1-1h1.5v2h-.5Z" fill="#444e59"/><path d="M767.3,540.589h-2.858v-2H767.3Zm-4.764,0h-2.858v-2h2.858Zm-4.763,0h-2.858v-2h2.858Zm-4.763,0h-2.859v-2h2.859Zm-4.764,0h-2.857v-2h2.857Zm-4.763,0h-2.858v-2h2.858Zm-4.763,0h-2.859v-2h2.859Zm-4.764,0H731.1v-2h2.857Zm-4.763,0h-2.858v-2h2.858Z" fill="#444e59"/><path d="M771.7,541.089h-2v-.5h-.5v-2h1.5a1,1,0,0,1,1,1Z" fill="#444e59"/><path d="M771.7,581.149h-2v-3h2Zm0-5.007h-2v-3h2Zm0-5.007h-2v-3h2Zm0-5.008h-2v-3h2Zm0-5.008h-2v-3h2Zm0-5.008h-2v-3h2Zm0-5.007h-2v-3h2Zm0-5.007h-2v-3h2Z" fill="#444e59"/></g><rect x="719.603" y="536.053" width="7.071" height="7.071" fill="#fff"/><path d="M726.343,543.37H719.3a.5.5,0,0,1-.5-.5v-7.042a.5.5,0,0,1,.5-.5h7.042a.5.5,0,0,1,.5.5v7.042A.5.5,0,0,1,726.343,543.37Zm-6.542-1h6.042v-6.042H719.8Z" fill="#444e59"/><rect x="719.603" y="581.117" width="7.071" height="7.071" fill="#fff"/><path d="M726.343,588.434H719.3a.5.5,0,0,1-.5-.5v-7.041a.5.5,0,0,1,.5-.5h7.042a.5.5,0,0,1,.5.5v7.041A.5.5,0,0,1,726.343,588.434Zm-6.542-1h6.042v-6.041H719.8Z" fill="#444e59"/><rect x="767.165" y="536.053" width="7.071" height="7.071" fill="#fff"/><path d="M774.223,543.37h-7.041a.5.5,0,0,1-.5-.5v-7.042a.5.5,0,0,1,.5-.5h7.041a.5.5,0,0,1,.5.5v7.042A.5.5,0,0,1,774.223,543.37Zm-6.541-1h6.041v-6.042h-6.041Z" fill="#444e59"/><rect x="767.165" y="581.117" width="7.071" height="7.071" fill="#fff"/><path d="M774.223,588.434h-7.041a.5.5,0,0,1-.5-.5v-7.041a.5.5,0,0,1,.5-.5h7.041a.5.5,0,0,1,.5.5v7.041A.5.5,0,0,1,774.223,588.434Zm-6.541-1h6.041v-6.041h-6.041Z" fill="#444e59"/><polygon points="658.548 562.487 665.593 577.705 672.549 581.278 677.34 576.488 673.766 569.532 658.548 562.487" fill="#fff"/><path d="M672.549,581.778a.5.5,0,0,1-.229-.055l-6.955-3.575a.492.492,0,0,1-.225-.234L658.1,562.7a.5.5,0,0,1,.664-.664l15.217,7.045a.5.5,0,0,1,.234.226l3.574,6.956a.5.5,0,0,1-.091.582l-4.791,4.79A.5.5,0,0,1,672.549,581.778Zm-6.573-4.44,6.477,3.329,4.276-4.274-3.33-6.479-13.824-6.4Z" fill="#444e59"/><circle cx="667.452" cy="571.077" r="1.919" fill="#444e59"/><path d="M666.423,570.861a.5.5,0,0,1-.354-.146l-7.874-7.874a.5.5,0,0,1,.707-.707l7.874,7.874a.5.5,0,0,1-.353.853Z" fill="#444e59"/><rect x="673.278" y="578.149" width="6.827" height="4.89" transform="translate(-212.343 648.545) rotate(-45)" fill="#fff"/><path d="M676.007,585.236a.5.5,0,0,1-.354-.146l-3.458-3.458a.5.5,0,0,1,0-.707l4.827-4.827a.5.5,0,0,1,.707,0l3.459,3.457a.5.5,0,0,1,0,.707l-4.828,4.828A.5.5,0,0,1,676.007,585.236Zm-2.751-3.958,2.751,2.751,4.12-4.121-2.751-2.75Z" fill="#444e59"/></g></g></svg>