<svg xmlns="http://www.w3.org/2000/svg" xmlns:xlink="http://www.w3.org/1999/xlink" width="600" height="600" xmlns:v="https://vecta.io/nano"><style><![CDATA[.B{opacity:.33}.C{fill:#fff}.D{stroke-linejoin:round}.E{fill:#46505c}.F{stroke:#46505c}.G{stroke-width:2}.H{stroke-width:4}.I{stroke:#e6f3ff}.J{fill:#626c84}.K{fill:#e6f3ff}.L{fill:#4e4e4e}.M{stroke-miterlimit:10}]]></style><g opacity=".47" fill="#76d1ff"><path d="M449.658 200.181l103-27.6c12.077-3.236 19.243-15.649 16.007-27.726h0c-3.236-12.077-15.649-19.243-27.726-16.007l-162.293 43.484c-12.077 3.236-24.49-3.931-27.726-16.007v-.001c-3.235-12.076 3.931-24.487 16.006-27.724l73.874-19.8c12.077-3.235 19.245-15.647 16.011-27.724l-.001-.002c-3.236-12.077-15.649-19.243-27.726-16.007L53.8 165.62c-12.076 3.235-19.243 15.647-16.008 27.724v.001c3.233 12.077 15.645 19.247 27.722 16.014l58.439-15.659c12.077-3.235 24.49 3.931 27.726 16.008h0c3.236 12.076-3.931 24.489-16.007 27.725l-100.021 26.8c-12.077 3.236-19.243 15.649-16.008 27.726h0c3.236 12.077 15.649 19.244 27.725 16.008l62.421-16.726c12.077-3.235 24.49 3.931 27.726 16.008h0c3.236 12.076-3.931 24.489-16.007 27.725l-4.43 1.187c-12.077 3.236-19.243 15.649-16.008 27.726l.004.013c3.235 12.077 15.648 19.244 27.725 16.009l4.201-1.125c12.076-3.236 24.489 3.931 27.725 16.007v.001a22.64 22.64 0 0 1-16.005 27.725l-62.192 16.664c-12.077 3.236-19.243 15.649-16.007 27.726h0c3.236 12.077 15.649 19.243 27.726 16.007l113.637-30.449c12.077-3.236 24.49 3.931 27.726 16.007v.001c3.236 12.077-3.93 24.49-16.007 27.726l-18.215 4.88c-12.076 3.237-19.242 15.65-16.007 27.726h0c3.235 12.076 15.648 19.243 27.724 16.008l289.352-77.531c12.077-3.236 19.243-15.649 16.007-27.726h0c-3.236-12.077-15.649-19.244-27.725-16.008l-8.513 2.281c-12.075 3.236-24.488-3.928-27.726-16.003h0c-3.235-12.077 3.933-24.49 16.009-27.725l55.972-15c12.077-3.236 19.244-15.649 16.008-27.725v-.001c-3.236-12.077-15.649-19.244-27.725-16.008L435.4 344.629c-12.077 3.236-24.49-3.931-27.726-16.007v-.001c-3.232-12.075 3.935-24.485 16.009-27.721l56.195-15.057c12.076-3.235 19.243-15.648 16.008-27.724l-.001-.002a22.64 22.64 0 0 0-27.717-16.019l-6.79 1.819c-12.077 3.236-24.49-3.93-27.726-16.007h0c-3.238-12.076 3.927-24.49 16.003-27.728zm88.774 23.03l5.957-1.597c12.078-3.238 24.493 3.928 27.732 16.005l.001.004c3.238 12.078-3.928 24.493-16.005 27.732l-5.957 1.597c-12.078 3.238-24.493-3.928-27.732-16.005l-.001-.004c-3.239-12.078 3.927-24.494 16.005-27.732z"/></g><g class="B L"><use xlink:href="#B" stroke="#000" class="D"/><use xlink:href="#B"/><path d="M191.95 261.845h232c7.732 0 14 6.268 14 14v20.438a8.55 8.55 0 0 1-8.549 8.549h0H186.5a8.55 8.55 0 0 1-8.549-8.549h0v-20.438c0-7.732 6.267-13.999 13.999-14z" opacity=".17"/><use xlink:href="#B" class="D F H"/><path d="M195.95 266.969h224v34.941h-224z"/><path d="M195.95 266.969h224v34.941h-224z" class="D F"/><use xlink:href="#C"/><path d="M433.951 321.323v144a10 10 0 0 1-10 10h-232a10 10 0 0 1-10-10v-144a10 10 0 0 1 10-10h232a10 10 0 0 1 10 10z" class="G I M"/><path d="M291.9 471.5H324a4 4 0 0 1 4 4v3.82h0-40.1 0v-3.82a4 4 0 0 1 4-4z"/><use xlink:href="#C" class="D F H"/><path d="M195.95 320.743h224a3 3 0 0 1 3 3v86a3 3 0 0 1-3 3h-224a3 3 0 0 1-3-3v-86a3 3 0 0 1 3-3z"/><g stroke="#626c84" class="D"><use xlink:href="#D"/><use xlink:href="#D" x="-21.639"/><use xlink:href="#E"/><use xlink:href="#D" x="129.831"/><use xlink:href="#F"/><use xlink:href="#F" y="-7.875"/><use xlink:href="#F" x="14"/><use xlink:href="#F" x="-14"/><use xlink:href="#G"/><use xlink:href="#D" x="19.819" y="-19.92"/><use xlink:href="#D" x="41.458" y="-19.92"/><use xlink:href="#D" x="63.096" y="-19.92"/><use xlink:href="#D" x="84.735" y="-19.92"/><use xlink:href="#D" x="106.373" y="-19.92"/><use xlink:href="#D" x="128.012" y="-19.92"/><use xlink:href="#H"/><use xlink:href="#D" x="12" y="-40.4"/><use xlink:href="#I"/><use xlink:href="#D" x="33.638" y="-40.4"/><use xlink:href="#D" x="55.277" y="-40.4"/><use xlink:href="#D" x="76.915" y="-40.4"/><use xlink:href="#D" x="98.554" y="-40.4"/><use xlink:href="#D" x="120.193" y="-40.4"/><use xlink:href="#D" x="141.831" y="-40.4"/><use xlink:href="#I" x="185.109"/><use xlink:href="#D" x="0.262" y="-60"/><use xlink:href="#D" x="-21.639" y="-60"/><use xlink:href="#D" x="22.163" y="-60"/><use xlink:href="#D" x="44.064" y="-60"/><use xlink:href="#D" x="65.965" y="-60"/><use xlink:href="#D" x="87.866" y="-60"/><use xlink:href="#D" x="109.767" y="-60"/><use xlink:href="#D" x="131.668" y="-60"/><use xlink:href="#D" x="153.569" y="-60"/><use xlink:href="#D" x="175.47" y="-60"/></g><use xlink:href="#D"/><use xlink:href="#D" x="-21.639"/><use xlink:href="#E"/><use xlink:href="#D" x="129.831"/><use xlink:href="#F"/><use xlink:href="#F" y="-7.875"/><use xlink:href="#F" x="14"/><use xlink:href="#F" x="-14"/><use xlink:href="#G"/><use xlink:href="#D" x="19.819" y="-19.92"/><use xlink:href="#D" x="41.458" y="-19.92"/><use xlink:href="#D" x="63.096" y="-19.92"/><use xlink:href="#D" x="84.735" y="-19.92"/><use xlink:href="#D" x="106.373" y="-19.92"/><use xlink:href="#D" x="128.012" y="-19.92"/><use xlink:href="#H"/><use xlink:href="#D" x="12" y="-40.4"/><use xlink:href="#I"/><use xlink:href="#D" x="33.638" y="-40.4"/><use xlink:href="#D" x="55.277" y="-40.4"/><use xlink:href="#D" x="76.915" y="-40.4"/><use xlink:href="#D" x="98.554" y="-40.4"/><use xlink:href="#D" x="120.193" y="-40.4"/><use xlink:href="#D" x="141.831" y="-40.4"/><use xlink:href="#I" x="185.109"/><use xlink:href="#D" x="0.262" y="-60"/><use xlink:href="#D" x="-21.639" y="-60"/><use xlink:href="#D" x="22.163" y="-60"/><use xlink:href="#D" x="44.064" y="-60"/><use xlink:href="#D" x="65.965" y="-60"/><use xlink:href="#D" x="87.866" y="-60"/><use xlink:href="#D" x="109.767" y="-60"/><use xlink:href="#D" x="131.668" y="-60"/><use xlink:href="#D" x="153.569" y="-60"/><use xlink:href="#D" x="175.47" y="-60"/><path d="M222.95 298.339h170 0v13.446a4 4 0 0 1-4 4h-162a4 4 0 0 1-4-4v-13.446h0 0z"/><path d="M388.95 311.784h-162a4 4 0 0 1-4-4v4a4 4 0 0 0 4 4h162a4 4 0 0 0 4-4v-4a4 4 0 0 1-4 4z" opacity=".25"/><path d="M222.95 298.339h170 0v13.446a4 4 0 0 1-4 4h-162a4 4 0 0 1-4-4v-13.446h0 0z" class="D F G"/><use xlink:href="#J"/><use xlink:href="#J" stroke="#626c84" class="D"/></g><g class="B D F H L"><use xlink:href="#K"/><use xlink:href="#K"/><circle cx="117.084" cy="374.922" r="32.576"/><circle cx="117.084" cy="374.922" r="32.576"/><circle cx="117.084" cy="374.922" r="25.355"/><circle cx="117.084" cy="374.922" r="25.355"/><path d="M100.509 369.659l1.08-2.246c1.7-3.332 3.733-6.786 6.978-8.827 2.755-1.734 6.608-2.413 9.594-.879 2.59 1.33 4.151 4.065 6.514 5.767a42.73 42.73 0 0 0 4.954 2.605c1.723.775 3.086 2.177 3.813 3.921.8 2.444-.519 5.052-.532 7.624a7.58 7.58 0 0 0 1.137 4.017 3.91 3.91 0 0 1 .875 1.979 2.6 2.6 0 0 1-1.715 2.06c-2.626 1.241-5.693.793-8.581.481s-6.086-.378-8.369 1.418a24.34 24.34 0 0 0-2.589 2.792c-1.248 1.871-3.776 2.376-5.647 1.128a4.12 4.12 0 0 1-.603-.491 26.78 26.78 0 0 1-5.326-6.041 16.42 16.42 0 0 1-3.173-6.557c-.519-2.975.346-5.952 1.59-8.751z" class="B"/><circle cx="122.212" cy="392.543" r="1.574" class="B"/><circle cx="118.115" cy="393.124" r="1.09" class="B"/><circle cx="125.931" cy="391.079" r=".988" class="B"/><circle cx="114.667" cy="393.532" r=".708" class="B"/><circle cx="129.052" cy="390.035" r=".432" class="B"/><circle cx="97.409" cy="368.931" r="1.014" class="B"/><circle cx="125.014" cy="357.133" r=".954" class="B"/><circle cx="131.215" cy="361.833" r=".864" class="B"/><circle cx="131.924" cy="364.281" r=".378" class="B"/></g><path d="M80.376 399.281l7.721-11.031c.219-.313.651-.389.964-.17l7.878 5.514c.313.219.389.651.17.964l-7.721 11.031a5 5 0 0 1-6.963 1.229l-.819-.573a5 5 0 0 1-1.23-6.964z" class="C G I M"/><path d="M89.06 388.081c-.313-.218-.744-.142-.963.171l-3.477 4.966c1.333 1.27 2.76 2.438 4.269 3.494s3.094 1.996 4.742 2.815l3.477-4.968a.69.69 0 0 0-.168-.961l-7.88-5.517z" opacity=".18" class="D F H L"/><path d="M85.281 409.719a6.95 6.95 0 0 1-4.003-1.263l-.819-.573a7.01 7.01 0 0 1-1.721-9.749h0l7.721-11.031c.851-1.215 2.532-1.513 3.748-.663l7.88 5.515c1.217.854 1.512 2.537.66 3.751l-7.72 11.029c-1.36 1.943-3.536 2.984-5.746 2.984zm-3.266-9.292c-.949 1.355-.618 3.23.737 4.179l.819.573c1.355.947 3.23.617 4.178-.737l6.971-9.96-5.735-4.014-6.97 9.959zm13.455-7.017h0z" class="E"/><circle cx="109.862" cy="366.746" r="32.576" class="C G I"/><path d="M109.862 401.322c-19.065 0-34.576-15.511-34.576-34.576s15.511-34.576 34.576-34.576 34.576 15.511 34.576 34.576-15.511 34.576-34.576 34.576zm0-65.152c-16.859 0-30.576 13.717-30.576 30.576s13.716 30.576 30.576 30.576 30.576-13.717 30.576-30.576-13.716-30.576-30.576-30.576z" class="E"/><circle cx="109.862" cy="366.746" r="25.355" fill="#845b5b"/><path d="M109.862 393.101c-14.532 0-26.355-11.822-26.355-26.354s11.823-26.355 26.355-26.355 26.355 11.823 26.355 26.355-11.823 26.354-26.355 26.354zm0-50.71c-13.429 0-24.355 10.926-24.355 24.355S96.433 391.1 109.862 391.1s24.355-10.926 24.355-24.354-10.926-24.355-24.355-24.355z" class="E"/><g fill="#845b5b"><path d="M93.287 361.482l1.08-2.246c1.7-3.331 3.734-6.785 6.978-8.827 2.756-1.734 6.608-2.412 9.594-.879 2.59 1.33 4.151 4.066 6.514 5.767a42.78 42.78 0 0 0 4.955 2.6c1.722.775 3.085 2.176 3.813 3.918.8 2.445-.519 5.053-.533 7.624a7.58 7.58 0 0 0 1.137 4.017c.472.564.776 1.25.876 1.979a2.6 2.6 0 0 1-1.715 2.061c-2.627 1.24-5.694.793-8.582.48s-6.085-.377-8.369 1.418a24.43 24.43 0 0 0-2.589 2.792c-1.248 1.871-3.777 2.376-5.649 1.128-.216-.144-.417-.308-.601-.49-2.07-1.734-3.865-3.771-5.326-6.042-1.534-1.919-2.617-4.158-3.17-6.552-.527-2.972.344-5.949 1.587-8.748z" class="B"/><circle cx="114.99" cy="384.366" r="1.574" class="B"/><circle cx="110.893" cy="384.947" r="1.09" class="B"/><circle cx="118.709" cy="382.903" r=".988" class="B"/><circle cx="107.445" cy="385.356" r=".708" class="B"/><circle cx="121.83" cy="381.859" r=".432" class="B"/><circle cx="90.187" cy="360.755" r="1.014" class="B"/><circle cx="117.792" cy="348.956" r=".954" class="B"/><circle cx="123.993" cy="353.656" r=".864" class="B"/><circle cx="124.702" cy="356.104" r=".378" class="B"/><circle cx="112.084" cy="368.84" r="2"/><circle cx="105.57" cy="361.159" r="3.5"/></g><path d="M416 298.404H184a14.52 14.52 0 0 1-14.5-14.5v-136a14.52 14.52 0 0 1 14.5-14.5h232a14.52 14.52 0 0 1 14.5 14.5v136a14.52 14.52 0 0 1-14.5 14.5zm-232-164a13.52 13.52 0 0 0-13.5 13.5v136a13.52 13.52 0 0 0 13.5 13.5h232a13.52 13.52 0 0 0 13.5-13.5v-136a13.52 13.52 0 0 0-13.5-13.5H184z"/><g class="J"><use xlink:href="#L"/><use xlink:href="#L"/><path d="M184 133.904h232c7.732 0 14 6.268 14 14V274.92c0 7.732-6.268 14-14 14H184c-7.732 0-14-6.268-14-14V147.904c0-7.732 6.268-14 14-14z" opacity=".17"/></g><path d="M184 137.9h232c7.732 0 14 6.268 14 14v132h0v-136c0-7.732-6.268-14-14-14H184c-7.732 0-14 6.268-14 14v4c0-7.732 6.268-14 14-14z" opacity=".1" class="C"/><g opacity=".1" class="C"><path d="M249.227 297.904h16.069l119.153-164H368.38zm25.339 0h4.944l119.154-164h-4.945z"/></g><path d="M416 299.904H184c-8.822 0-16-7.178-16-16v-136c0-8.822 7.178-16 16-16h232c8.822 0 16 7.178 16 16v136c0 8.822-7.178 16-16 16zm-232-164c-6.617 0-12 5.383-12 12v136c0 6.617 5.383 12 12 12h232c6.617 0 12-5.383 12-12v-136c0-6.617-5.383-12-12-12H184z" class="E"/><path fill="#fd848e" d="M188 152.384h224v126H188z"/><g opacity=".06" class="C"><path d="M264.409 278.384h16.069l91.544-126h-16.069zm25.339 0h4.945l91.544-126h-4.944z"/></g><path d="M412 278.884H188a.5.5 0 0 1-.5-.5v-126a.5.5 0 0 1 .5-.5h224a.5.5 0 0 1 .5.5v126a.5.5 0 0 1-.5.5zm-223.5-1h223v-125h-223v125z" class="E"/><path d="M184 297.904h232c7.732 0 14 6.268 14 14v144c0 7.732-6.268 14-14 14H184c-7.732 0-14-6.268-14-14v-144c0-7.732 6.268-14 14-14z" class="K"/><path d="M426 311.904v144a10 10 0 0 1-10 10H184a10 10 0 0 1-10-10v-144a10 10 0 0 1 10-10h232a10 10 0 0 1 10 10z" class="C G I M"/><path d="M283.949 462.084h32.1a4 4 0 0 1 4 4v3.82h0-40.1 0v-3.82a4 4 0 0 1 4-4z" class="K"/><path d="M416 471.904H184c-8.822 0-16-7.178-16-16v-144c0-8.822 7.178-16 16-16h232c8.822 0 16 7.178 16 16v144c0 8.823-7.178 16-16 16zm-232-172c-6.617 0-12 5.383-12 12v144c0 6.617 5.383 12 12 12h232c6.617 0 12-5.383 12-12v-144c0-6.617-5.383-12-12-12H184z" class="E"/><path d="M188 311.323h224a3 3 0 0 1 3 3v86a3 3 0 0 1-3 3H188a3 3 0 0 1-3-3v-86a3 3 0 0 1 3-3z" class="K"/><g class="J"><use xlink:href="#M"/><use xlink:href="#M" x="-21.638"/><path d="M337.277 395.323h-98.554a1.5 1.5 0 0 1-1.5-1.5v-12a1.5 1.5 0 0 1 1.5-1.5h98.554a1.5 1.5 0 0 1 1.5 1.5v12a1.5 1.5 0 0 1-1.5 1.5zm-98.554-14a.5.5 0 0 0-.5.5v12a.5.5 0 0 0 .5.5h98.554a.5.5 0 0 0 .5-.5v-12a.5.5 0 0 0-.5-.5h-98.554z"/><use xlink:href="#M" x="129.832"/><use xlink:href="#N"/><use xlink:href="#N" y="-7.875"/><use xlink:href="#N" x="14"/><use xlink:href="#N" x="-14"/><path d="M227.085 375.404h-31.639a1.5 1.5 0 0 1-1.5-1.5v-12a1.5 1.5 0 0 1 1.5-1.5h31.639a1.5 1.5 0 0 1 1.5 1.5v12a1.5 1.5 0 0 1-1.5 1.5zm-31.639-14a.5.5 0 0 0-.5.5v12a.5.5 0 0 0 .5.5h31.639a.5.5 0 0 0 .5-.5v-12a.5.5 0 0 0-.5-.5h-31.639z"/><use xlink:href="#M" x="19.82" y="-19.919"/><use xlink:href="#M" x="41.458" y="-19.919"/><use xlink:href="#M" x="63.097" y="-19.919"/><path d="M313.819 375.404h-12a1.5 1.5 0 0 1-1.5-1.5v-12a1.5 1.5 0 0 1 1.5-1.5h12a1.5 1.5 0 0 1 1.5 1.5v12a1.5 1.5 0 0 1-1.5 1.5zm-12-14a.5.5 0 0 0-.501.5v12a.5.5 0 0 0 .501.5h12a.5.5 0 0 0 .5-.5v-12a.5.5 0 0 0-.5-.5h-12z"/><use xlink:href="#M" x="106.374" y="-19.919"/><use xlink:href="#M" x="128.012" y="-19.919"/><path d="M404.554 375.404h-36a1.5 1.5 0 0 1-1.5-1.5v-12a1.5 1.5 0 0 1 1.5-1.5h36a1.5 1.5 0 0 1 1.5 1.5v12a1.5 1.5 0 0 1-1.5 1.5zm-36-14a.5.5 0 0 0-.5.5v12a.5.5 0 0 0 .5.5h36a.5.5 0 0 0 .5-.5v-12a.5.5 0 0 0-.5-.5h-36z"/><use xlink:href="#M" x="12" y="-40.399"/><use xlink:href="#O"/><use xlink:href="#M" x="33.639" y="-40.399"/><use xlink:href="#M" x="55.277" y="-40.399"/><use xlink:href="#M" x="76.916" y="-40.399"/><use xlink:href="#M" x="98.555" y="-40.399"/><use xlink:href="#M" x="120.193" y="-40.399"/><use xlink:href="#M" x="141.832" y="-40.399"/><use xlink:href="#O" x="185.108"/><use xlink:href="#M" x="0.263" y="-60"/><use xlink:href="#M" x="-21.638" y="-60"/><use xlink:href="#M" x="22.164" y="-60"/><use xlink:href="#M" x="44.065" y="-60"/><use xlink:href="#M" x="65.966" y="-60"/><use xlink:href="#M" x="87.866" y="-60"/><use xlink:href="#M" x="109.767" y="-60"/><use xlink:href="#M" x="131.668" y="-60"/><use xlink:href="#M" x="153.569" y="-60"/><use xlink:href="#M" x="175.47" y="-60"/><use xlink:href="#D" x="-7.951" y="-9.42"/><use xlink:href="#D" x="-29.589" y="-9.42"/><use xlink:href="#E" x="-7.95" y="-9.42"/><use xlink:href="#D" x="121.881" y="-9.42"/><use xlink:href="#F" x="-7.951" y="-9.42"/><use xlink:href="#F" x="-7.951" y="-17.295"/><use xlink:href="#F" x="6.049" y="-9.42"/><use xlink:href="#F" x="-21.951" y="-9.42"/><use xlink:href="#G" x="-7.95" y="-9.419"/><use xlink:href="#D" x="11.869" y="-29.339"/><use xlink:href="#D" x="33.507" y="-29.339"/><use xlink:href="#D" x="55.146" y="-29.339"/><use xlink:href="#D" x="76.784" y="-29.339"/><use xlink:href="#D" x="98.423" y="-29.339"/><use xlink:href="#D" x="120.061" y="-29.339"/><use xlink:href="#H" x="-7.951" y="-9.419"/><use xlink:href="#D" x="4.049" y="-49.819"/><use xlink:href="#I" x="-7.95" y="-9.419"/><use xlink:href="#D" x="25.688" y="-49.819"/><use xlink:href="#D" x="47.326" y="-49.819"/><use xlink:href="#D" x="68.965" y="-49.819"/><use xlink:href="#D" x="90.604" y="-49.819"/><use xlink:href="#D" x="112.242" y="-49.819"/><use xlink:href="#D" x="133.881" y="-49.819"/><use xlink:href="#I" x="177.158" y="-9.419"/><use xlink:href="#D" x="-7.688" y="-69.42"/><use xlink:href="#D" x="-29.589" y="-69.42"/><use xlink:href="#D" x="14.213" y="-69.42"/><use xlink:href="#D" x="36.114" y="-69.42"/><use xlink:href="#D" x="58.015" y="-69.42"/><use xlink:href="#D" x="79.915" y="-69.42"/><use xlink:href="#D" x="101.816" y="-69.42"/><use xlink:href="#D" x="123.717" y="-69.42"/><use xlink:href="#D" x="145.618" y="-69.42"/><use xlink:href="#D" x="167.519" y="-69.42"/><path d="M215 288.92h170 0v13.446a4 4 0 0 1-4 4H219a4 4 0 0 1-4-4V288.92h0z"/></g><path opacity=".12" d="M215 288.92h170v2H215z" class="C"/><path d="M381 302.365H219a4 4 0 0 1-4-4v4a4 4 0 0 0 4 4h162a4 4 0 0 0 4-4v-4a4 4 0 0 1-4 4z" opacity=".25" class="J"/><path d="M381 307.366H219c-2.757 0-5-2.243-5-5V288.92a1 1 0 0 1 1-1h170a1 1 0 0 1 1 1v13.446c0 2.757-2.243 5-5 5zM216 289.92v12.446c0 1.654 1.346 3 3 3h162c1.654 0 3-1.346 3-3V289.92H216z" class="E"/><use xlink:href="#J" x="-7.951" y="-9.42" class="K"/><path d="M335 459.823h-70c-1.378 0-2.5-1.121-2.5-2.5v-47c0-1.379 1.122-2.5 2.5-2.5h70c1.379 0 2.5 1.121 2.5 2.5v47c0 1.379-1.121 2.5-2.5 2.5zm-70-51a1.5 1.5 0 0 0-1.5 1.5v47a1.5 1.5 0 0 0 1.5 1.5h70a1.5 1.5 0 0 0 1.5-1.5v-47a1.5 1.5 0 0 0-1.5-1.5h-70z" class="J"/><circle cx="300" cy="144.052" r="3" opacity=".52" class="C"/><path d="M300 147.552c-1.93 0-3.5-1.57-3.5-3.5s1.57-3.5 3.5-3.5 3.5 1.57 3.5 3.5-1.57 3.5-3.5 3.5zm0-6c-1.378 0-2.5 1.122-2.5 2.5s1.122 2.5 2.5 2.5 2.5-1.122 2.5-2.5-1.121-2.5-2.5-2.5z" class="E"/><g class="C"><use xlink:href="#P"/><use xlink:href="#P" x="25.974"/><use xlink:href="#P" x="-25.973"/><circle cx="207.233" cy="166.65" r="4.837"/></g><g opacity=".72" class="C"><path d="M249.324 219.611h101.234v3.645H249.324zm12.803-12.098h75.629v3.698h-75.629z"/></g><path d="M317.405 259.407h-28.812a5.99 5.99 0 0 1-5.981-5.981 5.99 5.99 0 0 1 5.981-5.981h28.812a5.99 5.99 0 0 1 5.98 5.981 5.99 5.99 0 0 1-5.98 5.981zm-28.811-10.962a4.99 4.99 0 0 0-4.981 4.981 4.99 4.99 0 0 0 4.981 4.981h28.812a4.99 4.99 0 0 0 4.98-4.981 4.99 4.99 0 0 0-4.98-4.981h-28.812z" class="C"/><defs ><path id="B" d="M191.95 261.845h232c7.732 0 14 6.268 14 14v17.478c0 7.732-6.268 14-14 14h-232c-7.732 0-14-6.268-14-14v-17.478c0-7.732 6.268-14 14-14z"/><path id="C" d="M191.951 307.323h232c7.732 0 14 6.268 14 14v144c0 7.732-6.268 14-14 14h-232c-7.732 0-14-6.268-14-14v-144c0-7.732 6.268-14 14-14z"/><path id="D" d="M225.035 390.243h12a1 1 0 0 1 1 1v12a1 1 0 0 1-1 1h-12a1 1 0 0 1-1-1v-12a1 1 0 0 1 1-1z"/><path id="E" d="M246.673 390.243h98.554a1 1 0 0 1 1 1v12a1 1 0 0 1-1 1h-98.554a1 1 0 0 1-1-1v-12a1 1 0 0 1 1-1z"/><path id="F" d="M390.505 398.118h8a1 1 0 0 1 1 1v4.125a1 1 0 0 1-1 1h-8a1 1 0 0 1-1-1v-4.125a1 1 0 0 1 1-1z"/><path id="G" d="M203.396 370.323h31.639a1 1 0 0 1 1 1v12a1 1 0 0 1-1 1h-31.639a1 1 0 0 1-1-1v-12a1 1 0 0 1 1-1z"/><path id="H" d="M376.505 370.323h36a1 1 0 0 1 1 1v12a1 1 0 0 1-1 1h-36a1 1 0 0 1-1-1v-12a1 1 0 0 1 1-1z"/><path id="I" d="M203.396 349.843h24a1 1 0 0 1 1 1v12a1 1 0 0 1-1 1h-24a1 1 0 0 1-1-1v-12a1 1 0 0 1 1-1z"/><path id="J" d="M272.951 417.743h70a2 2 0 0 1 2 2v47a2 2 0 0 1-2 2h-70a2 2 0 0 1-2-2v-47a2 2 0 0 1 2-2z"/><path id="K" d="M87.598 407.458l7.722-11.032c.219-.313.651-.389.964-.17l7.878 5.514c.313.219.389.651.17.964l-7.722 11.032a5 5 0 0 1-6.963 1.229l-.819-.573a5 5 0 0 1-1.23-6.964z"/><path id="L" d="M184 133.904h232c7.732 0 14 6.268 14 14v136c0 7.732-6.268 14-14 14H184c-7.732 0-14-6.268-14-14v-136c0-7.732 6.268-14 14-14z"/><path id="M" d="M229.084 395.323h-12a1.5 1.5 0 0 1-1.5-1.5v-12a1.5 1.5 0 0 1 1.5-1.5h12a1.5 1.5 0 0 1 1.5 1.5v12a1.5 1.5 0 0 1-1.5 1.5zm-12-14a.5.5 0 0 0-.5.5v12a.5.5 0 0 0 .5.5h12a.5.5 0 0 0 .5-.5v-12a.5.5 0 0 0-.5-.5h-12z"/><path id="N" d="M390.554 395.323h-8a1.5 1.5 0 0 1-1.5-1.5v-4.125a1.5 1.5 0 0 1 1.5-1.5h8a1.5 1.5 0 0 1 1.5 1.5v4.125a1.5 1.5 0 0 1-1.5 1.5zm-8-6.125a.5.5 0 0 0-.5.5v4.125a.5.5 0 0 0 .5.5h8a.5.5 0 0 0 .5-.5v-4.125a.5.5 0 0 0-.5-.5h-8z"/><path id="O" d="M219.446 354.924h-24a1.5 1.5 0 0 1-1.5-1.5v-12a1.5 1.5 0 0 1 1.5-1.5h24a1.5 1.5 0 0 1 1.5 1.5v12a1.5 1.5 0 0 1-1.5 1.5zm-24-14a.5.5 0 0 0-.5.5v12a.5.5 0 0 0 .5.5h24a.5.5 0 0 0 .5-.5v-12a.5.5 0 0 0-.5-.5h-24z"/><path id="P" d="M350.36 165.129h12a1 1 0 0 1 1 1h0a1 1 0 0 1-1 1h-12a1 1 0 0 1-1-1h0a1 1 0 0 1 1-1z"/></defs></svg>